SplineFontDB: 3.0
FontName: Crimson-Semibold
FullName: Crimson Semibold
FamilyName: Crimson
Weight: Semibold
Copyright: Copyright (c) 2011, Sebastian Kosch (sebastian@aldusleaf.org),\nwith Reserved Font Name "Crimson".\nThis Font Software is licensed under the SIL Open Font License, Version 1.1.\nThis license is available with a FAQ at: http://scripts.sil.org/OFL
UComments: "2011-9-20: Created."
Version: 0.8
ItalicAngle: 0
UnderlinePosition: -100
UnderlineWidth: 50
Ascent: 742
Descent: 282
InvalidEm: 0
LayerCount: 2
Layer: 0 0 "Back" 1
Layer: 1 0 "Fore" 0
XUID: [1021 732 1356305489 5808660]
FSType: 0
OS2Version: 3
OS2_WeightWidthSlopeOnly: 0
OS2_UseTypoMetrics: 1
CreationTime: 1316567991
ModificationTime: 1413032456
PfmFamily: 17
TTFWeight: 600
TTFWidth: 5
LineGap: 256
VLineGap: 0
OS2TypoAscent: 742
OS2TypoAOffset: 0
OS2TypoDescent: -282
OS2TypoDOffset: 0
OS2TypoLinegap: 256
OS2WinAscent: 948
OS2WinAOffset: 0
OS2WinDescent: 332
OS2WinDOffset: 0
HheadAscent: 742
HheadAOffset: 0
HheadDescent: -282
HheadDOffset: 0
OS2SubXSize: 665
OS2SubYSize: 614
OS2SubXOff: 0
OS2SubYOff: 76
OS2SupXSize: 665
OS2SupYSize: 614
OS2SupXOff: 0
OS2SupYOff: 358
OS2StrikeYSize: 50
OS2StrikeYPos: 262
OS2CapHeight: 0
OS2XHeight: 0
OS2FamilyClass: 258
OS2Vendor: 'PfEd'
Lookup: 1 0 0 "'ccmp' Turkish i" { "'ccmp' Turkish i-1"  } ['ccmp' ('latn' <'TRK ' > ) ]
Lookup: 1 0 0 "'pnum' Proportional Numbers lookup 12" { "'pnum' Proportional Numbers lookup 12-1" ("prop") } ['pnum' ('DFLT' <'dflt' > 'grek' <'dflt' > 'latn' <'TRK ' 'dflt' > ) ]
Lookup: 258 0 0 "'kern' Horizontal Kerning in Latin lookup 0" { "'kern' Horizontal Kerning in Latin lookup 0 kerning class 1" [153,0,0] } ['kern' ('latn' <'TRK ' 'dflt' > ) ]
MarkAttachClasses: 1
DEI: 91125
KernClass2: 72+ 56 "'kern' Horizontal Kerning in Latin lookup 0 kerning class 1"
 9 ampersand
 3 bar
 10 exclamdown
 10 registered
 12 questiondown
 84 A Agrave Aacute Acircumflex Atilde Adieresis Aring Amacron Abreve Aogonek Aringacute
 1 B

StartChar: exclam
Encoding: 33 33 1
Width: 255
Flags: W
HStem: -11 130<79.9117 175.15> 622 20G<114 146.5>
VStem: 62 130<6.75665 102.706> 73 111<350.732 629.251>
LayerCount: 2
Back
Fore
SplineSet
62 56 m 0xe0
 62 91 91 119 127 119 c 1
 163 119 192 89 192 54 c 0
 192 19 164 -11 128 -11 c 1
 92 -11 62 20 62 56 c 0xe0
131 642 m 0
 162 642 184 613 184 579 c 0
 184 551 163 365 146 196 c 1
 142 186 138 179 128 177 c 1
 123 178 114 183 110 191 c 1
 98 305 73 529 73 580 c 0xd0
 73 615 97 642 131 642 c 0
EndSplineSet
Validated: 1
EndChar

StartChar: quotedbl
Encoding: 34 34 2
Width: 307
Flags: W
HStem: 452 248<76.0952 107.779 216.095 247.779>
VStem: 38 86<514.588 682.3> 178 86<514.588 682.3>
LayerCount: 2
Back
Fore
SplineSet
235 700 m 0
 248 700 256 696 264 685 c 1
 264 653 254 530 248 473 c 1
 244 467 234 456 226 452 c 1
 222 452 218 455 216 459 c 1
 193 537 178 593 178 623 c 0
 178 653 200 700 235 700 c 0
95 700 m 0
 108 700 116 696 124 685 c 1
 124 653 114 530 108 473 c 1
 104 467 94 456 86 452 c 1
 82 452 78 455 76 459 c 1
 53 537 38 593 38 623 c 0
 38 653 60 700 95 700 c 0
EndSplineSet
Validated: 1
EndChar

StartChar: numbersign
Encoding: 35 35 3
Width: 479
UnlinkRmOvrlpSave: 1
Flags: W
HStem: 163 58<60.9446 390.409> 354 58<88.0369 418.331>
LayerCount: 2
Back
Fore
SplineSet
412 354 m 1
 253 354 253 354 83 354 c 1
 71 354 82 408 95 412 c 9
 421 412 l 17
 435 412 425 360 412 354 c 1
384 163 m 1
 225 163 225 163 55 163 c 1
 43 163 55 217 68 221 c 9
 394 221 l 17
 408 221 397 169 384 163 c 1
377 528 m 1
 302 56 l 2
 301 52 289 44 274 44 c 0
 264 44 263 48 263 48 c 1
 339 518 l 1
 342 527 345 531 364 531 c 0
 373 531 374 530 377 528 c 1
216 528 m 1
 140 56 l 2
 139 52 128 44 113 44 c 0
 103 44 102 48 102 48 c 1
 178 518 l 1
 181 527 184 531 203 531 c 0
 212 531 213 530 216 528 c 1
EndSplineSet
Validated: 37
EndChar

StartChar: dollar
Encoding: 36 36 4
Width: 508
UnlinkRmOvrlpSave: 1
Flags: W
HStem: -10 38<221.268 310.886> 602 38<200.824 281.565>
VStem: 53 39<123.949 182.842> 65 102<450.039 546.147> 173 37<-42.1892 -2.62753> 291 37<632.688 672.957> 353 105<86.0385 195.787> 389 37<460.001 520.91>
LayerCount: 2
Back
Fore
SplineSet
261 640 m 0xde
 319 640 355 626 415 613 c 1
 423 562 424 507 426 465 c 1
 424 461 419 460 415 460 c 0
 411 460 391 458 389 467 c 0
 382 518 336 602 261 602 c 0
 201 602 167 564 167 509 c 0xdd
 167 441 242 396 305 356 c 0
 369 316 458 277 458 166 c 0
 458 60 357 -10 253 -10 c 0
 193 -10 128 4 76 16 c 1
 65 66 54 153 53 172 c 1
 56 178 73 184 79 184 c 0
 85 184 91 182 92 176 c 0xee
 100 136 143 28 249 28 c 0
 297 28 353 56 353 132 c 0
 353 210 276 244 219 280 c 0
 147 325 65 371 65 469 c 0
 65 569 163 640 261 640 c 0xde
291 676 m 17
 299 676 328 675 328 668 c 9
 328 668 210 -46 210 -46 c 17
 201 -46 173 -44 173 -37 c 9
 173 -37 291 676 291 676 c 17
EndSplineSet
Validated: 5
EndChar

StartChar: percent
Encoding: 37 37 5
Width: 677
Flags: W
HStem: -4 28<460.649 527.409> 282 27<445.859 512.034> 331 28<165.706 234.539> 616 27<152.859 219.125>
VStem: 40 80<404.976 567.758> 265 80<406.139 570.672> 333 80<70.2255 232.248> 557 80<71.7888 237.932>
LayerCount: 2
Back
Fore
SplineSet
187 616 m 1xfd
 133 616 120 552 120 498 c 0
 120 434 150 359 200 359 c 1
 254 359 265 424 265 476 c 0
 265 539 238 616 187 616 c 1xfd
193 643 m 0
 283 643 345 574 345 488 c 0
 345 406 283 331 193 331 c 0
 105 331 40 400 40 486 c 0
 40 572 105 643 193 643 c 0
480 282 m 1
 426 282 413 218 413 164 c 0xfb
 413 100 443 24 493 24 c 1
 547 24 557 90 557 142 c 0
 557 205 531 282 480 282 c 1
486 309 m 0
 576 309 637 240 637 154 c 0
 637 72 576 -4 486 -4 c 0
 398 -4 333 65 333 151 c 0
 333 237 398 309 486 309 c 0
611 630 m 1
 611 630 111 -2 111 -2 c 2
 107 -8 89 -16 75 -16 c 0
 61 -16 58 -5 58 -4 c 1
 58 -4 557 628 557 628 c 1
 563 634 575 640 587 640 c 0
 606 640 607 637 611 630 c 1
EndSplineSet
Validated: 1
EndChar

StartChar: ampersand
Encoding: 38 38 6
Width: 689
Flags: W
HStem: -4 60<222.387 343.562 503 590.632> 284 28<471.292 518.32 597.16 667.406> 614 36<268.328 350.959>
VStem: 54 108<116.711 241.671> 149 94<449.853 581.917> 377 86<460.104 591.698>
LayerCount: 2
Back
Fore
SplineSet
393 95 m 1xf4
 347 147 251 290 233 314 c 1
 195 286 162 255 162 196 c 0
 162 116 217 56 299 56 c 0
 336 56 371 73 393 95 c 1xf4
312 614 m 0
 273 614 243 581 243 534 c 0xec
 243 484 271 436 295 396 c 1
 348 426 377 460 377 522 c 0
 377 560 357 614 312 614 c 0
301 650 m 0
 395 650 463 607 463 536 c 0
 463 446 385 396 317 362 c 1
 352 308 421 216 461 168 c 1
 491 210 519 255 519 266 c 0
 519 288 480 282 473 284 c 1
 469 290 469 309 473 312 c 1
 473 312 547 312 547 312 c 2
 582 312 620 314 666 316 c 1
 670 314 669 288 665 285 c 1
 653 285 609 279 595 269 c 0
 585 262 533 184 489 134 c 1
 515 106 552 62 575 62 c 0
 599 62 625 98 633 112 c 1
 643 112 655 102 657 94 c 1
 653 84 601 -2 531 -2 c 1
 475 -2 433 50 419 66 c 1
 373 24 307 -4 241 -4 c 1
 141 -4 54 56 54 157 c 0xf4
 54 263 138 314 207 352 c 1
 183 392 149 436 149 504 c 0
 149 587 212 650 301 650 c 0
EndSplineSet
Validated: 1
EndChar

StartChar: quotesingle
Encoding: 39 39 7
Width: 173
Flags: W
HStem: 462 243<79.0952 112.808>
VStem: 37 94<528.708 685.309>
LayerCount: 2
Back
Fore
SplineSet
99 705 m 0
 113 705 123 700 131 688 c 1
 129 642 122 541 113 481 c 1
 109 475 99 466 89 462 c 1
 85 462 81 464 79 468 c 1
 57 533 37 590 37 628 c 0
 37 664 62 705 99 705 c 0
EndSplineSet
Validated: 1
EndChar

StartChar: parenleft
Encoding: 40 40 8
Width: 277
Flags: W
VStem: 35 92<134.871 455.051>
LayerCount: 2
Back
Fore
SplineSet
127 295 m 0
 127 101 203 -62 269 -120 c 1
 270 -122 261 -140 255 -144 c 1
 159 -81 35 63 35 295 c 0
 35 527 159 670 255 733 c 1
 261 729 270 712 269 710 c 1
 203 652 127 489 127 295 c 0
EndSplineSet
Validated: 1
EndChar

StartChar: parenright
Encoding: 41 41 9
Width: 277
Flags: W
VStem: 150 92<134.871 455.051>
LayerCount: 2
Back
Fore
SplineSet
242 295 m 0
 242 63 118 -81 22 -144 c 1
 16 -140 7 -122 8 -120 c 1
 74 -62 150 101 150 295 c 0
 150 489 74 652 8 710 c 1
 7 712 16 729 22 733 c 1
 118 670 242 527 242 295 c 0
EndSplineSet
Validated: 1
EndChar

StartChar: asterisk
Encoding: 42 42 10
Width: 443
Flags: W
HStem: 386 72<304.361 392.804> 429 77<40.6318 145.883>
VStem: 162 78<305.875 407.75>
LayerCount: 2
Back
Fore
SplineSet
295 616 m 0x60
 314 638 343 640 358 626 c 0
 374 610 374 583 354 563 c 0
 320 529 285 533 257 506 c 1x60
 257 506 251 497 251 492 c 0
 251 488 255 485 260 483 c 0
 295 467 323 478 367 458 c 0
 393 447 405 421 396 402 c 0
 386 382 361 374 335 386 c 0xa0
 292 407 284 442 250 460 c 1
 250 460 240 465 236 463 c 0
 232 461 232 458 231 452 c 0
 227 414 245 392 240 344 c 0
 237 316 216 298 196 300 c 0
 174 304 158 324 162 352 c 0
 169 400 199 418 206 456 c 1
 206 456 208 466 204 470 c 0
 202 473 199 473 193 472 c 0
 156 464 139 439 92 429 c 0x60
 64 423 40 438 36 458 c 0xa0
 32 480 47 501 75 506 c 0
 122 514 149 491 188 496 c 1
 188 496 198 498 200 503 c 0
 202 507 200 511 197 516 c 0
 178 549 150 556 125 598 c 0
 111 622 117 650 135 660 c 0
 155 670 179 663 193 638 c 0
 215 595 201 563 218 528 c 1
 218 528 223 518 228 517 c 0
 232 517 235 518 239 522 c 0
 265 550 263 580 295 616 c 0x60
EndSplineSet
Validated: 33
EndChar

StartChar: plus
Encoding: 43 43 11
Width: 542
Flags: W
HStem: 218 57<34.7524 241 299 508.097>
VStem: 242 57<9.3338 218 275.137 481.973>
LayerCount: 2
Back
Fore
SplineSet
242 474 m 1
 256 482 279 485 285 485 c 0
 295 485 299 482 299 478 c 1
 299 275 l 1
 339 275 463 275 503 275 c 1
 508 275 511 269 511 262 c 0
 511 243 505 227 497 218 c 1
 299 218 l 1
 299 218 299 56 299 18 c 1
 287 10 264 6 254 6 c 0
 248 6 242 11 242 15 c 2
 242 218 l 1
 37 218 l 1
 35 218 31 220 31 230 c 0
 31 234 35 265 44 275 c 1
 241 275 l 1
 241 275 242 464 242 474 c 1
EndSplineSet
Validated: 1
EndChar

StartChar: comma
Encoding: 44 44 12
Width: 213
Flags: W
HStem: -148 279
VStem: 85 78<-32.4522 67.5>
LayerCount: 2
Back
Fore
SplineSet
113 131 m 0
 125 131 138 126 147 120 c 1
 155 106 163 83 163 52 c 0
 163 -24 96 -116 36 -148 c 1
 27 -146 18 -132 18 -126 c 1
 38 -112 85 -73 85 -17 c 0
 85 16 45 19 45 71 c 0
 45 89 64 131 113 131 c 0
EndSplineSet
Validated: 1
EndChar

StartChar: hyphen
Encoding: 45 45 13
Width: 376
Flags: W
HStem: 210 66<76.1688 313.221>
VStem: 57 262
LayerCount: 2
Back
Fore
SplineSet
71 264 m 1
 71 264 279 275 312 276 c 0
 316 276 319 275 319 267 c 0
 319 250 313 227 305 210 c 1
 258 207 155 203 64 199 c 0
 59 199 57 201 57 210 c 0
 57 229 64 249 71 264 c 1
EndSplineSet
Validated: 1
EndChar

StartChar: period
Encoding: 46 46 14
Width: 221
Flags: W
HStem: -11 130<62.3035 158.603>
VStem: 45 130<6.75665 102.706>
LayerCount: 2
Back
Fore
SplineSet
45 56 m 0
 45 91 75 119 111 119 c 1
 147 119 175 89 175 54 c 0
 175 19 147 -11 111 -11 c 1
 75 -11 45 20 45 56 c 0
EndSplineSet
Validated: 1
EndChar

StartChar: slash
Encoding: 47 47 15
Width: 417
Flags: W
LayerCount: 2
Back
Fore
SplineSet
371 761 m 0
 382 761 386 756 387 752 c 1
 92 -13 l 2
 90 -20 76 -35 47 -35 c 0
 32 -35 29 -28 29 -28 c 1
 327 742 l 1
 329 748 344 761 371 761 c 0
EndSplineSet
Validated: 1
EndChar

StartChar: zero
Encoding: 48 48 16
Width: 487
Flags: W
HStem: -3 40<203.242 286.641> 594 40<202.791 291.627>
VStem: 24 109<172.135 455.204> 354 109<171.167 464.191>
LayerCount: 2
Back
Fore
SplineSet
248 594 m 0
 174 594 133 468 133 311 c 0
 133 154 181 37 243 37 c 0
 320 37 354 169 354 326 c 0
 354 483 312 594 248 594 c 0
245 634 m 0
 375 634 463 502 463 315 c 0
 463 141 374 -3 245 -3 c 0
 117 -3 24 128 24 315 c 0
 24 489 116 634 245 634 c 0
EndSplineSet
Validated: 1
Substitution2: "'pnum' Proportional Numbers lookup 12-1" zero.prop
EndChar

StartChar: one
Encoding: 49 49 17
Width: 487
Flags: W
HStem: -4 33<133.33 199.361 317.799 383.83> 622 20G<305.08 311.58>
VStem: 206.58 104<36.3778 545.993>
LayerCount: 2
Back
Fore
SplineSet
206.580078125 130 m 2
 206.580078125 501 l 2
 206.580078125 537 200.580078125 546 185.580078125 546 c 0
 173.580078125 546 132.580078125 534 114.580078125 525 c 1
 108.580078125 529 102.580078125 537 102.580078125 543 c 0
 102.580078125 545 101.580078125 551 104.580078125 552 c 0
 202.580078125 595 303.580078125 642 306.580078125 642 c 2
 308.580078125 642 l 2
 314.580078125 642 318.580078125 630 319.580078125 625 c 1
 319.580078125 625 310.580078125 593 310.580078125 530 c 2
 310.580078125 130 l 2
 310.580078125 94 311.580078125 64 317.580078125 46 c 0
 321.580078125 34 369.580078125 29 381.580078125 29 c 1
 385.580078125 23 385.580078125 2 381.580078125 -4 c 1
 341.580078125 -1 297.580078125 2 257.580078125 2 c 0
 217.580078125 2 175.580078125 -1 135.580078125 -4 c 1
 131.580078125 2 131.580078125 23 135.580078125 29 c 1
 148.580078125 29 195.580078125 34 199.580078125 46 c 0
 205.580078125 64 206.580078125 94 206.580078125 130 c 2
EndSplineSet
Validated: 33
Substitution2: "'pnum' Proportional Numbers lookup 12-1" one.prop
EndChar

StartChar: two
Encoding: 50 50 18
Width: 487
Flags: W
HStem: 0 88<146.5 385.921> 570 72<156.613 260.845>
VStem: 308.5 108<381.71 522.473>
LayerCount: 2
Back
Fore
SplineSet
454.5 171 m 1
 438.5 123 402.5 18 396.5 0 c 9
 396.5 0 44.5 0 40.5 0 c 1
 36.5 4 32.5 12 32.5 16 c 1
 112.5 105 190.5 190 254.5 288 c 0
 298.5 354 308.5 405 308.5 452 c 0
 308.5 520 257.5 570 198.5 570 c 0
 123.5 570 80.5 506 70.5 492 c 1
 64.5 492 50.5 502 50.5 512 c 1
 62.5 544 134.5 642 242.5 642 c 0
 338.5 642 416.5 570 416.5 474 c 0
 416.5 415 388.5 360 348.5 312 c 0
 285.5 236 203.5 144 146.5 88 c 1
 332.5 88 l 2
 382.5 88 402.5 126 420.5 170 c 0
 422.5 175 428.5 177 434.5 177 c 0
 440.5 177 450.5 175 454.5 171 c 1
EndSplineSet
Validated: 1
Substitution2: "'pnum' Proportional Numbers lookup 12-1" two.prop
EndChar

StartChar: three
Encoding: 51 51 19
Width: 487
Flags: W
HStem: -6 41<168.406 281.907> 316 32<148.195 201.938> 578 64<167.883 267.4>
VStem: 301.5 96<446.812 542.768> 331.5 110<129.505 264.814>
LayerCount: 2
Back
Fore
SplineSet
255.5 642 m 0xf0
 305.5 642 397.5 605 397.5 514 c 0xf0
 397.5 440 325.5 392 295.5 376 c 1
 333.5 375 441.5 322 441.5 219 c 0
 441.5 80 305.5 -6 179.5 -6 c 0
 133.5 -6 87.5 8 61.5 24 c 1
 55.5 30 45.5 52 45.5 65 c 0
 45.5 91 63.5 116 91.5 116 c 0
 119.5 116 135.5 88 151.5 70 c 0
 169.5 50 199.5 35 225.5 35 c 0
 283.5 35 331.5 82 331.5 184 c 0xe8
 331.5 262 277.5 326 211.5 326 c 0
 197.5 326 174.5 321 155.5 316 c 1
 151.5 321 147.5 330 147.5 338 c 0
 147.5 342 147.5 345 149.5 348 c 1
 217.5 362 301.5 399 301.5 477 c 0
 301.5 534 263.5 578 205.5 578 c 0
 147.5 578 101.5 528 93.5 520 c 1
 87.5 521 81.5 535 81.5 544 c 1
 115.5 592 176.5 642 255.5 642 c 0xf0
EndSplineSet
Validated: 1
Substitution2: "'pnum' Proportional Numbers lookup 12-1" three.prop
EndChar

StartChar: four
Encoding: 52 52 20
Width: 487
Flags: W
HStem: -6 21G<330.5 365> 174 62<97 298 400 464.769> 624 20G<375 383>
VStem: 298 102<2 174 236 495>
LayerCount: 2
Back
Fore
SplineSet
379 644 m 0
 387 644 400 631 400 621 c 2
 400 236 l 25
 453 236 l 2
 459 236 467 217 467 192 c 0
 467 180 462 176 461 174 c 1
 400 174 l 25
 400 2 l 1
 400 2 385 -6 345 -6 c 0
 316 -6 298 -3 298 5 c 2
 298 174 l 25
 30 174 l 1
 22 178 20 186 20 196 c 1
 80 270 302 558 355 624 c 1
 361 632 371 644 379 644 c 0
298 495 m 17
 97 236 l 1
 298 236 l 1
 298 495 l 17
EndSplineSet
Validated: 1
Substitution2: "'pnum' Proportional Numbers lookup 12-1" four.prop
EndChar

StartChar: five
Encoding: 53 53 21
Width: 487
Flags: W
HStem: -6 41<169.819 282.804> 334 76<140.181 259.171> 542 94<164.611 375.121> 625 20G<394.5 401>
VStem: 333 107<133.366 259.005>
LayerCount: 2
Back
Fore
SplineSet
245 410 m 0xe8
 347 410 440 319 440 224 c 0
 440 85 307 -6 181 -6 c 0
 135 -6 89 8 63 24 c 1
 57 30 47 52 47 65 c 0
 47 91 65 116 93 116 c 0
 121 116 137 88 153 70 c 0
 171 50 200 35 226 35 c 0
 284 35 333 81 333 184 c 0
 333 260 269 334 183 334 c 1
 141 334 108 325 95 319 c 1
 90 319 87 330 87 336 c 1
 99 394 133 580 143 636 c 1
 200 636 275 636 307 636 c 1xe8
 349 636 391 643 398 645 c 1xd8
 404 642 411 640 411 632 c 0
 411 620 389 566 377 549 c 1
 337 545 292 543 245 542 c 1
 229 542 181 542 169 542 c 1
 162 507 145 421 139 393 c 1
 165 401 213 410 245 410 c 0xe8
EndSplineSet
Validated: 1
Substitution2: "'pnum' Proportional Numbers lookup 12-1" five.prop
EndChar

StartChar: six
Encoding: 54 54 22
Width: 487
Flags: W
HStem: -6 38<205.975 295.131> 346 54<185.789 289.937> 618 28<387.425 414.245>
VStem: 40 108<126.724 320.644> 339 108<114.641 290.139>
LayerCount: 2
Back
Fore
SplineSet
155 316 m 1
 151 288 148 256 148 230 c 0
 148 143 178 32 250 32 c 0
 301 32 339 93 339 183 c 0
 339 268 308 346 228 346 c 0
 208 346 179 341 155 316 c 1
264 400 m 0
 382 400 447 313 447 205 c 0
 447 91 350 -6 240 -6 c 0
 124 -6 40 112 40 231 c 1
 40 337 85 432 146 498 c 0
 224 582 332 630 408 646 c 1
 416 643 418 626 417 618 c 1
 312 578 203 504 165 365 c 1
 195 387 234 400 264 400 c 0
EndSplineSet
Validated: 1
Substitution2: "'pnum' Proportional Numbers lookup 12-1" six.prop
EndChar

StartChar: seven
Encoding: 55 55 23
Width: 487
Flags: W
HStem: -8 21G<140 147.5> 548 86<91.9294 369.291 369.5 383.5>
VStem: 31.5 34<462.287 511.375>
LayerCount: 2
Back
Fore
SplineSet
369.5 635 m 2
 399.5 635 443.5 638 449.5 638 c 0
 455.5 638 455.5 631 455.5 626 c 0
 455.5 615 441.5 592 427.5 562 c 2
 159.5 -5 l 1
 156.5 -7 149.5 -8 145.5 -8 c 0
 134.5 -8 101.5 -1 101.5 13 c 1
 173.5 121 337.5 452 383.5 548 c 1
 139.5 548 l 2
 94.5 548 79.5 514 65.5 468 c 0
 64.5 464 61.5 462 53.5 462 c 0
 46.5 462 35.5 464 31.5 468 c 1
 46.5 520 66.5 602 73.5 634 c 1
 81.5 634 369.5 635 369.5 635 c 2
EndSplineSet
Validated: 1
Substitution2: "'pnum' Proportional Numbers lookup 12-1" seven.prop
EndChar

StartChar: eight
Encoding: 56 56 24
Width: 487
Flags: W
HStem: -8 39<193.388 301.605> 600 38<197.684 282.845>
VStem: 44.5 105<74.7471 227.449> 64.5 102<437.757 553.896> 320.5 98<422.486 564.448> 336.5 106<87.4819 193.404>
LayerCount: 2
Back
Fore
SplineSet
244.5 31 m 1xe4
 302.5 31 336.5 72 336.5 128 c 1
 336.5 208 238.5 270 216.5 285 c 0
 212.5 287 210.5 288 208.5 288 c 0
 206.5 288 205.5 290 204.5 288 c 0
 166.5 257 149.5 213 149.5 156 c 1
 149.5 86 188.5 31 244.5 31 c 1xe4
240.5 600 m 1
 198.5 600 166.5 557 166.5 505 c 1
 166.5 432 230.5 393 262.5 375 c 0
 264.5 373 267.5 372 270.5 372 c 0
 272.5 372 274.5 372 276.5 374 c 0
 306.5 401 320.5 438 320.5 486 c 1xd8
 320.5 538 292.5 600 240.5 600 c 1
244.5 638 m 1
 334.5 638 418.5 586 418.5 492 c 1xd8
 418.5 422 360.5 375 308.5 349 c 1
 305.5 348 306.5 346 308.5 344 c 0
 356.5 316 442.5 248 442.5 167 c 1
 442.5 63 342.5 -8 238.5 -8 c 1
 132.5 -8 44.5 46 44.5 154 c 1xe4
 44.5 240 122.5 290 172.5 312 c 0
 174.5 314 175.5 316 172.5 318 c 0
 134.5 346 64.5 399 64.5 483 c 1
 64.5 569 153.5 638 244.5 638 c 1
EndSplineSet
Validated: 1
Substitution2: "'pnum' Proportional Numbers lookup 12-1" eight.prop
EndChar

StartChar: nine
Encoding: 57 57 25
Width: 487
Flags: W
HStem: -6 28<73.4818 99.5996> 240 54<197.938 302.211> 608 38<192.704 281.935>
VStem: 40 108<351.349 525.359> 339 108<319.287 513.276>
LayerCount: 2
Back
Fore
SplineSet
333 324 m 1
 337 349 339 382 339 410 c 0
 339 497 310 608 238 608 c 0
 187 608 148 547 148 457 c 0
 148 372 180 294 260 294 c 0
 280 294 309 299 333 324 c 1
70 22 m 1
 175 62 285 136 323 275 c 1
 293 253 254 240 224 240 c 0
 106 240 40 327 40 435 c 0
 40 549 138 646 248 646 c 0
 364 646 447 528 447 409 c 1
 447 303 403 208 342 142 c 0
 264 58 156 10 80 -6 c 1
 72 -3 69 14 70 22 c 1
EndSplineSet
Validated: 1
Substitution2: "'pnum' Proportional Numbers lookup 12-1" nine.prop
EndChar

StartChar: colon
Encoding: 58 58 26
Width: 230
Flags: W
HStem: -19 130<67.3035 163.603> 311 130<67.3035 163.603>
VStem: 50 130<-1.24335 94.7059 328.757 424.706>
LayerCount: 2
Back
Fore
SplineSet
50 48 m 0
 50 83 80 111 116 111 c 1
 152 111 180 81 180 46 c 0
 180 11 152 -19 116 -19 c 1
 80 -19 50 12 50 48 c 0
50 378 m 0
 50 413 80 441 116 441 c 1
 152 441 180 411 180 376 c 0
 180 341 152 311 116 311 c 1
 80 311 50 342 50 378 c 0
EndSplineSet
Validated: 1
EndChar

StartChar: semicolon
Encoding: 59 59 27
Width: 244
Flags: W
HStem: 301 130<73.3883 166.518>
VStem: 55 128<319.107 414.706> 106 78<-32.4522 67.5>
LayerCount: 2
Back
Fore
SplineSet
133 131 m 0xa0
 145 131 160 126 169 120 c 1
 177 106 184 83 184 52 c 0
 184 -24 117 -116 57 -148 c 1
 48 -146 39 -132 39 -126 c 1
 59 -112 106 -73 106 -17 c 0
 106 16 65 19 65 71 c 0
 65 89 84 131 133 131 c 0xa0
55 368 m 0xc0
 55 403 85 431 121 431 c 1
 156 431 183 403 183 368 c 0
 183 333 157 301 121 301 c 1
 85 301 55 333 55 368 c 0xc0
EndSplineSet
Validated: 1
EndChar

StartChar: less
Encoding: 60 60 28
Width: 494
Flags: W
LayerCount: 2
Back
Fore
SplineSet
444 40 m 0
 444 33 434 -15 428 -15 c 0
 427 -15 424 -14 422 -13 c 2
 48 177 l 2
 33 185 30 200 30 217 c 0
 30 228 38 236 48 241 c 2
 418 428 l 2
 420 429 423 430 424 430 c 0
 427 430 433 415 440 378 c 0
 441 372 438 369 438 369 c 1
 116 209 l 1
 440 46 l 1
 440 46 444 45 444 40 c 0
EndSplineSet
Validated: 1
EndChar

StartChar: equal
Encoding: 61 61 29
Width: 561
Flags: W
HStem: 127 57<80.2964 484.998> 271 57<80.2964 484.998>
LayerCount: 2
Back
Fore
SplineSet
478 127 m 1
 317 127 244 127 72 127 c 1
 60 127 74 179 88 184 c 9
 491 184 l 17
 505 184 492 134 478 127 c 1
478 271 m 1
 317 271 244 271 72 271 c 1
 60 271 74 323 88 328 c 9
 491 328 l 17
 505 328 492 278 478 271 c 1
EndSplineSet
Validated: 33
EndChar

StartChar: greater
Encoding: 62 62 30
Width: 494
Flags: W
LayerCount: 2
Back
Fore
SplineSet
50 40 m 0
 50 44 53 46 53 46 c 1
 378 209 l 1
 56 369 l 1
 56 369 54 372 54 378 c 0
 58 406 66 430 70 430 c 0
 71 430 73 429 75 428 c 2
 446 241 l 2
 456 236 464 228 464 217 c 0
 464 200 461 185 446 177 c 2
 72 -13 l 2
 70 -14 67 -15 66 -15 c 0
 60 -15 50 32 50 40 c 0
EndSplineSet
Validated: 1
EndChar

StartChar: question
Encoding: 63 63 31
Width: 377
Flags: W
HStem: -11 130<82.161 175.603> 574 70<118.5 221.419>
VStem: 64 128<7.13899 103.056> 104 34<178.233 248.38> 270 68<423.928 542.631>
LayerCount: 2
Back
Fore
SplineSet
64 56 m 0xe8
 64 92 94 119 128 119 c 0
 164 119 192 92 192 56 c 0
 192 20 165 -11 130 -11 c 0
 96 -11 64 18 64 56 c 0xe8
108 533 m 0
 82 533 54 558 54 591 c 0
 54 607 60 626 66 632 c 1
 78 638 101 644 136 644 c 0
 192 644 338 592 338 464 c 0
 338 386 288 348 224 310 c 0
 197 294 156 267 144 249 c 0
 136 236 138 209 138 193 c 1
 135 186 129 178 122 178 c 1
 116 179 108 184 104 189 c 1xd8
 98 207 90 250 90 284 c 0
 90 350 137 380 173 404 c 0
 223 436 270 469 270 510 c 0
 270 546 243 574 206 574 c 0
 162 574 142 533 108 533 c 0
EndSplineSet
Validated: 33
EndChar

StartChar: at
Encoding: 64 64 32
Width: 756
Flags: W
HStem: -124 19<262.32 287.971> -7 52<482.5 585.297> -5 78<253 338.562> 389 50<388.228 498.5> 538 40<326.127 537.539>
VStem: 47 44<56.5857 290.303> 185 98<82.4115 223.675> 417 94<48.0865 166.668> 679 42<165.261 387.975>
LayerCount: 2
Back
Fore
SplineSet
431 578 m 0xdf80
 627 578 721 436 721 280 c 0
 721 127 624 -7 507 -7 c 0xdf80
 458 -7 417 18 417 79 c 0
 417 89 420 108 423 116 c 1
 404 79 341 -5 281 -5 c 3xbf80
 225 -5 185 38 185 125 c 3
 185 271 341 439 481 439 c 0
 516 439 554 433 573 426 c 9
 573 426 514 116 514 116 c 2
 513 112 511 97 511 92 c 0
 511 69 520 45 547 45 c 0
 603 45 679 150 679 275 c 0
 679 410 605 538 431 538 c 0
 227 538 91 344 91 170 c 0
 91 53 153 -36 225 -78 c 0
 261 -99 282 -102 301 -105 c 1
 301 -113 277 -124 263 -124 c 0
 249 -124 234 -121 221 -116 c 0
 129 -82 47 27 47 168 c 0
 47 364 199 578 431 578 c 0xdf80
439 389 m 3
 359 389 283 265 283 150 c 0
 283 100 300 73 329 73 c 3xbf80
 375 73 433 171 453 274 c 2
 453 274 473 376 473 376 c 17
 464 386 452 389 439 389 c 3
EndSplineSet
Validated: 1
EndChar

StartChar: A
Encoding: 65 65 33
Width: 653
Flags: W
HStem: -4 34<-7.13875 45.4087 134.931 201.125 397.188 457.423 598.813 655.472> 238 45<207 378.999> 642 20G<330 338>
LayerCount: 2
Back
Fore
SplineSet
95 136 m 2
 95 136 268 551 298 629 c 1
 304 643 325 662 335 662 c 0
 341 662 347 660 349 658 c 1
 553 137 l 1
 567 103 575 80 580 68 c 0
 594 36 645 30 653 30 c 1
 658 22 657 0 655 -4 c 1
 615 -2 577 3 533 3 c 0
 487 3 441 -2 400 -4 c 1
 395 1 395 28 400 30 c 1
 414 30 446 35 458 45 c 0
 462 49 464 54 464 60 c 0
 464 80 401 234 401 234 c 1
 401 234 398 238 395 238 c 0
 363 240 321 238 296 238 c 0
 255 238 232 238 192 236 c 0
 190 236 186 233 186 232 c 1
 186 232 159 168 145 130 c 0
 134 100 127 70 127 60 c 0
 127 35 191 30 199 30 c 1
 203 25 202 1 200 -4 c 1
 162 -1 142 3 98 3 c 0
 52 3 31 -1 -9 -4 c 1
 -13 0 -13 20 -10 29 c 1
 2 29 44 40 54 54 c 0
 72 81 82 104 95 136 c 2
295 506 m 1
 207 290 l 1
 207 290 207 286 209 286 c 0
 232 284 271 283 294 283 c 0
 325 283 345 284 376 286 c 0
 378 286 379 291 379 291 c 1
 295 506 l 1
EndSplineSet
Validated: 33
EndChar

StartChar: B
Encoding: 66 66 34
Width: 609
Flags: W
HStem: -3 38<41.9805 111.023 238.573 382.434> 333 38<230 361.569> 622 38<42.4639 111.246 231.918 351.666>
VStem: 116 114<50.4934 333 371 619.944> 403 120<436.153 575.039> 441 128<114.087 268.053>
LayerCount: 2
Back
Fore
SplineSet
230 333 m 1xf4
 230 333 230 114 230 114 c 2
 230 104 230 60 238 50 c 0
 250 36 277 35 309 35 c 0
 369 35 441 64 441 176 c 0
 441 251 410 333 286 333 c 2
 286 333 230 333 230 333 c 1xf4
230 371 m 1
 230 371 306 371 306 371 c 2
 367 371 403 421 403 487 c 0xf8
 403 579 356 622 284 622 c 0
 266 622 238 621 234 611 c 0
 229 599 230 573 230 543 c 2
 230 543 230 371 230 371 c 1
321 660 m 0
 413 660 523 621 523 506 c 0xf8
 523 428 449 380 418 368 c 0
 413 366 413 363 415 362 c 1
 465 358 569 298 569 196 c 0xf4
 569 134 530 72 477 38 c 0
 422 2 350 -3 274 -3 c 0
 237 -3 82 -3 43 -3 c 1
 39 3 39 24 43 30 c 1
 55 30 105 34 109 46 c 0
 115 64 116 94 116 130 c 2
 116 130 116 528 116 528 c 2
 116 564 115 594 109 612 c 0
 105 624 55 628 43 628 c 1
 39 634 39 655 43 661 c 1
 86 659 133 657 173 657 c 0
 213 657 263 660 321 660 c 0
EndSplineSet
Validated: 33
EndChar

StartChar: C
Encoding: 67 67 35
Width: 676
Flags: W
HStem: -6 40<323.219 504.957> 627 40<308.818 492.366>
VStem: 45 130<207.264 442.451> 606 34<151.241 192.092>
LayerCount: 2
Back
Fore
SplineSet
387 667 m 0
 453 667 531 661 597 647 c 1
 598 641 626 509 626 498 c 1
 626 490 613 482 602 482 c 1
 596 482 591 483 588 487 c 1
 580 522 548 627 394 627 c 0
 250 627 175 488 175 348 c 0
 175 192 250 34 412 34 c 0
 473 34 512 53 540 78 c 0
 581 114 602 178 606 198 c 1
 620 198 636 192 640 188 c 1
 640 172 615 49 601 40 c 1
 542 13 476 -6 384 -6 c 0
 191 -6 45 139 45 322 c 0
 45 512 193 667 387 667 c 0
EndSplineSet
Validated: 1
EndChar

StartChar: D
Encoding: 68 68 36
Width: 736
Flags: W
HStem: -3 38<41.9805 111.023 237.347 409.903> 622 37<42.4639 111.246 233.173 392.805>
VStem: 116 114<54.6384 618.356> 561 129<205.408 454.097>
LayerCount: 2
Back
Fore
SplineSet
230 543 m 2
 230 130 l 1
 230 120 231 67 237 54 c 0
 244 42 277 35 309 35 c 0
 461 35 561 124 561 319 c 0
 561 530 440 622 294 622 c 0
 276 622 239 620 235 610 c 0
 230 596 230 572 230 543 c 2
322 659 m 0
 547 659 690 530 690 335 c 0
 690 133 561 -3 312 -3 c 0
 269 -3 82 -3 43 -3 c 1
 39 3 39 24 43 30 c 1
 55 30 105 34 109 46 c 0
 115 64 116 94 116 130 c 2
 116 528 l 2
 116 564 115 594 109 612 c 0
 105 624 55 628 43 628 c 1
 39 634 39 655 43 661 c 1
 86 659 133 657 173 657 c 0
 213 657 270 659 322 659 c 0
EndSplineSet
Validated: 33
EndChar

StartChar: E
Encoding: 69 69 37
Width: 596
Flags: W
HStem: -3 33<40.75 108.999> -1 41<236.479 459.191> 311 42<230 391.416> 620 44<283.25 445.413> 620 36<232.227 375.5> 629 33<40.75 108.779>
VStem: 116 114<54.5929 308.954 353.879 617.12> 424 32<378.533 431.896> 490 36<517.121 564.804>
LayerCount: 2
Back
Fore
SplineSet
173 656 m 0x2b80
 241 656 413 664 497 664 c 1
 504 614 517 567 526 522 c 1
 523 519 512 517 505 517 c 0
 498 517 492 519 490 524 c 0
 468 592 435 620 378 620 c 2
 378 620 294 620 294 620 c 0
 276 620 238 619 234 609 c 0
 229 595 230 571 230 543 c 2
 230 543 230 362 230 362 c 2
 230 356 250 353 272 353 c 2
 272 353 325 353 325 353 c 2
 403 353 408 362 424 424 c 0
 425 429 431 432 438 432 c 0
 445 432 453 429 456 426 c 1
 456 426 456 236 456 236 c 1
 454 234 446 232 439 232 c 0
 432 232 426 235 424 240 c 0
 410 292 401 299 392 304 c 0
 380 310 339 311 301 311 c 0
 273 311 230 310 230 300 c 2
 230 300 230 130 230 130 c 2
 230 120 229 66 236 54 c 0
 246 42 270 40 304 40 c 1
 304 40 366 40 366 40 c 2x7380
 404 40 445 47 471 68 c 0
 494 87 513 117 529 166 c 0
 530 170 536 172 543 172 c 0
 553 172 568 169 571 166 c 1
 552 112 524 41 517 -3 c 1xa380
 449 -3 308 -1 174 -1 c 0x6380
 115 -1 69 -3 43 -3 c 1
 39 3 39 24 43 30 c 1
 55 30 105 34 109 46 c 0
 115 64 116 94 116 130 c 2
 116 130 116 528 116 528 c 2
 116 564 115 594 109 612 c 0
 105 624 55 629 43 629 c 1
 39 635 39 656 43 662 c 1xa780
 83 659 133 656 173 656 c 0x2b80
EndSplineSet
Validated: 33
EndChar

StartChar: F
Encoding: 70 70 38
Width: 543
Flags: W
HStem: -4 33<40.75 108.779 236.228 314.25> 309 42<230 391.416> 620 44<283.25 445.413> 620 36<232.227 375.5> 628 33<40.75 108.999>
VStem: 116 114<37.111 306.954 351.879 617.054> 424 32<376.533 429.896> 490 36<517.121 564.804>
LayerCount: 2
Back
Fore
SplineSet
173 656 m 0xd7
 241 656 413 664 497 664 c 1
 504 614 517 567 526 522 c 1
 523 519 512 517 505 517 c 0
 498 517 492 519 490 524 c 0
 468 592 435 620 378 620 c 2
 378 620 294 620 294 620 c 0xe7
 276 620 238 619 234 609 c 0
 229 595 230 571 230 543 c 2
 230 543 230 360 230 360 c 2
 230 354 250 351 272 351 c 2
 272 351 325 351 325 351 c 2
 403 351 408 360 424 422 c 0
 425 427 431 430 438 430 c 0
 445 430 453 427 456 424 c 1
 456 424 456 234 456 234 c 1
 454 232 446 230 439 230 c 0
 432 230 426 233 424 238 c 0
 410 290 401 297 392 302 c 0
 380 308 339 309 301 309 c 0
 273 309 230 308 230 298 c 2
 230 298 230 130 230 130 c 2
 230 94 230 64 236 46 c 0
 240 34 300 29 312 29 c 1
 316 23 316 2 312 -4 c 1
 272 -1 212 2 172 2 c 0
 128 2 82 -2 43 -4 c 1
 39 2 39 23 43 29 c 1
 55 29 105 34 109 46 c 0
 115 64 116 94 116 130 c 2
 116 130 116 528 116 528 c 2
 116 564 115 594 109 612 c 0
 105 624 55 628 43 628 c 1
 39 634 39 655 43 661 c 1xcf
 86 659 133 656 173 656 c 0xd7
EndSplineSet
Validated: 33
EndChar

StartChar: G
Encoding: 71 71 39
Width: 722
Flags: W
HStem: -6 40<321.97 504.366> 263 33<439.097 509.401 637.354 698.942> 627 40<307.456 493.466>
VStem: 44 130<209.419 440.559> 517 112<66.3779 247.521> 587 37<487.284 534.98>
LayerCount: 2
Back
Fore
SplineSet
517 179 m 1xf8
 517 204 518 223 512 242 c 0
 507 260 454 263 442 263 c 1
 438 265 436 291 441 296 c 1
 487 294 534 290 579 290 c 0
 619 290 657 294 697 296 c 1
 701 287 701 265 697 263 c 1
 687 263 644 257 637 248 c 0
 631 238 629 214 629 190 c 1
 629 172 629 123 629 101 c 0xf8
 629 86 637 74 637 66 c 0
 637 58 624 51 609 44 c 0
 556 20 495 -6 383 -6 c 0
 189 -6 44 139 44 322 c 0
 44 509 192 667 386 667 c 0
 452 667 530 661 596 647 c 1
 597 641 624 509 624 498 c 1
 624 490 612 482 601 482 c 1
 595 482 590 483 587 487 c 1xf4
 579 522 548 627 394 627 c 0
 246 627 174 485 174 345 c 0
 174 189 251 34 409 34 c 0
 454 34 485 44 509 56 c 0
 514 58 517 62 517 70 c 0
 517 91 517 155 517 179 c 1xf8
EndSplineSet
Validated: 33
EndChar

StartChar: H
Encoding: 72 72 40
Width: 736
Flags: W
HStem: -4 34<40.75 108.493 236.507 304.25 431.75 499.493 627.507 695.25> 321 41<231 505> 628 34<40.75 108.493 236.507 304.25 431.75 499.493 627.507 695.25>
VStem: 116 114<38.5078 313 365.001 619.492> 507 114<38.5078 317.999 365.001 619.492>
LayerCount: 2
Back
Fore
SplineSet
173 656 m 0
 213 656 262 659 302 662 c 1
 306 656 306 634 302 628 c 1
 290 628 240 622 236 610 c 0
 230 592 230 562 230 526 c 2
 230 368 l 1
 230 366 231 365 231 365 c 1
 275 364 320 362 370 362 c 0
 412 362 465 364 505 365 c 1
 505 365 507 367 507 369 c 0
 507 526 l 2
 507 562 506 592 500 610 c 0
 496 622 446 628 434 628 c 1
 430 634 430 656 434 662 c 1
 474 659 524 656 564 656 c 0
 604 656 653 659 693 662 c 1
 697 656 697 634 693 628 c 1
 681 628 631 622 627 610 c 0
 621 592 621 562 621 526 c 2
 621 132 l 2
 621 96 621 66 627 48 c 0
 631 36 681 30 693 30 c 1
 697 24 697 2 693 -4 c 1
 653 -1 603 2 563 2 c 0
 523 2 474 -1 434 -4 c 1
 430 2 430 24 434 30 c 1
 446 30 496 36 500 48 c 0
 506 66 507 96 507 132 c 2
 507 314 l 1
 507 316 505 318 505 318 c 1
 463 319 416 321 370 321 c 0
 245 321 234 318 230 316 c 1
 229 315 230 313 230 313 c 1
 230 132 l 2
 230 96 230 66 236 48 c 0
 240 36 290 30 302 30 c 1
 306 24 306 2 302 -4 c 1
 262 -1 212 2 172 2 c 0
 132 2 83 -1 43 -4 c 1
 39 2 39 24 43 30 c 1
 55 30 105 36 109 48 c 0
 115 66 116 96 116 132 c 2
 116 526 l 2
 116 562 115 592 109 610 c 0
 105 622 55 628 43 628 c 1
 39 634 39 656 43 662 c 1
 83 659 133 656 173 656 c 0
EndSplineSet
Validated: 33
EndChar

StartChar: I
Encoding: 73 73 41
Width: 345
Flags: W
HStem: -4 33<40.75 108.779 236.221 304.25> 629 33<40.75 108.779 236.221 304.25>
VStem: 116 114<36.7397 621.26>
LayerCount: 2
Back
Fore
SplineSet
173 656 m 0
 213 656 262 659 302 662 c 1
 306 656 306 635 302 629 c 1
 290 629 240 624 236 612 c 0
 230 594 230 564 230 528 c 2
 230 130 l 2
 230 94 230 64 236 46 c 0
 240 34 290 29 302 29 c 1
 306 23 306 2 302 -4 c 1
 262 -1 212 2 172 2 c 0
 132 2 83 -1 43 -4 c 1
 39 2 39 23 43 29 c 1
 55 29 105 34 109 46 c 0
 115 64 116 94 116 130 c 2
 116 528 l 2
 116 564 115 594 109 612 c 0
 105 624 55 629 43 629 c 1
 39 635 39 656 43 662 c 1
 83 659 133 656 173 656 c 0
EndSplineSet
Validated: 33
EndChar

StartChar: J
Encoding: 74 74 42
Width: 331
Flags: W
HStem: -222 54<-53 62.4298> 629 33<33.75 102.778 229.221 297.25>
VStem: 109 114<-25.0014 621.622>
LayerCount: 2
Back
Fore
SplineSet
167 656 m 0
 207 656 255 659 295 662 c 1
 299 656 299 635 295 629 c 1
 283 629 233 624 229 612 c 0
 223 594 223 564 223 528 c 2
 223 130 l 2
 223 -88 121 -222 -43 -222 c 1
 -63 -222 -93 -212 -103 -204 c 1
 -109 -196 -115 -186 -115 -172 c 1
 -115 -140 -91 -110 -59 -110 c 1
 -39 -110 -22 -126 -7 -141 c 0
 7 -155 23 -168 37 -168 c 1
 85 -168 109 -78 109 126 c 2
 109 528 l 2
 109 564 109 594 103 612 c 0
 99 624 48 629 36 629 c 1
 32 635 32 656 36 662 c 1
 76 659 127 656 167 656 c 0
EndSplineSet
Validated: 33
EndChar

StartChar: K
Encoding: 75 75 43
Width: 690
Flags: W
HStem: -4 34<40.75 108.493 236.507 304.25 629.724 697.37> 628 34<40.75 108.493 236.507 304.25 419.734 476.902 586.159 660.808>
VStem: 116 114<38.5078 305.999 340 619.492>
LayerCount: 2
Back
Fore
SplineSet
173 656 m 0
 213 656 262 659 302 662 c 1
 306 656 306 634 302 628 c 1
 290 628 240 622 236 610 c 0
 230 592 230 562 230 526 c 2
 230 340 l 1
 262 364 306 403 338 435 c 0
 407 504 422 516 466 574 c 0
 474 584 478 598 478 606 c 0
 478 629 434 628 422 628 c 1
 418 635 418 653 421 662 c 1
 458 660 507 656 544 656 c 0
 588 656 622 659 660 662 c 1
 662 656 663 632 658 629 c 1
 649 628 587 624 552 588 c 1
 509 541 424 460 343 378 c 0
 337 372 339 367 343 362 c 0
 427 257 521 137 559 101 c 1
 609 43 664 32 696 30 c 1
 701 24 697 -2 696 -4 c 1
 648 -5 589 -4 559 0 c 0
 513 2 475 28 449 59 c 0
 425 87 326 209 248 303 c 0
 246 306 242 306 239 306 c 0
 235 306 232 304 230 302 c 1
 230 132 l 2
 230 96 230 66 236 48 c 0
 240 36 290 30 302 30 c 1
 306 24 306 2 302 -4 c 1
 262 -1 212 2 172 2 c 0
 132 2 83 -1 43 -4 c 1
 39 2 39 24 43 30 c 1
 55 30 105 36 109 48 c 0
 115 66 116 96 116 132 c 2
 116 526 l 2
 116 562 115 592 109 610 c 0
 105 622 55 628 43 628 c 1
 39 634 39 656 43 662 c 1
 83 659 133 656 173 656 c 0
EndSplineSet
Validated: 33
EndChar

StartChar: L
Encoding: 76 76 44
Width: 572
Flags: W
HStem: -3 33<40.75 108.999> -1 41<236.479 459.191> 629 33<40.75 108.779 236.221 304.25>
VStem: 116 114<54.5929 621.26>
LayerCount: 2
Back
Fore
SplineSet
230 130 m 2xb0
 230 120 229 66 236 54 c 0
 246 42 270 40 304 40 c 1
 304 40 366 40 366 40 c 2x70
 404 40 445 47 471 68 c 0
 494 87 513 117 529 166 c 0
 530 170 536 172 543 172 c 0
 553 172 568 169 571 166 c 1
 552 112 524 41 517 -3 c 1xb0
 449 -3 308 -1 174 -1 c 0x70
 115 -1 69 -3 43 -3 c 1
 39 3 39 24 43 30 c 1
 55 30 105 34 109 46 c 0
 115 64 116 94 116 130 c 2
 116 130 116 528 116 528 c 2
 116 564 115 594 109 612 c 0
 105 624 55 629 43 629 c 1
 39 635 39 656 43 662 c 1
 83 659 133 656 173 656 c 0
 213 656 262 659 302 662 c 1
 306 656 306 635 302 629 c 1
 290 629 240 624 236 612 c 0
 230 594 230 564 230 528 c 2
 230 528 230 130 230 130 c 2xb0
EndSplineSet
Validated: 33
EndChar

StartChar: M
Encoding: 77 77 45
Width: 908
Flags: W
HStem: -4 34<22.4798 97.8317 181.954 260.281 609.723 677.506 809.002 878.072> 629 33<60.3757 125.188 794.4 853.693>
LayerCount: 2
Back
Fore
SplineSet
168 656 m 0
 202 656 230 660 261 662 c 1
 285 598 388 366 461 192 c 1
 461 191 464 190 465 190 c 0
 466 190 470 193 470 195 c 1
 500 271 554 410 605 544 c 0
 622 588 644 660 644 660 c 1
 664 658 718 656 737 656 c 0
 771 656 820 660 852 662 c 1
 854 658 857 632 855 628 c 1
 844 628 802 622 794 614 c 0
 787 606 785 594 785 574 c 0
 787 504 793 275 797 146 c 0
 799 107 799 72 809 47 c 0
 815 33 868 30 876 30 c 1
 880 21 880 2 878 -4 c 1
 838 -2 794 3 750 3 c 0
 704 3 658 -2 612 -4 c 1
 609 -1 607 22 611 30 c 1
 623 30 668 34 678 44 c 0
 684 50 687 71 687 83 c 0
 687 95 685 126 685 142 c 1
 683 214 677 450 674 531 c 1
 674 534 673 554 666 554 c 0
 664 554 663 552 661 547 c 1
 620 444 505 140 467 44 c 1
 463 35 441 -1 427 -2 c 0
 424 -2 421 -1 418 0 c 1
 184 554 l 1
 178 341 174 188 171 104 c 0
 171 88 173 62 175 54 c 0
 181 36 250 30 258 30 c 1
 262 24 262 2 260 -4 c 1
 220 -2 189 3 145 3 c 0
 99 3 70 -2 24 -4 c 1
 21 0 20 19 24 28 c 1
 36 28 97 36 107 56 c 0
 113 68 118 107 119 125 c 0
 127 303 133 544 134 576 c 0
 134 586 135 599 130 608 c 0
 124 620 76 629 62 629 c 1
 58 633 60 660 62 662 c 1
 108 660 122 656 168 656 c 0
EndSplineSet
Validated: 33
EndChar

StartChar: N
Encoding: 78 78 46
Width: 769
Flags: W
HStem: -4 33<34.0576 107.211 200.616 272.873> 630 33<37.1719 107.906 506.381 582.213 667.367 745.618>
VStem: 126 55<44.3074 543.172> 598 54<207 617.106>
LayerCount: 2
Back
Fore
SplineSet
148 658 m 0
 180 658 217 660 240 662 c 1
 284 583 480 361 597 207 c 1
 598 211 598 249 598 256 c 1
 598 510 l 1
 598 547 595 593 587 609 c 0
 580 623 523 630 509 630 c 1
 505 634 504 655 508 663 c 1
 551 661 581 656 626 656 c 0
 671 656 701 661 744 663 c 1
 746 657 749 640 743 630 c 1
 733 630 670 624 662 608 c 0
 655 594 652 549 652 512 c 2
 652 139 l 2
 652 81 654 51 656 -1 c 1
 653 -4 637 -5 634 -5 c 0
 625 -5 612 4 602 18 c 2
 181 544 l 1
 181 136 l 2
 181 100 183 68 191 53 c 0
 197 39 258 30 270 30 c 1
 276 22 274 2 272 -4 c 1
 232 -2 196 3 152 3 c 0
 106 3 82 -2 36 -4 c 1
 32 3 32 23 36 29 c 1
 48 29 107 37 115 52 c 0
 123 67 126 99 126 137 c 1
 126 203 126 465 126 531 c 1
 126 564 123 593 112 610 c 0
 104 622 52 630 40 630 c 1
 35 636 35 658 39 663 c 1
 77 661 108 658 148 658 c 0
EndSplineSet
Validated: 33
EndChar

StartChar: O
Encoding: 79 79 47
Width: 752
Flags: W
HStem: -10 40<315.839 471.661> 627 40<280.447 436.232>
VStem: 44 130<210.9 445.454> 579 130<210.677 445.477>
LayerCount: 2
Back
Fore
SplineSet
357 627 m 1
 223 627 174 484 174 356 c 1
 174 202 243 30 395 30 c 1
 529 30 579 172 579 300 c 1
 579 454 509 627 357 627 c 1
376 667 m 0
 552 667 709 521 709 328 c 0
 709 141 552 -10 376 -10 c 0
 200 -10 44 136 44 328 c 0
 44 515 200 667 376 667 c 0
EndSplineSet
Validated: 1
EndChar

StartChar: P
Encoding: 80 80 48
Width: 567
Flags: W
HStem: -4 33<40.75 108.779 236.221 304.25> 280 44<275.157 371.654> 622 38<42.4639 111.246 231.918 353.36>
VStem: 116 114<36.7397 619.944> 422 120<388.567 556.17>
LayerCount: 2
Back
Fore
SplineSet
542 484 m 0
 542 358 450 280 334 280 c 0
 304 280 285 290 277 296 c 0
 274 299 265 313 265 320 c 0
 265 324 267 328 269 328 c 1
 279 325 293 324 308 324 c 0
 372 324 422 377 422 465 c 0
 422 554 373 622 284 622 c 0
 266 622 238 621 234 611 c 0
 229 599 230 573 230 543 c 2
 230 130 l 2
 230 94 230 64 236 46 c 0
 240 34 290 29 302 29 c 1
 306 23 306 2 302 -4 c 1
 262 -1 212 2 172 2 c 0
 132 2 83 -1 43 -4 c 1
 39 2 39 23 43 29 c 1
 55 29 105 34 109 46 c 0
 115 64 116 94 116 130 c 2
 116 528 l 2
 116 564 115 594 109 612 c 0
 105 624 55 628 43 628 c 1
 39 634 39 655 43 661 c 1
 86 659 135 657 175 657 c 0
 215 657 264 660 323 660 c 0
 431 660 542 598 542 484 c 0
EndSplineSet
Validated: 33
EndChar

StartChar: Q
Encoding: 81 81 49
Width: 753
Flags: W
HStem: -140 62<586.916 711.218> 627 40<280.447 436.232>
VStem: 44 130<209.496 445.454> 579 130<211.487 445.477>
LayerCount: 2
Back
Fore
SplineSet
376 667 m 0
 552 667 709 521 709 328 c 0
 709 176 605 49 473 6 c 1
 567 -40 593 -78 695 -78 c 0
 735 -78 758 -71 765 -70 c 1
 771 -70 782 -74 786 -80 c 0
 787 -82 787 -83 787 -84 c 1
 732 -113 663 -140 602 -140 c 0
 494 -140 416 -33 297 0 c 0
 155 36 44 166 44 328 c 0
 44 515 200 667 376 667 c 0
357 627 m 0
 223 627 174 484 174 356 c 0
 174 202 243 30 395 30 c 0
 529 30 579 172 579 300 c 0
 579 454 509 627 357 627 c 0
EndSplineSet
Validated: 1
EndChar

StartChar: R
Encoding: 82 82 50
Width: 659
Flags: W
HStem: -4 33<40.75 108.779 236.221 304.25 626.5 689.582> 300 35<230 288.564> 622 38<42.4639 111.246 231.918 353.113>
VStem: 116 114<36.7397 300 335 619.944> 412 120<411.507 563.514>
LayerCount: 2
Back
Fore
SplineSet
323 660 m 0
 431 660 532 599 532 482 c 0
 532 405 453 338 395 320 c 1
 458 227 516 152 549 108 c 1
 601 42 657 31 689 29 c 1
 694 23 689 -2 688 -4 c 1
 640 -5 587 -4 557 0 c 0
 511 2 472 28 448 60 c 0
 440 70 319 238 287 287 c 0
 284 291 274 300 263 300 c 0
 260 300 234 300 230 300 c 1
 230 130 l 1
 230 94 230 64 236 46 c 0
 240 34 290 29 302 29 c 1
 306 23 306 2 302 -4 c 1
 262 -1 212 2 172 2 c 0
 132 2 83 -1 43 -4 c 1
 39 2 39 23 43 29 c 1
 55 29 105 34 109 46 c 0
 115 64 116 94 116 130 c 2
 116 528 l 2
 116 564 115 594 109 612 c 0
 105 624 55 628 43 628 c 1
 39 634 39 655 43 661 c 1
 86 659 135 657 175 657 c 0
 215 657 264 660 323 660 c 0
412 465 m 0
 412 549 380 622 284 622 c 0
 266 622 238 621 234 611 c 0
 229 599 230 573 230 543 c 2
 230 335 l 1
 230 335 269 335 279 335 c 0
 350 335 412 388 412 465 c 0
EndSplineSet
Validated: 33
EndChar

StartChar: S
Encoding: 83 83 51
Width: 512
Flags: W
HStem: -10 40<177.1 316.448> 628 40<198.416 324.183>
VStem: 48 40<128.208 191.152> 60 106<470.21 570.138> 360 109<93.5797 200.626> 396 39<479.366 543.956>
LayerCount: 2
Back
Fore
SplineSet
264 668 m 0xd8
 324 668 360 654 424 640 c 1
 430 588 433 530 435 486 c 1
 434 481 428 479 424 479 c 0
 420 479 398 479 396 488 c 0
 389 541 341 628 263 628 c 0
 199 628 166 589 166 531 c 0xd4
 166 460 244 416 308 374 c 0
 374 331 469 283 469 174 c 0
 469 64 364 -10 256 -10 c 0
 192 -10 124 6 70 18 c 1
 59 70 49 160 48 180 c 1
 51 185 70 193 76 193 c 0
 82 193 87 190 88 184 c 0xe8
 96 138 141 30 252 30 c 0
 308 30 360 64 360 138 c 0
 360 215 280 254 220 291 c 0
 145 338 60 388 60 490 c 0
 60 594 162 668 264 668 c 0xd8
EndSplineSet
Validated: 1
EndChar

StartChar: T
Encoding: 84 84 52
Width: 629
Flags: W
HStem: -4 33<182.75 251.778 379.221 447.25> 618 40<98.0983 259 373 530.902>
VStem: 10 36<490.828 551.207> 259 114<36.7397 618> 583 36<490.646 551.207>
LayerCount: 2
Back
Fore
SplineSet
495 658 m 0
 539 658 562 673 577 676 c 0
 586 678 588 678 593 676 c 1
 597 646 613 524 619 498 c 1
 616 495 604 490 595 490 c 0
 590 490 585 492 583 496 c 1
 571 564 532 618 482 618 c 2
 373 618 l 1
 373 130 l 2
 373 94 373 64 379 46 c 0
 383 34 433 29 445 29 c 1
 449 23 449 2 445 -4 c 1
 405 -1 355 2 315 2 c 0
 275 2 225 -1 185 -4 c 1
 181 2 181 23 185 29 c 1
 197 29 248 34 252 46 c 0
 258 64 259 94 259 130 c 2
 259 618 l 1
 147 618 l 2
 97 618 58 564 46 496 c 1
 44 492 40 490 35 490 c 0
 26 490 13 495 10 498 c 1
 16 524 33 646 37 676 c 1
 42 678 47 678 54 676 c 0
 69 673 90 658 134 658 c 0
 222 658 404 658 495 658 c 0
EndSplineSet
Validated: 33
EndChar

StartChar: U
Encoding: 85 85 53
Width: 728
Flags: W
HStem: -6 65<303.357 478.71> 629 33<24.75 93.7784 220.222 289.25 485.538 556.428 644.294 720.199>
VStem: 100 114<165.871 621.622> 573 55<165.973 615.972>
LayerCount: 2
Back
Fore
SplineSet
158 656 m 0
 198 656 247 659 287 662 c 1
 291 656 291 635 287 629 c 1
 275 629 224 624 220 612 c 0
 214 594 214 564 214 528 c 2
 214 313 l 2
 214 237 223 182 251 136 c 0
 286 72 346 59 395 59 c 0
 487 59 571 118 573 292 c 2
 573 512 l 2
 573 552 570 590 561 608 c 0
 554 622 502 630 488 630 c 1
 483 637 484 656 487 662 c 1
 531 659 560 656 605 656 c 0
 650 656 674 660 718 662 c 1
 722 656 723 639 718 630 c 1
 706 630 648 624 640 608 c 0
 632 590 628 553 628 513 c 2
 628 281 l 2
 628 79 510 -6 360 -6 c 0
 282 -6 211 19 165 70 c 0
 122 117 100 184 100 276 c 2
 100 528 l 2
 100 564 101 594 94 612 c 0
 90 624 39 629 27 629 c 1
 23 635 23 656 27 662 c 1
 67 659 118 656 158 656 c 0
EndSplineSet
Validated: 33
EndChar

StartChar: V
Encoding: 86 86 54
Width: 663
Flags: W
HStem: -6 21G<316 325> 629 33<-4.75562 51.4464 203.358 260.448 456.609 523.364 614.488 677.619>
LayerCount: 2
Back
Fore
SplineSet
126 656 m 0
 169 656 219 659 259 662 c 1
 262 656 262 633 258 629 c 1
 248 629 197 625 197 599 c 0
 197 586 206 559 218 528 c 0
 263 416 363 163 365 159 c 1
 368 166 477 431 512 522 c 0
 521 546 532 578 532 598 c 0
 532 623 471 629 459 629 c 1
 454 633 455 656 459 662 c 1
 501 659 529 656 571 656 c 0
 616 656 636 660 676 662 c 1
 680 656 679 633 675 629 c 1
 665 629 622 625 608 607 c 0
 594 590 577 551 563 515 c 0
 485 323 440 217 362 31 c 0
 352 9 331 -6 319 -6 c 0
 313 -6 311 2 307 8 c 1
 273 97 141 416 103 512 c 1
 89 546 76 578 63 601 c 0
 51 622 9 629 -3 629 c 1
 -6 633 -6 658 -3 662 c 1
 39 659 82 656 126 656 c 0
EndSplineSet
Validated: 33
EndChar

StartChar: W
Encoding: 87 87 55
Width: 928
Flags: W
HStem: -6 21G<279 288 633 642> 629 33<-2.91106 51.5097 200.358 257.448 715.609 782.364 875.062 937.619>
LayerCount: 2
Back
Fore
SplineSet
131 656 m 0
 174 656 216 659 256 662 c 1
 259 656 259 633 255 629 c 1
 245 629 194 625 194 599 c 1
 194 588 204 561 214 529 c 0
 247 426 298 273 319 202 c 1
 343 280 432 545 459 627 c 0
 465 646 481 662 492 662 c 0
 496 662 500 657 504 646 c 1
 540 551 639 282 673 182 c 1
 695 258 751 436 775 522 c 0
 782 547 791 578 791 598 c 0
 791 623 730 629 718 629 c 1
 713 633 714 656 718 662 c 1
 760 659 789 656 831 656 c 0
 876 656 896 660 936 662 c 1
 940 656 939 633 935 629 c 1
 925 629 884 623 868 607 c 0
 854 591 842 566 830 528 c 0
 772 339 733 218 675 36 c 0
 668 14 648 -6 636 -6 c 0
 630 -6 624 2 621 8 c 1
 589 102 489 362 455 460 c 1
 427 368 369 198 318 38 c 0
 314 24 294 -6 282 -6 c 0
 276 -6 270 2 267 8 c 1
 238 100 128 423 97 521 c 1
 86 556 76 583 62 602 c 0
 49 622 12 629 -1 629 c 1
 -5 633 -4 658 -1 662 c 1
 42 659 87 656 131 656 c 0
EndSplineSet
Validated: 33
EndChar

StartChar: X
Encoding: 88 88 56
Width: 690
Flags: W
HStem: -4 33<-7.08525 66.0101 168.76 241.438 403.545 455.781 622.855 691.166> 629 33<24.3083 88.237 249.719 304.998 434.958 501.596 609.495 672.854>
LayerCount: 2
Back
Fore
SplineSet
168 656 m 0
 217 656 264 660 304 662 c 1
 306 656 307 629 302 629 c 1
 288 629 245 622 245 602 c 0
 245 595 249 585 255 576 c 2
 369 403 l 1
 421 471 490 557 505 588 c 0
 506 592 509 597 509 601 c 0
 509 613 483 628 438 628 c 1
 434 628 432 656 436 662 c 1
 474 658 519 656 556 656 c 0
 608 656 645 659 671 662 c 1
 674 656 676 631 670 628 c 1
 662 628 606 626 570 582 c 1
 532 534 429 413 393 365 c 1
 435 301 583 79 591 71 c 1
 615 39 665 29 689 29 c 1
 693 22 693 1 690 -4 c 1
 650 -2 599 2 558 2 c 0
 502 2 462 -2 406 -4 c 1
 401 1 402 29 407 29 c 0
 418 29 464 40 464 58 c 0
 464 61 462 66 460 69 c 2
 318 286 l 1
 280 236 189 112 167 74 c 0
 164 68 160 62 160 58 c 0
 160 43 196 29 239 29 c 1
 243 23 244 3 242 -4 c 1
 207 -2 156 2 119 2 c 0
 67 2 34 -2 -6 -4 c 1
 -10 2 -8 24 -5 29 c 1
 3 29 70 32 100 72 c 1
 138 120 254 279 290 327 c 1
 270 357 149 542 149 542 c 2
 129 574 110 601 89 614 c 0
 73 624 39 629 27 629 c 1
 22 629 22 657 27 662 c 1
 76 660 119 656 168 656 c 0
EndSplineSet
Validated: 33
EndChar

StartChar: Y
Encoding: 89 89 57
Width: 611
Flags: W
HStem: -4 33<171.75 239.779 367.221 435.25> 629 33<-6.39062 47.3652 208.147 266.688 398.64 467.375 553.421 620.36>
VStem: 247 114<36.7397 326.533>
LayerCount: 2
Back
Fore
SplineSet
247 130 m 2
 247 276 l 0
 247 283 244 291 240 300 c 0
 198 380 136 489 107 542 c 1
 89 574 78 586 58 604 c 0
 42 622 8 629 -4 629 c 1
 -9 633 -8 656 -4 662 c 1
 40 659 84 656 130 656 c 0
 175 656 225 659 265 662 c 1
 268 656 269 633 264 629 c 1
 250 629 203 626 203 600 c 0
 203 594 207 586 213 576 c 2
 341 348 l 1
 368 390 442 529 470 585 c 0
 472 591 474 598 474 604 c 0
 474 616 435 628 401 628 c 1
 397 632 397 658 400 662 c 1
 442 659 466 656 508 656 c 0
 556 656 579 660 619 662 c 1
 622 656 622 632 618 628 c 1
 608 628 556 628 537 596 c 0
 508 548 402 370 366 300 c 0
 361 291 361 282 361 274 c 0
 361 130 l 2
 361 94 361 64 367 46 c 0
 371 34 421 29 433 29 c 1
 437 23 437 2 433 -4 c 1
 393 -1 343 2 303 2 c 0
 263 2 214 -1 174 -4 c 1
 170 2 170 23 174 29 c 1
 186 29 236 34 240 46 c 0
 246 64 247 94 247 130 c 2
EndSplineSet
Validated: 33
EndChar

StartChar: Z
Encoding: 90 90 58
Width: 636
Flags: W
HStem: 0 42<181 494.215> 617 41<153.018 436.691> 646 20G<74 87 531 575>
VStem: 44 40<478.456 533.224>
LayerCount: 2
Back
Fore
SplineSet
224 617 m 2xd0
 137 617 107 555 84 483 c 1
 82 480 79 478 71 478 c 0
 61 478 47 481 44 484 c 1
 58 536 70 600 78 666 c 1xb0
 96 662 165 658 185 658 c 1
 185 658 352 658 352 658 c 2
 436 658 489 662 573 668 c 1
 577 667 587 650 587 641 c 1
 585 633 181 42 181 42 c 17
 181 42 419 42 419 42 c 2
 459 42 492 56 514 78 c 0
 539 103 552 134 566 171 c 0
 567 174 574 176 580 176 c 0
 590 176 603 172 607 168 c 1
 587 102 566 47 556 0 c 1
 535 0 146 0 49 0 c 1
 37 0 24 13 27 18 c 2
 27 18 437 617 437 617 c 1
 437 617 224 617 224 617 c 2xd0
EndSplineSet
Validated: 1
EndChar

StartChar: bracketleft
Encoding: 91 91 59
Width: 283
Flags: W
HStem: -141 30<215.19 278.222>
VStem: 77 78<-89.74 703.74>
LayerCount: 2
Back
Fore
SplineSet
96 744 m 0
 188 744 257 751 275 755 c 1
 276 755 279 752 279 746 c 0
 279 736 273 727 269 725 c 0
 235 711 169 703 155 700 c 1
 155 -86 l 1
 169 -89 235 -97 269 -111 c 0
 273 -113 279 -122 279 -132 c 0
 279 -138 276 -141 275 -141 c 1
 257 -137 188 -130 96 -130 c 0
 80 -130 77 -113 77 -107 c 1
 77 721 l 1
 77 727 80 744 96 744 c 0
EndSplineSet
Validated: 1
EndChar

StartChar: backslash
Encoding: 92 92 60
Width: 410
Flags: W
LayerCount: 2
Back
Fore
SplineSet
29 752 m 1
 33 757 40 759 48 759 c 0
 66 759 78 751 81 743 c 2
 81 743 379 -16 379 -22 c 1
 378 -26 366 -32 353 -32 c 0
 345 -32 332 -26 328 -16 c 0
 214 276 119 524 29 752 c 1
EndSplineSet
Validated: 1
EndChar

StartChar: bracketright
Encoding: 93 93 61
Width: 283
Flags: W
HStem: 725 30<4.77759 67.8101>
VStem: 128 78<-89.74 703.74>
LayerCount: 2
Back
Fore
SplineSet
187 744 m 0
 203 744 206 727 206 721 c 1
 206 -107 l 1
 206 -113 203 -130 187 -130 c 0
 95 -130 26 -137 8 -141 c 1
 7 -141 4 -138 4 -132 c 0
 4 -122 10 -113 14 -111 c 0
 48 -97 114 -89 128 -86 c 1
 128 700 l 1
 114 703 48 711 14 725 c 0
 10 727 4 736 4 746 c 0
 4 752 7 755 8 755 c 1
 26 751 95 744 187 744 c 0
EndSplineSet
Validated: 1
EndChar

StartChar: asciicircum
Encoding: 94 94 62
Width: 390
Flags: W
HStem: 421 236
VStem: 50 272
LayerCount: 2
Back
Fore
SplineSet
186 657 m 0
 192 657 200 652 204 644 c 0
 250 560 274 518 322 438 c 1
 322 428 312 421 305 421 c 1
 253 472 186 554 186 554 c 25
 186 554 120 472 68 421 c 1
 61 421 50 428 50 438 c 1
 98 518 123 560 169 644 c 0
 173 652 180 657 186 657 c 0
EndSplineSet
Validated: 1
EndChar

StartChar: underscore
Encoding: 95 95 63
Width: 500
Flags: W
HStem: -43 56<19 464>
LayerCount: 2
Back
Fore
SplineSet
12 -33 m 1
 12 -33 17 13 27 13 c 2
 476 13 l 2
 478 13 480 12 480 8 c 0
 480 -1 476 -15 470 -37 c 0
 468 -43 464 -43 464 -43 c 1
 19 -43 l 1
 19 -43 12 -43 12 -33 c 1
EndSplineSet
Validated: 1
EndChar

StartChar: grave
Encoding: 96 96 64
Width: 295
Flags: W
HStem: 524 162
VStem: 76 170
LayerCount: 2
Back
Fore
SplineSet
76 660 m 0
 76 666 84 686 119 686 c 0
 133 686 148 683 153 678 c 0
 190 635 246 545 246 540 c 0
 246 534 239 524 232 524 c 0
 222 524 76 621 76 660 c 0
EndSplineSet
Validated: 1
EndChar

StartChar: a
Encoding: 97 97 65
Width: 452
Flags: W
HStem: -8 62<121.5 218.679 328.5 409> 404 38<161.586 279>
VStem: 33 109<70.8169 168.107> 47 94<294.202 362.528> 271 103<65.8703 223 257.281 374.655>
LayerCount: 2
Back
Fore
SplineSet
207 54 m 0xe8
 237 54 271 77 271 85 c 2
 271 85 271 223 271 223 c 1
 247 214 210 202 191 192 c 0
 159 176 142 150 142 120 c 0
 142 80 175 54 207 54 c 0xe8
244 442 m 0
 314 442 374 382 374 298 c 2
 374 298 374 101 374 101 c 2
 374 74 383 57 401 57 c 0
 417 57 428 66 432 68 c 1
 436 67 437 60 437 56 c 1
 437 50 436 44 433 39 c 1
 420 27 376 -6 344 -6 c 0
 313 -6 283 24 275 52 c 1
 265 42 193 -8 157 -8 c 0
 86 -8 33 48 33 110 c 0xe8
 33 150 61 182 85 190 c 0
 132 206 225 241 265 257 c 1
 270 263 271 268 271 280 c 2
 271 280 271 306 271 306 c 2
 271 354 240 404 198 404 c 0
 162 404 149 374 141 332 c 0
 135 304 120 286 90 286 c 0
 66 286 47 306 47 330 c 0xd8
 47 338 51 353 57 363 c 1
 79 384 164 442 244 442 c 0
EndSplineSet
Validated: 1
EndChar

StartChar: b
Encoding: 98 98 66
Width: 520
Flags: W
HStem: -8 39<195.848 302.352> 377 66<222.311 310.435> 626 29<0.654861 60.048> 674 20G<159 173>
VStem: 69 103<52.3774 351.859 392.777 617.957> 370 114<133.753 307.559>
LayerCount: 2
Back
Fore
SplineSet
226 -8 m 0
 192 -8 149 9 126 12 c 0
 106 15 90 17 75 11 c 1
 71 11 57 28 57 34 c 1
 65 53 69 88 69 131 c 2
 69 558 l 2
 69 573 69 594 63 608 c 0
 57 621 22 626 2 626 c 1
 0 626 -1 653 3 655 c 1
 84 663 148 684 170 694 c 1
 176 694 183 684 183 678 c 1
 183 678 172 640 172 584 c 2
 172 404 l 2
 172 399 172 388 178 393 c 0
 193 405 252 443 288 443 c 0
 406 443 484 341 484 234 c 0
 484 88 362 -8 226 -8 c 0
239 377 m 0
 212 377 185 362 176 352 c 0
 173 349 172 346 172 342 c 2
 172 98 l 2
 172 60 209 31 252 31 c 0
 320 31 370 117 370 195 c 0
 370 321 315 377 239 377 c 0
EndSplineSet
Validated: 33
EndChar

StartChar: c
Encoding: 99 99 67
Width: 434
Flags: W
HStem: -8 75<208.433 327.102> 395 48<191.312 309.724>
VStem: 35 102<142.567 291.23>
LayerCount: 2
Back
Fore
SplineSet
397 384 m 0
 397 352 375 329 349 329 c 1
 325 329 307 356 291 370 c 0
 272 386 254 395 228 395 c 0
 180 395 137 325 137 242 c 0
 137 114 213 67 290 67 c 0
 346 67 382 98 399 117 c 1
 403 116 409 108 409 101 c 1
 409 95 407 86 405 82 c 0
 387 54 327 -8 241 -8 c 0
 125 -8 35 79 35 197 c 0
 35 331 166 443 287 443 c 0
 332 443 365 434 383 422 c 1
 389 415 397 402 397 384 c 0
EndSplineSet
Validated: 1
EndChar

StartChar: d
Encoding: 100 100 68
Width: 533
Flags: W
HStem: -8 63<209.43 293.851> 24 30<459.609 511.881> 396 46<198.629 327.191> 626 29<278.243 337.081> 674 20G<437 451>
VStem: 36 113<127.946 293.991> 346 104<70.7694 375.829 436.009 617.957>
LayerCount: 2
Back
Fore
SplineSet
286 442 m 0xbe
 307 442 332 438 341 436 c 1
 345 436 346 448 346 458 c 1
 346 470 346 542 346 558 c 1
 346 574 346 594 340 608 c 0
 334 621 300 626 280 626 c 1
 278 626 276 653 280 655 c 1
 361 663 426 684 448 694 c 1
 454 694 460 684 460 678 c 1
 460 678 450 640 450 584 c 2
 450 584 450 136 450 136 c 2
 450 109 450 80 458 68 c 0
 466 54 504 54 510 54 c 1
 512 52 512 46 512 41 c 0
 512 37 510 27 506 24 c 1x7e
 450 20 361 -8 354 -8 c 0
 349 -8 346 3 346 14 c 2
 346 14 346 40 346 40 c 2
 346 44 345 47 343 45 c 0
 327 31 265 -8 215 -8 c 0
 121 -8 36 83 36 203 c 0
 36 353 196 442 286 442 c 0xbe
254 396 m 0
 184 396 149 318 149 236 c 0
 149 134 194 55 270 55 c 0xbe
 306 55 346 80 346 94 c 2
 346 94 346 348 346 348 c 2
 346 368 303 396 254 396 c 0
EndSplineSet
Validated: 1
EndChar

StartChar: e
Encoding: 101 101 69
Width: 445
Flags: W
HStem: -8 74<210.36 327.777> 245 38<142.806 285.129> 254 33<181.759 303.785> 404 38<186.81 274.561>
VStem: 36 100<144.973 245 283 298.022> 304 104<287.029 371.989>
LayerCount: 2
Back
Fore
SplineSet
140 283 m 1xdc
 149 283 269 285 286 287 c 0xbc
 298 287 304 295 304 307 c 1
 304 342 285 404 232 404 c 1
 160 404 139 300 140 283 c 1xdc
136 245 m 1xdc
 134 111 222 66 288 66 c 0
 344 66 383 98 400 117 c 1
 404 116 410 108 410 101 c 1
 410 95 407 86 405 82 c 0
 387 54 328 -8 242 -8 c 0
 127 -8 36 76 36 200 c 0
 36 330 144 442 246 442 c 0
 372 442 408 348 408 299 c 0
 408 273 400 255 383 254 c 0xbc
 333 250 179 246 136 245 c 1xdc
EndSplineSet
Validated: 33
EndChar

StartChar: f
Encoding: 102 102 70
Width: 332
Flags: W
HStem: -4 33<25.75 91.7806 208.221 276.25> 386 44<37.2377 98 202 320.628> 632 66<228.368 303.876>
VStem: 98 104<36.3778 386 430 545.536>
LayerCount: 2
Back
Fore
SplineSet
288 698 m 0
 319 698 330 693 344 686 c 1
 354 680 368 667 368 650 c 1
 368 616 346 595 323 595 c 1
 303 595 290 610 275 620 c 0
 264 628 255 632 241 632 c 0
 217 632 198 598 198 544 c 1
 198 521 199 446 200 430 c 1
 204 430 302 430 318 430 c 1
 322 430 323 424 323 418 c 0
 323 409 315 394 305 386 c 1
 290 386 218 386 202 386 c 1
 202 130 l 2
 202 94 202 64 208 46 c 0
 212 34 262 29 274 29 c 1
 278 23 278 2 274 -4 c 1
 234 -1 190 2 150 2 c 0
 110 2 68 -1 28 -4 c 1
 24 2 24 23 28 29 c 1
 40 29 88 34 92 46 c 0
 98 64 98 94 98 130 c 2
 98 130 98 342 98 386 c 1
 84 386 47 386 34 386 c 1
 30 387 29 393 29 397 c 1
 34 406 52 424 58 430 c 1
 73 430 88 430 98 430 c 1
 98 440 l 2
 98 581 220 698 288 698 c 0
EndSplineSet
Validated: 33
EndChar

StartChar: g
Encoding: 103 103 71
Width: 471
Flags: W
HStem: -222 48<162.232 306.789> -9 91<156.643 347.537> 142 34<183.897 268.124> 370 56<389.608 450.75> 408 34<173.817 257.061>
VStem: 23 94<-131.275 -56.982> 45 99<219.378 365.102> 295 99<220.582 367.461> 379 78<-99.2095 -3.5>
LayerCount: 2
Back
Fore
SplineSet
215 408 m 1xeb
 161 408 144 351 144 300 c 1
 144 242 171 176 227 176 c 1
 281 176 295 233 295 283 c 1
 295 341 272 408 215 408 c 1xeb
257 -9 m 0
 229 -9 169 -10 156 -12 c 1
 141 -22 117 -43 117 -67 c 0
 117 -133 167 -174 245 -174 c 0
 327 -174 379 -124 379 -80 c 0xe480
 379 -44 337 -9 257 -9 c 0
313 81 m 0
 399 79 457 19 457 -26 c 0
 457 -128 331 -222 193 -222 c 0
 103 -222 23 -179 23 -104 c 0xf480
 23 -62 83 -22 119 -4 c 1
 85 6 48 46 48 92 c 1
 56 111 105 146 133 162 c 1
 80 187 45 238 45 291 c 0
 45 372 120 442 219 442 c 0xea
 263 442 296 431 319 418 c 0
 330 413 327 413 333 412 c 1
 333 412 449 426 449 426 c 1
 454 424 459 421 459 416 c 0
 459 408 445 376 435 370 c 1
 411 372 388 373 375 375 c 1
 373 375 369 374 369 372 c 1
 379 358 394 329 394 292 c 0xf3
 394 216 319 142 219 142 c 0
 201 142 178 146 165 150 c 1
 151 140 135 125 135 112 c 0
 135 100 157 82 189 82 c 0
 241 82 273 82 313 81 c 0
EndSplineSet
Validated: 1
EndChar

StartChar: h
Encoding: 104 104 72
Width: 553
Flags: W
HStem: -4 33<17.75 82.7813 200.217 262.25 300.75 360.785 477.219 543.25> 372 70<269.186 394.475> 626 29<21.6549 81.048> 674 20G<180 194>
VStem: 90 104<36.3778 342.871 364.001 618.938> 367 104<36.0252 341.83>
LayerCount: 2
Back
Fore
SplineSet
338 442 m 0
 449 442 471 370 471 218 c 2
 471 130 l 2
 471 94 471 64 477 46 c 0
 481 34 529 29 541 29 c 1
 545 23 545 2 541 -4 c 1
 501 -1 459 2 419 2 c 0
 379 2 343 -1 303 -4 c 1
 299 2 299 23 303 29 c 1
 315 29 357 34 361 46 c 0
 367 64 367 94 367 130 c 2
 367 220 l 2
 367 318 351 372 285 372 c 0
 247 372 194 331 194 317 c 2
 194 130 l 2
 194 96 194 64 200 46 c 0
 204 34 248 29 260 29 c 1
 264 23 264 2 260 -4 c 1
 220 -1 181 2 141 2 c 0
 100 2 60 -1 20 -4 c 1
 16 2 16 23 20 29 c 1
 32 29 79 34 83 46 c 0
 89 64 90 94 90 130 c 2
 90 558 l 2
 90 573 90 594 84 608 c 0
 78 621 43 626 23 626 c 1
 21 626 20 653 24 655 c 1
 105 663 169 684 191 694 c 1
 197 694 204 684 204 678 c 1
 204 678 194 632 194 584 c 1
 194 584 194 372 194 368 c 0
 194 366 193 364 195 364 c 1
 197 364 198 366 200 368 c 0
 224 395 291 442 338 442 c 0
EndSplineSet
Validated: 33
EndChar

StartChar: i
Encoding: 105 105 73
Width: 294
Flags: W
HStem: -4 33<29.75 94.7813 212.217 274.25> 368 28<29.3081 90.2402> 424 20G<180.5 203> 544 122<98.7704 191.8>
VStem: 84 123<558.34 650.8> 102 104<36.3778 359.638>
LayerCount: 2
Back
Fore
SplineSet
206 317 m 1xf4
 206 317 206 130 206 130 c 2
 206 96 206 64 212 46 c 0
 216 34 260 29 272 29 c 1
 276 23 276 2 272 -4 c 1
 232 -1 193 2 153 2 c 0
 112 2 72 -1 32 -4 c 1
 28 2 28 23 32 29 c 1
 44 29 91 34 95 46 c 0
 102 64 102 94 102 130 c 2
 102 130 102 282 102 282 c 2
 102 294 102 335 95 349 c 0
 87 365 38 368 31 368 c 1
 29 370 27 394 31 396 c 1
 95 402 161 424 200 444 c 1
 206 443 214 431 214 427 c 1
 212 419 206 377 206 365 c 1
 206 354 206 320 206 317 c 1xf4
84 604 m 0xf8
 84 638 111 666 145 666 c 0
 179 666 207 638 207 604 c 0
 207 570 179 544 145 544 c 0
 111 544 84 570 84 604 c 0xf8
EndSplineSet
Validated: 33
EndChar

StartChar: j
Encoding: 106 106 74
Width: 263
Flags: W
HStem: 368 28<17.5928 76.77> 424 20G<169.5 192> 542 124<84.2003 177.8>
VStem: 69 124<557.2 650.8> 90 104<-43.2009 359.638>
LayerCount: 2
Back
Fore
SplineSet
-14 -202 m 1xe8
 16 -180 90 -132 90 54 c 2
 90 54 90 282 90 282 c 2
 90 294 89 335 83 349 c 0
 75 365 26 368 19 368 c 1
 17 370 16 394 20 396 c 1
 84 402 150 424 189 444 c 1
 195 443 203 431 203 427 c 1
 201 419 194 379 194 365 c 1
 194 354 194 319 194 316 c 1
 194 316 194 94 194 94 c 1
 194 -44 139 -128 85 -172 c 0
 53 -198 7 -217 -8 -217 c 1
 -12 -214 -14 -206 -14 -202 c 1xe8
69 604 m 0xf0
 69 638 97 666 131 666 c 0
 165 666 193 638 193 604 c 0
 193 570 165 542 131 542 c 0
 97 542 69 570 69 604 c 0xf0
EndSplineSet
Validated: 1
EndChar

StartChar: k
Encoding: 107 107 75
Width: 554
Flags: W
HStem: -4 33<18.1719 82.7813 200.219 264.828 484.71 550.418> 4 27<488.154 552.204> 400 32<303.515 360.264 451.781 521.903> 626 29<21.6549 81.048> 674 20G<180 194>
VStem: 90 104<36.3778 202 236 618.938>
LayerCount: 2
Back
Fore
SplineSet
194 130 m 2x7c
 194 94 194 64 200 46 c 0
 204 34 251 29 263 29 c 1
 267 23 267 2 263 -4 c 1
 223 -1 181 2 141 2 c 0
 100 2 60 -1 20 -4 c 1
 16 2 16 23 20 29 c 1xbc
 32 29 79 34 83 46 c 0
 89 64 90 94 90 130 c 2
 90 130 90 558 90 558 c 2
 90 574 90 594 84 608 c 0
 78 621 43 626 23 626 c 1
 21 626 20 653 24 655 c 1
 105 663 169 684 191 694 c 1
 197 694 204 684 204 678 c 1
 204 678 194 632 194 584 c 1
 194 584 193 236 193 236 c 1
 210 242 237 262 271 292 c 0
 332 344 361 369 361 381 c 0
 361 395 319 399 305 400 c 1
 301 408 302 430 307 432 c 1
 321 430 384 428 421 428 c 0
 456 428 486 430 520 432 c 1
 525 424 523 404 519 400 c 1
 497 398 455 390 431 374 c 0
 415 362 344 304 284 252 c 1
 357 170 405 118 445 76 c 0
 485 35 521 31 550 31 c 1
 554 24 553 8 551 4 c 1
 539 0 500 -5 468 -5 c 0
 410 -5 360 20 338 46 c 2
 338 46 260 130 207 192 c 0
 203 198 194 202 194 202 c 1
 194 202 194 130 194 130 c 2x7c
EndSplineSet
Validated: 33
EndChar

StartChar: l
Encoding: 108 108 76
Width: 283
Flags: W
HStem: -4 33<17.75 82.7813 200.219 265.25> 626 29<21.6549 81.048> 674 20G<180 194>
VStem: 90 104<36.3778 618.938>
LayerCount: 2
Back
Fore
SplineSet
90 558 m 2
 90 574 90 594 84 608 c 0
 78 621 43 626 23 626 c 1
 21 626 20 653 24 655 c 1
 105 663 169 684 191 694 c 1
 197 694 204 684 204 678 c 1
 204 678 194 632 194 584 c 1
 194 130 l 2
 194 94 194 64 200 46 c 0
 204 34 251 29 263 29 c 1
 267 23 267 2 263 -4 c 1
 223 -1 181 2 141 2 c 0
 100 2 60 -1 20 -4 c 1
 16 2 16 23 20 29 c 1
 32 29 79 34 83 46 c 0
 89 64 90 94 90 130 c 2
 90 558 l 2
EndSplineSet
Validated: 33
EndChar

StartChar: m
Encoding: 109 109 77
Width: 838
Flags: W
HStem: -4 33<29.75 94.7813 212.217 274.25 308.75 369.784 486.219 551.25 585.75 644.786 762.219 827.25> 368 28<29.3081 90.2402> 372 70<279.52 379.779 551.89 679.255>
VStem: 102 104<36.3778 344.875> 376 104<36.0252 341.913> 652 104<36.0252 341.749>
LayerCount: 2
Back
Fore
SplineSet
349 442 m 0xbc
 411 442 447 420 467 358 c 1
 511 400 576 442 623 442 c 0
 734 442 756 370 756 218 c 2
 756 218 756 130 756 130 c 2
 756 94 756 64 762 46 c 0
 766 34 813 29 825 29 c 1
 829 23 829 2 825 -4 c 1
 785 -1 743 2 703 2 c 0
 663 2 628 -1 588 -4 c 1
 584 2 584 23 588 29 c 1
 600 29 641 34 645 46 c 0
 651 64 652 94 652 130 c 2
 652 130 652 224 652 224 c 2
 652 310 638 372 571 372 c 0
 527 372 475 330 475 316 c 0
 475 314 476 309 476 307 c 0
 478 283 480 250 480 224 c 2
 480 224 480 130 480 130 c 2
 480 94 480 64 486 46 c 0
 490 34 537 29 549 29 c 1
 553 23 553 2 549 -4 c 1
 509 -1 468 2 428 2 c 0
 388 2 351 -1 311 -4 c 1
 307 2 307 23 311 29 c 1
 323 29 366 34 370 46 c 0
 376 64 376 94 376 130 c 2
 376 130 376 221 376 221 c 2
 376 318 358 372 296 372 c 0xbc
 254 372 206 333 206 317 c 2
 206 317 206 130 206 130 c 2
 206 96 206 64 212 46 c 0
 216 34 260 29 272 29 c 1
 276 23 276 2 272 -4 c 1
 232 -1 193 2 153 2 c 0
 112 2 72 -1 32 -4 c 1
 28 2 28 23 32 29 c 1
 44 29 91 34 95 46 c 0
 102 64 102 94 102 130 c 2
 102 130 102 279 102 279 c 2
 102 291 102 335 95 349 c 0
 87 365 38 368 31 368 c 1
 29 370 27 394 31 396 c 1xdc
 95 402 161 424 200 444 c 1
 206 443 214 431 214 427 c 1
 212 419 206 376 206 372 c 0
 206 370 206 367 208 367 c 1
 210 367 211 368 213 370 c 0
 239 396 299 442 349 442 c 0xbc
EndSplineSet
Validated: 33
EndChar

StartChar: n
Encoding: 110 110 78
Width: 565
Flags: W
HStem: -4 33<29.75 94.7813 212.217 274.25 312.75 372.785 489.219 555.25> 368 28<29.3081 90.2402> 372 70<282.345 406.475>
VStem: 102 104<36.3778 342.871> 379 104<36.0252 341.83>
LayerCount: 2
Back
Fore
SplineSet
350 442 m 0xb8
 461 442 483 370 483 218 c 2
 483 218 483 130 483 130 c 2
 483 94 483 64 489 46 c 0
 493 34 541 29 553 29 c 1
 557 23 557 2 553 -4 c 1
 513 -1 471 2 431 2 c 0
 391 2 355 -1 315 -4 c 1
 311 2 311 23 315 29 c 1
 327 29 369 34 373 46 c 0
 379 64 379 94 379 130 c 2
 379 130 379 220 379 220 c 2
 379 318 363 372 297 372 c 0xb8
 259 372 206 331 206 317 c 2
 206 317 206 130 206 130 c 2
 206 96 206 64 212 46 c 0
 216 34 260 29 272 29 c 1
 276 23 276 2 272 -4 c 1
 232 -1 193 2 153 2 c 0
 112 2 72 -1 32 -4 c 1
 28 2 28 23 32 29 c 1
 44 29 91 34 95 46 c 0
 102 64 102 94 102 130 c 2
 102 130 102 282 102 282 c 2
 102 294 102 335 95 349 c 0
 87 365 38 368 31 368 c 1
 29 370 27 394 31 396 c 1
 95 402 161 424 200 444 c 1
 206 444 214 432 214 427 c 1
 212 419 206 374 206 370 c 0
 206 368 206 364 208 364 c 1
 210 364 211 366 213 368 c 0xd8
 237 395 303 442 350 442 c 0xb8
EndSplineSet
Validated: 33
EndChar

StartChar: o
Encoding: 111 111 79
Width: 520
Flags: W
HStem: -7 38<216.903 321.624> 406 37<196.502 296.477>
VStem: 36 114<115.547 316.005> 369 114<122.777 319.367>
LayerCount: 2
Back
Fore
SplineSet
248 406 m 1
 169 406 150 315 150 235 c 1
 150 143 188 31 270 31 c 1
 349 31 369 122 369 200 c 1
 369 293 329 406 248 406 c 1
258 443 m 0
 393 443 483 349 483 223 c 0
 483 95 386 -7 260 -7 c 0
 124 -7 36 89 36 215 c 0
 36 343 132 443 258 443 c 0
EndSplineSet
Validated: 1
EndChar

StartChar: p
Encoding: 112 112 80
Width: 532
Flags: W
HStem: -222 33<13.1875 78.7813 196.219 261.25> -8 40<212.044 320.976> 368 28<12.6636 74.2402> 377 66<244.965 324.742>
VStem: 86 104<-181.622 1.99706 52.0522 359.524> 382 114<136.687 310.686>
LayerCount: 2
Back
Fore
SplineSet
308 443 m 0xdc
 430 443 496 331 496 233 c 0
 496 92 368 -8 257 -8 c 0
 230 -8 203 0 193 2 c 1
 191 2 190 -2 190 -12 c 2
 190 -12 190 -88 190 -88 c 2
 190 -124 190 -154 196 -172 c 0
 200 -184 247 -189 259 -189 c 1
 263 -195 263 -216 259 -222 c 1
 219 -219 177 -216 137 -216 c 0
 96 -216 56 -219 16 -222 c 1
 11 -216 11 -195 16 -189 c 1
 28 -189 75 -184 79 -172 c 0
 85 -154 86 -124 86 -88 c 2
 86 -88 86 282 86 282 c 2
 86 294 85 335 79 349 c 0
 71 365 22 368 15 368 c 1
 12 370 10 394 15 396 c 1xec
 78 402 145 421 184 441 c 1
 190 440 198 431 198 427 c 1
 196 421 190 401 190 389 c 0
 190 385 191 383 193 384 c 0
 209 400 272 443 308 443 c 0xdc
259 377 m 0xdc
 220 377 190 354 190 344 c 2
 190 344 190 98 190 98 c 2
 190 52 235 32 270 32 c 0
 328 32 382 99 382 197 c 0
 382 308 337 377 259 377 c 0xdc
EndSplineSet
Validated: 33
EndChar

StartChar: q
Encoding: 113 113 81
Width: 517
Flags: W
HStem: -222 33<270.75 335.781 453.219 518.25> -8 62<211.614 293.737> 398 44<201.341 319.886>
VStem: 35 113<130.489 291.24> 343 104<-181.622 40.1773 65.621 375.51>
LayerCount: 2
Back
Fore
SplineSet
259 398 m 0
 177 398 148 305 148 239 c 0
 148 139 193 54 273 54 c 0
 311 54 343 76 343 86 c 2
 343 338 l 2
 343 364 307 398 259 398 c 0
293 442 m 0
 327 442 379 418 411 418 c 0
 425 418 433 421 439 423 c 1
 445 422 458 406 458 400 c 1
 451 384 447 350 447 306 c 2
 447 -88 l 2
 447 -124 447 -154 453 -172 c 0
 457 -184 504 -189 516 -189 c 1
 520 -195 520 -216 516 -222 c 1
 476 -219 434 -216 394 -216 c 0
 354 -216 313 -219 273 -222 c 1
 269 -216 269 -195 273 -189 c 1
 285 -189 332 -184 336 -172 c 0
 342 -154 343 -124 343 -88 c 2
 343 28 l 2
 343 34 342 44 336 40 c 0
 321 28 262 -8 217 -8 c 0
 109 -8 35 98 35 196 c 0
 35 343 176 442 293 442 c 0
EndSplineSet
Validated: 33
EndChar

StartChar: r
Encoding: 114 114 82
Width: 415
Flags: W
HStem: -4 33<29.75 94.7813 212.231 294.25> 354 88<275.44 345> 368 28<29.3081 90.2402>
VStem: 102 104<37.111 320.999 337.908 359.638>
LayerCount: 2
Back
Fore
SplineSet
332 442 m 1xd0
 358 442 383 433 394 419 c 1
 397 413 402 397 402 381 c 0
 402 345 377 316 355 316 c 1
 339 316 327 330 315 338 c 0
 305 346 297 354 279 354 c 1xd0
 237 354 206 290 206 268 c 2
 206 268 206 130 206 130 c 2
 206 96 206 64 212 46 c 0
 216 34 280 29 292 29 c 1
 296 23 296 2 292 -4 c 1
 252 -1 196 2 156 2 c 0
 115 2 72 -1 32 -4 c 1
 28 2 28 23 32 29 c 1
 44 29 91 34 95 46 c 0
 102 64 102 94 102 130 c 2
 102 130 102 282 102 282 c 2
 102 294 102 335 95 349 c 0
 87 365 38 368 31 368 c 1
 29 370 27 394 31 396 c 1xb0
 95 402 161 424 200 444 c 1
 206 443 214 431 214 427 c 1
 212 419 206 353 206 341 c 0
 206 337 210 336 211 338 c 0
 233 381 278 442 332 442 c 1xd0
EndSplineSet
Validated: 33
EndChar

StartChar: s
Encoding: 115 115 83
Width: 387
Flags: W
HStem: -10 36<130.952 228.255> 407 36<158.1 255.355>
VStem: 44 98<300.466 378.487> 44 32<86.3546 133.999> 248 100<56.096 138.543>
LayerCount: 2
Back
Fore
SplineSet
210 443 m 0xe8
 253 443 279 432 317 426 c 1
 325 394 334 336 334 310 c 0
 334 306 326 304 320 304 c 0
 314 304 308 306 302 310 c 1
 292 351 262 407 206 407 c 0
 166 407 142 384 142 348 c 0xe8
 142 296 193 281 237 257 c 0
 285 231 348 202 348 128 c 0
 348 38 265 -10 173 -10 c 0
 128 -10 90 3 56 10 c 1
 50 32 44 110 44 128 c 1
 46 132 55 134 60 134 c 0
 65 134 73 132 76 128 c 1xd8
 89 64 138 26 184 26 c 0
 222 26 248 53 248 90 c 0
 248 146 188 162 136 192 c 0
 87 220 44 252 44 312 c 0
 44 399 134 443 210 443 c 0xe8
EndSplineSet
Validated: 1
EndChar

StartChar: t
Encoding: 116 116 84
Width: 328
Flags: W
HStem: -7 59<171 264.351> 386 44<21.2377 83 187 310.628>
VStem: 83 104<64.7735 386 430 510.438>
LayerCount: 2
Back
Fore
SplineSet
187 430 m 1
 191 430 291 430 307 430 c 1
 311 430 313 424 313 418 c 0
 313 409 305 394 295 386 c 1
 280 386 203 386 187 386 c 1
 187 131 l 2
 187 78 206 52 246 52 c 0
 273 52 300 72 305 76 c 1
 307 74 310 69 310 65 c 0
 310 59 306 50 304 48 c 0
 292 35 249 -7 199 -7 c 0
 143 -7 83 21 83 120 c 2
 83 386 l 1
 69 386 31 386 18 386 c 1
 14 387 13 393 13 397 c 1
 18 406 36 424 42 430 c 1
 56 430 73 430 83 430 c 1
 83 436 83 474 83 488 c 1
 111 515 149 557 165 574 c 1
 173 580 187 580 187 575 c 1
 187 548 187 456 187 430 c 1
EndSplineSet
Validated: 1
EndChar

StartChar: u
Encoding: 117 117 85
Width: 539
Flags: W
HStem: -8 21G<359 364.5> 24 30<465.766 518.645> 48 4<274 350> 379 28<11.865 67.5336 282.391 335.668> 424 20G<161.5 183 432.5 454>
VStem: 82 104<87.9368 369.36> 352 104<70.0939 369.566>
LayerCount: 2
Back
Fore
SplineSet
352 291 m 2xbe
 352 303 352 344 344 359 c 0
 335 375 294 379 284 379 c 1
 281 381 281 405 285 407 c 1
 349 411 414 429 451 444 c 1
 457 443 465 429 465 425 c 1
 461 417 456 384 456 362 c 1
 456 351 456 310 456 307 c 1
 456 307 456 124 456 124 c 2
 456 111 456 87 464 68 c 0
 471 54 510 54 516 54 c 1
 518 52 519 47 519 42 c 0
 519 38 516 27 512 24 c 1xde
 456 20 368 -8 361 -8 c 0
 357 -8 352 1 352 12 c 2
 352 12 352 44 352 44 c 2
 352 48 352 49 350 48 c 1
 328 28 268 -6 208 -6 c 1
 106 -6 82 94 82 183 c 2
 82 183 82 291 82 291 c 2
 82 303 81 344 73 359 c 0
 64 375 24 379 14 379 c 1
 11 381 10 405 14 407 c 1
 78 411 143 429 180 444 c 1
 186 443 194 429 194 425 c 1
 190 417 186 384 186 362 c 1
 186 351 186 311 186 308 c 1
 186 308 186 212 186 212 c 2
 186 106 208 52 274 52 c 0
 310 52 352 78 352 98 c 2
 352 98 352 291 352 291 c 2xbe
EndSplineSet
Validated: 1
EndChar

StartChar: v
Encoding: 118 118 86
Width: 502
Flags: W
HStem: -11 21G<240 246.5> 404 33<-1.15332 49.0804 177.91 233.247 308.86 368.953 445.574 503.811>
LayerCount: 2
Back
Fore
SplineSet
119 430 m 0
 159 430 200 435 232 437 c 1
 236 431 235 407 230 404 c 1
 220 404 176 398 176 382 c 0
 176 380 175 376 177 372 c 0
 195 337 284 138 284 138 c 1
 284 138 332 256 368 340 c 0
 373 351 376 365 376 374 c 0
 376 396 333 404 312 404 c 1
 307 406 307 431 311 437 c 1
 341 434 364 430 404 430 c 0
 444 430 475 435 503 437 c 1
 507 431 505 408 501 404 c 1
 491 404 442 398 429 370 c 1
 399 300 306 97 277 26 c 1
 265 2 251 -11 242 -11 c 0
 238 -11 233 -7 231 -5 c 1
 169 132 121 248 60 374 c 1
 48 400 11 404 1 404 c 1
 -3 410 -3 429 1 437 c 1
 35 435 79 430 119 430 c 0
EndSplineSet
Validated: 33
EndChar

StartChar: w
Encoding: 119 119 87
Width: 755
Flags: W
HStem: -11 21G<238 245 502 508> 404 33<-1.15332 49.0804 180.793 232.619 279.75 324.534 461.16 512.25 563.381 625.622 699.281 756.125>
VStem: 353 102<314.225 381.691>
LayerCount: 2
Back
Fore
SplineSet
115 430 m 0
 155 430 199 435 231 437 c 1
 235 431 234 408 230 404 c 1
 220 404 176 397 176 378 c 0
 176 376 176 371 179 364 c 0
 203 313 251 210 279 144 c 1
 305 208 353 319 353 331 c 0
 353 340 344 363 336 375 c 0
 323 397 293 404 283 404 c 1
 277 410 278 431 282 437 c 1
 322 433 355 430 395 430 c 1
 435 430 478 435 510 437 c 1
 514 431 514 409 510 404 c 1
 488 404 455 394 455 374 c 0
 455 371 455 366 457 361 c 0
 477 312 517 221 545 150 c 1
 565 199 600 285 623 343 c 0
 627 354 631 366 631 374 c 0
 631 401 582 403 566 404 c 1
 562 408 561 431 565 437 c 1
 601 434 621 430 661 430 c 0
 701 430 727 435 755 437 c 1
 757 433 759 410 753 404 c 1
 743 404 697 400 685 370 c 0
 629 236 597 159 539 25 c 0
 529 1 512 -11 504 -11 c 0
 500 -11 494 -7 492 -5 c 1
 492 -5 397 240 381 279 c 1
 365 240 277 26 277 26 c 2
 268 5 250 -11 240 -11 c 0
 236 -11 231 -7 229 -5 c 1
 163 147 127 231 60 374 c 1
 48 400 11 404 1 404 c 1
 -3 411 -3 431 1 437 c 1
 35 435 75 430 115 430 c 0
EndSplineSet
Validated: 33
EndChar

StartChar: x
Encoding: 120 120 88
Width: 519
Flags: W
HStem: -4 33<8.73438 72.3022 160.145 222.153 271.381 317.6 456.53 511.25> 404 33<18.75 75.8233 208.527 254.688 288.381 350.97 427.426 495.204>
LayerCount: 2
Back
Fore
SplineSet
139 430 m 1
 181 430 229 435 253 437 c 1
 256 433 257 410 252 404 c 1
 238 404 208 400 208 384 c 0
 208 381 211 376 215 371 c 2
 280 278 l 1
 308 314 354 366 354 380 c 0
 354 402 298 404 291 404 c 1
 287 407 286 431 290 437 c 1
 326 434 353 430 393 430 c 0
 432 430 479 435 494 437 c 1
 496 432 497 408 493 404 c 1
 474 404 433 399 413 376 c 0
 377 332 335 277 306 243 c 1
 338 201 410 98 437 64 c 1
 457 36 491 29 509 29 c 1
 513 25 513 1 509 -4 c 1
 471 0 430 2 392 2 c 1
 350 2 307 -2 273 -4 c 1
 269 2 270 26 274 29 c 1
 287 29 319 36 319 50 c 0
 319 52 315 56 313 60 c 2
 313 60 252 146 238 166 c 1
 217 140 186 104 164 71 c 0
 159 64 157 58 157 54 c 0
 157 32 204 30 220 29 c 1
 224 27 224 2 220 -4 c 1
 186 -1 159 2 120 2 c 0
 80 2 37 -2 10 -4 c 1
 7 2 7 23 11 29 c 1
 36 31 76 39 100 66 c 1
 125 90 185 173 212 202 c 1
 182 242 116 342 89 376 c 1
 73 397 35 404 21 404 c 1
 17 408 17 431 21 437 c 1
 57 433 100 430 139 430 c 1
EndSplineSet
Validated: 33
EndChar

StartChar: y
Encoding: 121 121 89
Width: 501
Flags: W
HStem: -223 86<31.6561 135.849> 404 33<0.0889397 50.0804 177.91 233.247 307.721 367.797 444.574 502.619>
LayerCount: 2
Back
Fore
SplineSet
119 430 m 0
 159 430 211 435 232 437 c 1
 236 431 235 407 230 404 c 1
 220 404 176 398 176 382 c 0
 176 380 176 376 178 372 c 0
 196 337 282 138 282 138 c 1
 282 138 330 256 366 340 c 0
 371 351 375 365 375 374 c 0
 375 396 331 404 310 404 c 1
 305 406 306 431 310 437 c 1
 332 434 367 430 407 430 c 0
 447 430 483 435 501 437 c 1
 505 431 504 408 500 404 c 1
 490 404 441 398 428 370 c 1
 398 300 331 153 271 16 c 0
 243 -47 221 -101 185 -152 c 0
 151 -197 111 -223 81 -223 c 0
 50 -223 24 -207 24 -175 c 1
 24 -157 33 -145 42 -137 c 1
 105 -137 145 -122 181 -70 c 0
 199 -45 214 -4 222 16 c 1
 174 129 91 310 61 374 c 1
 49 400 12 404 2 404 c 1
 -2 408 -1 433 2 437 c 1
 25 435 79 430 119 430 c 0
EndSplineSet
Validated: 33
EndChar

StartChar: z
Encoding: 122 122 90
Width: 453
Flags: W
HStem: 0 40<157 341.342> 390 40<106.91 274.923> 418 20G<386.5 409.5>
VStem: 391 36<96.0098 140.88>
LayerCount: 2
Back
Fore
SplineSet
149 430 m 2xd0
 149 430 282 430 282 430 c 2xd0
 336 430 366 433 407 438 c 1xb0
 412 430 411 419 411 414 c 1
 411 414 157 42 157 40 c 1
 157 40 283 40 283 40 c 2
 344 40 381 96 391 136 c 0
 392 141 397 142 401 142 c 0
 411 142 424 136 427 132 c 1
 421 112 392 23 384 0 c 1
 355 0 110 0 44 0 c 1
 40 1 31 10 31 18 c 0
 31 21 32 28 34 30 c 2
 34 30 275 388 275 388 c 1
 275 388 169 390 153 390 c 1
 99 390 84 334 74 308 c 0
 72 304 61 300 51 300 c 0
 45 300 40 301 40 303 c 1
 44 319 54 384 57 437 c 1
 57 437 113 430 149 430 c 2xd0
EndSplineSet
Validated: 1
EndChar

StartChar: braceleft
Encoding: 123 123 91
Width: 259
Flags: W
HStem: -144 22<209.9 222.609> 718 22<209.9 222.609>
VStem: 68 79<-39.4355 85.9241 510.394 635.435> 105 80<110.474 236.393 359.607 487.068>
LayerCount: 2
Back
Fore
SplineSet
105 404 m 0xd0
 105 432 94 455 85 481 c 0
 76 503 68 526 68 554 c 0
 68 654 168 730 214 740 c 1
 220 740 229 726 226 718 c 1
 198 704 147 657 147 599 c 0xe0
 147 560 157 540 167 516 c 0
 176 495 185 471 185 432 c 0
 185 356 118 303 87 298 c 1
 118 293 185 240 185 164 c 0xd0
 185 125 176 101 167 80 c 0
 157 56 147 36 147 -3 c 0
 147 -61 198 -108 226 -122 c 1
 229 -130 220 -144 214 -144 c 1
 168 -134 68 -58 68 42 c 0xe0
 68 73 78 98 87 122 c 0
 96 145 105 166 105 192 c 0
 105 245 63 275 23 287 c 1
 21 289 20 294 20 298 c 0
 20 302 21 307 23 309 c 1
 63 321 105 351 105 404 c 0xd0
EndSplineSet
Validated: 1
EndChar

StartChar: bar
Encoding: 124 124 92
Width: 204
Flags: W
VStem: 76 52<-117.716 757>
LayerCount: 2
Back
Fore
SplineSet
128 -107 m 2
 128 -115 83 -123 81 -123 c 0
 74 -123 76 -119 76 -115 c 2
 76 757 l 1
 76 757 75 763 81 765 c 0
 98 770 116 771 119 771 c 0
 128 771 127 765 127 765 c 1
 128 -107 l 2
EndSplineSet
Validated: 1
EndChar

StartChar: braceright
Encoding: 125 125 93
Width: 259
Flags: W
HStem: -144 22<37.8213 50.466> 718 22<37.8213 50.466>
VStem: 75 81<109.518 236.393 359.607 486.436> 113 79<-39.4355 86.6099 512.409 635.435>
LayerCount: 2
Back
Fore
SplineSet
46 740 m 1xd0
 92 730 192 654 192 554 c 0xd0
 192 525 184 501 175 478 c 0
 166 454 156 431 156 404 c 0
 156 351 198 321 238 309 c 1
 240 307 240 302 240 298 c 0
 240 294 240 289 238 287 c 1
 198 275 156 245 156 192 c 0xe0
 156 166 165 144 174 121 c 0
 183 97 192 72 192 42 c 0
 192 -58 92 -134 46 -144 c 1
 40 -144 32 -130 35 -122 c 1
 62 -108 113 -61 113 -3 c 0xd0
 113 35 104 56 94 79 c 0
 85 100 75 124 75 164 c 0
 75 240 143 293 174 298 c 1
 143 303 75 356 75 432 c 0xe0
 75 476 85 499 95 522 c 0
 104 544 113 564 113 599 c 0
 113 657 62 704 35 718 c 1
 32 726 40 740 46 740 c 1xd0
EndSplineSet
Validated: 1
EndChar

StartChar: asciitilde
Encoding: 126 126 94
Width: 558
Flags: W
HStem: 244 56<318.397 459.277> 304 56<105.107 248.054>
LayerCount: 2
Back
Fore
SplineSet
265 275 m 0
 230 289 192 304 147 304 c 0
 108 304 77 278 59 259 c 1
 55 261 51 266 51 272 c 1
 51 310 121 360 177 360 c 0
 224 360 263 344 299 330 c 0
 333 316 371 300 417 300 c 0
 456 300 485 326 505 346 c 1
 509 344 513 339 513 333 c 1
 513 297 448 244 388 244 c 0
 340 244 301 261 265 275 c 0
EndSplineSet
Validated: 1
EndChar

StartChar: exclamdown
Encoding: 161 161 96
Width: 231
Flags: W
HStem: 306 130<67.3971 163.697>
VStem: 51 130<322.747 418.697> 59 111<-202.702 74.584>
LayerCount: 2
Back
Fore
SplineSet
51 372 m 0xc0
 51 407 79 436 115 436 c 1
 151 436 181 406 181 370 c 0
 181 335 151 306 115 306 c 1
 79 306 51 337 51 372 c 0xc0
111 -216 m 0
 80 -216 59 -188 59 -154 c 0
 59 -126 80 60 97 229 c 1
 101 239 105 246 115 248 c 1
 120 247 129 242 133 234 c 1
 145 120 170 -103 170 -154 c 0xa0
 170 -189 145 -216 111 -216 c 0
EndSplineSet
Validated: 1
EndChar

StartChar: cent
Encoding: 162 162 97
Width: 464
Flags: W
HStem: -8 75<217.433 336.102> 395 48<200.312 318.724>
VStem: 44 102<142.567 291.23> 277 32<432.48 474.748>
LayerCount: 2
Back
Fore
SplineSet
277 476 m 17
 285 476 309 477 309 470 c 1
 225 -42 l 1
 216 -42 195 -40 193 -34 c 9
 277 476 l 17
EndSplineSet
Refer: 67 99 N 1 0 0 1 9 0 2
Validated: 37
EndChar

StartChar: sterling
Encoding: 163 163 98
Width: 475
UnlinkRmOvrlpSave: 1
Flags: W
HStem: -8 84<264.956 364.427> 50 71<112.489 226> 306 39<62.2561 378.322> 585 51<237.409 331.5>
VStem: 111 91<346.107 496.25> 138 94<191.571 304.652>
LayerCount: 2
Back
Fore
SplineSet
314 636 m 0x78
 349 636 364 627 386 613 c 1
 390 609 395 593 395 583 c 0
 395 547 374 530 352 530 c 1
 327 530 313 547 300 561 c 0
 286 575 277 585 261 585 c 0
 215 585 202 528 202 459 c 0x78
 202 385 232 334 232 278 c 0
 232 203 178 133 153 110 c 1
 169 118 186 121 203 121 c 0x74
 249 121 273 76 343 76 c 0
 389 76 416 124 424 140 c 1
 426 141 436 134 438 128 c 0
 440 123 440 118 439 112 c 1
 428 80 377 -8 299 -8 c 0xb4
 222 -8 190 50 127 50 c 0
 99 50 77 10 60 -6 c 1
 52 -6 44 7 44 16 c 0
 44 45 80 78 94 94 c 0
 120 122 138 183 138 232 c 0x74
 138 268 111 362 111 392 c 0
 109 528 220 636 314 636 c 0x78
72 345 m 1
 88 345 370 345 381 345 c 1
 395 334 378 310 372 306 c 1
 372 306 50 306 50 306 c 17
 44 312 63 345 72 345 c 1
EndSplineSet
Validated: 37
EndChar

StartChar: currency
Encoding: 164 164 99
Width: 569
Flags: W
HStem: 120 36<243.099 338.501> 460 36<229.62 322.349>
VStem: 100 83<220.761 397.067> 383 82<217.214 393.742>
LayerCount: 2
Back
Fore
SplineSet
292 156 m 0
 348 156 383 219 383 294 c 0
 383 386 334 460 276 460 c 0
 220 460 183 394 183 319 c 0
 183 227 234 156 292 156 c 0
396 455 m 1
 456 510 l 2
 464 518 489 490 496 466 c 1
 436 410 l 1
 454 380 465 344 465 307 c 0
 465 267 453 230 432 199 c 1
 486 141 l 2
 494 133 466 107 442 100 c 1
 390 155 l 1
 360 133 324 120 284 120 c 0
 241 120 201 135 170 160 c 1
 118 110 l 2
 110 102 83 130 76 154 c 1
 130 205 l 1
 111 235 100 270 100 307 c 0
 100 351 114 391 138 423 c 1
 86 479 l 2
 78 487 106 513 130 520 c 1
 182 465 l 1
 211 485 246 496 284 496 c 0
 327 496 365 481 396 455 c 1
EndSplineSet
Validated: 33
EndChar

StartChar: yen
Encoding: 165 165 100
Width: 681
UnlinkRmOvrlpSave: 1
Flags: W
HStem: -4 33<204.75 273.778 400.222 469.25> 144 40<193.197 487.497> 224 40<193.197 487.497> 608 33<27.6094 83.3342 242.04 299.812 431.64 502.739 585.034 653.448>
VStem: 280 114<36.3778 130 130.068 306.217>
LayerCount: 2
Back
Fore
SplineSet
202 184 m 1
 218 184 480 184 491 184 c 1
 505 173 487 148 481 144 c 1
 182 144 l 17
 176 150 193 184 202 184 c 1
202 264 m 1
 218 264 480 264 491 264 c 1
 505 253 487 228 481 224 c 1
 182 224 l 17
 176 230 193 264 202 264 c 1
280 130 m 2
 280 254 l 1
 280 258 279 268 275 276 c 0
 236 352 170 469 140 522 c 1
 122 554 112 566 92 584 c 0
 76 602 42 608 30 608 c 1
 25 612 26 635 30 641 c 1
 74 638 119 636 164 636 c 0
 210 636 258 638 298 641 c 1
 301 635 302 612 297 608 c 1
 283 608 237 605 237 579 c 0
 237 573 240 566 246 556 c 2
 375 328 l 1
 402 370 476 508 504 564 c 0
 506 570 508 578 508 584 c 0
 508 596 468 608 434 608 c 1
 430 612 430 637 433 641 c 1
 475 638 499 635 541 635 c 0
 589 635 612 639 652 641 c 1
 655 635 655 612 651 608 c 1
 641 608 589 608 570 576 c 0
 541 528 435 347 400 278 c 0
 395 269 395 259 395 254 c 1
 395 224 394 130 394 130 c 2
 394 94 394 64 400 46 c 0
 404 34 455 29 467 29 c 1
 471 23 471 2 467 -4 c 1
 427 -1 377 2 337 2 c 0
 297 2 247 -1 207 -4 c 1
 203 2 203 23 207 29 c 1
 219 29 270 34 274 46 c 0
 280 64 280 94 280 130 c 2
EndSplineSet
Validated: 37
EndChar

StartChar: brokenbar
Encoding: 166 166 101
Width: 211
Flags: W
VStem: 80 52<-118.239 249 389.761 757>
LayerCount: 2
Back
Fore
SplineSet
132 400 m 2
 132 392 87 385 85 385 c 0
 78 385 80 389 80 393 c 2
 80 757 l 1
 80 757 79 763 85 765 c 0
 102 770 121 770 124 770 c 0
 133 770 132 764 132 764 c 1
 132 400 l 2
80 -115 m 2
 80 249 l 1
 80 249 79 255 85 257 c 0
 102 262 121 262 124 262 c 0
 133 262 132 256 132 256 c 1
 132 -108 l 2
 132 -116 87 -123 85 -123 c 0
 78 -123 80 -119 80 -115 c 2
EndSplineSet
Validated: 1
EndChar

StartChar: section
Encoding: 167 167 102
Width: 454
UnlinkRmOvrlpSave: 1
Flags: W
HStem: -85 50<135 239.205> 603 50<214.334 319>
VStem: 37 62<350.428 460.192> 139 35<504.47 532> 280 52<0 107> 280 36<35 66.2525> 355 62<107.754 217.572>
LayerCount: 2
Back
Fore
SplineSet
312 653 m 0xf6
 200 653 122 576 122 496 c 0
 122 426 194 372 242 328 c 0
 296 278 355 215 355 132 c 0
 355 88 339 69 316 35 c 0
 316 35 292 15 284 -3 c 24
 278 -14 282 -22 280 -34 c 17
 318 -8 417 106 417 182 c 0
 417 271 358 330 300 384 c 0
 253 427 174 503 174 549 c 0
 174 587 222 603 253 603 c 0
 268 603 280 598 288 592 c 0
 298 586 309 576 327 576 c 0
 349 576 364 596 364 614 c 0
 364 620 363 632 358 642 c 1
 344 648 326 653 312 653 c 0xf6
142 -85 m 0
 128 -85 109 -80 96 -74 c 1
 92 -66 90 -54 90 -48 c 0
 90 -30 106 -8 128 -8 c 0
 146 -8 158 -19 168 -26 c 0
 176 -32 187 -35 202 -35 c 0
 233 -35 280 -19 280 19 c 0
 280 65 202 141 155 184 c 0
 97 238 37 297 37 386 c 0
 37 462 136 576 174 602 c 9
 172 590 176 582 170 571 c 24
 162 553 139 532 139 532 c 0
 115 498 99 480 99 436 c 0
 99 353 158 290 212 240 c 0
 260 196 332 142 332 72 c 0xfa
 332 -8 254 -85 142 -85 c 0
EndSplineSet
Validated: 5
EndChar

StartChar: dieresis
Encoding: 168 168 103
Width: 372
Flags: W
HStem: 457 116<42.6616 134.236 239.255 330.338>
VStem: 29 118<470.662 559.745> 226 118<470.662 559.745>
LayerCount: 2
Back
Fore
SplineSet
285 573 m 1
 317 573 344 547 344 515 c 1
 344 483 316 457 284 457 c 1
 252 457 226 484 226 516 c 1
 226 548 253 573 285 573 c 1
88 573 m 1
 120 573 147 547 147 515 c 1
 147 483 120 457 88 457 c 1
 56 457 29 484 29 516 c 1
 29 548 56 573 88 573 c 1
EndSplineSet
Validated: 1
EndChar

StartChar: copyright
Encoding: 169 169 104
Width: 656
Flags: W
HStem: 54 38<238.027 420.321> 179 28<301.149 400.127> 439 30<293.634 393.413> 561 38<238.027 417.158>
VStem: 55 39<233.38 418.76> 185 64<249.48 398.253> 423 22<232.518 266.303 382.695 405.75> 563 38<236.527 415.605>
LayerCount: 2
Back
Fore
SplineSet
449 264 m 1
 449 260 436 204 430 202 c 0
 401 191 369 179 329 179 c 0
 246 179 185 236 185 320 c 0
 185 404 251 469 331 469 c 0
 359 469 401 461 430 452 c 1
 430 450 445 394 445 390 c 0
 445 386 435 382 429 382 c 1
 427 382 425 382 423 384 c 1
 419 398 402 439 338 439 c 0
 282 439 249 384 249 328 c 0
 249 256 293 207 345 207 c 0
 373 207 395 215 407 226 c 0
 421 240 427 266 429 268 c 1
 433 268 447 266 449 264 c 1
94 326 m 0
 94 196 198 92 328 92 c 0
 458 92 563 196 563 326 c 0
 563 456 458 561 328 561 c 0
 198 561 94 456 94 326 c 0
55 326 m 0
 55 477 176 599 327 599 c 0
 478 599 601 477 601 326 c 0
 601 175 478 54 327 54 c 0
 176 54 55 175 55 326 c 0
EndSplineSet
Validated: 1
EndChar

StartChar: ordfeminine
Encoding: 170 170 105
Width: 366
Flags: W
HStem: 248 42<130.422 185.919 254 313.536> 526 30<132.876 220.016>
VStem: 45 78<297.135 375.549> 54 68<451.292 501.716> 213 74<296.645 402 432.185 515.321>
LayerCount: 2
Back
Fore
SplineSet
168 290 m 0xe8
 188 290 213 310 213 316 c 2
 213 316 213 402 213 402 c 1
 197 396 170 389 156 382 c 0
 134 371 123 356 123 336 c 0
 123 308 146 290 168 290 c 0xe8
194 556 m 0
 244 556 287 514 287 457 c 2
 287 457 287 323 287 323 c 2
 287 305 294 294 306 294 c 0
 317 294 327 302 329 303 c 1
 331 303 334 297 334 294 c 1
 334 290 332 284 330 281 c 1
 321 273 288 250 265 250 c 0
 243 250 222 270 216 288 c 1
 208 282 158 248 133 248 c 0
 83 248 45 288 45 330 c 0xe8
 45 357 65 379 81 385 c 0
 114 397 181 421 209 432 c 1
 213 436 213 437 213 445 c 2
 213 445 213 464 213 464 c 2
 213 496 194 526 162 526 c 0
 136 526 128 508 122 480 c 0
 118 460 106 449 85 449 c 0
 67 449 54 464 54 480 c 0xd8
 54 486 57 496 61 502 c 1
 76 516 136 556 194 556 c 0
EndSplineSet
Validated: 1
EndChar

StartChar: guillemotleft
Encoding: 171 171 106
Width: 490
Flags: W
LayerCount: 2
Back
Fore
SplineSet
207 247 m 0
 207 255 209 258 213 264 c 1
 344 343 420 421 423 423 c 1
 434 420 444 414 447 408 c 1
 442 394 348 286 306 248 c 1
 348 210 442 102 447 88 c 1
 444 82 434 75 423 72 c 1
 420 74 344 153 213 232 c 1
 210 236 207 241 207 247 c 0
23 247 m 0
 23 255 25 258 29 264 c 1
 160 343 236 421 239 423 c 1
 250 420 260 414 263 408 c 1
 258 394 165 286 123 248 c 1
 165 210 258 102 263 88 c 1
 260 82 250 75 239 72 c 1
 236 74 160 153 29 232 c 1
 26 236 23 241 23 247 c 0
EndSplineSet
Validated: 1
EndChar

StartChar: logicalnot
Encoding: 172 172 107
Width: 588
Flags: W
HStem: 363 57<52 452>
VStem: 452 66<161.822 363>
LayerCount: 2
Back
Fore
SplineSet
518 420 m 17
 518 169 l 1
 517 168 486 157 465 157 c 0
 460 157 454 161 452 164 c 1
 452 175 452 305 452 363 c 1
 52 363 l 1
 52 363 46 363 46 373 c 1
 46 373 50 420 60 420 c 2
 518 420 l 17
EndSplineSet
Validated: 1
EndChar

StartChar: registered
Encoding: 174 174 108
Width: 654
Flags: W
HStem: 111 38<237.027 416.158> 253 15<201.553 230.597 289.397 317.447 452.63 475> 379 19<286 308.311> 509 18<201.748 230.892 288.101 337.48> 618 39<237.027 419.321>
VStem: 54 39<291.24 476.682> 233 53<276.332 379 398 504.668> 359 55<408.309 501.686> 562 38<294.395 473.526>
LayerCount: 2
Back
Fore
SplineSet
323 527 m 0
 367 527 414 501 414 453 c 0
 414 421 380 394 356 386 c 1
 382 348 409 316 423 299 c 0
 444 275 462 270 475 269 c 1
 477 266 475 254 475 253 c 1
 455 253 431 254 419 255 c 0
 401 256 386 264 372 282 c 0
 369 286 320 352 307 373 c 0
 306 375 301 379 297 379 c 0
 295 379 288 379 286 379 c 1
 286 310 l 1
 286 295 286 283 289 276 c 0
 291 271 311 268 316 268 c 1
 318 265 318 255 316 253 c 1
 299 254 278 256 261 256 c 0
 244 256 220 254 203 253 c 1
 201 255 201 265 203 268 c 1
 208 268 229 271 231 276 c 0
 234 283 233 295 233 310 c 2
 233 471 l 2
 233 486 234 498 231 505 c 0
 229 510 208 512 203 512 c 1
 201 515 201 525 203 527 c 1
 221 526 245 526 262 526 c 0
 279 526 299 527 323 527 c 0
359 447 m 0
 359 482 346 509 309 509 c 0
 302 509 290 509 288 505 c 0
 286 500 286 489 286 476 c 2
 286 398 l 1
 286 398 300 398 304 398 c 0
 335 398 359 415 359 447 c 0
93 384 m 0
 93 254 197 149 327 149 c 0
 457 149 562 254 562 384 c 0
 562 514 457 618 327 618 c 0
 197 618 93 514 93 384 c 0
54 384 m 0
 54 535 175 657 326 657 c 0
 477 657 600 535 600 384 c 0
 600 233 477 111 326 111 c 0
 175 111 54 233 54 384 c 0
EndSplineSet
Validated: 33
EndChar

StartChar: macron
Encoding: 175 175 109
Width: 476
Flags: W
HStem: 548 48<565 774>
VStem: 559 228<556.839 596>
LayerCount: 2
Back
Fore
SplineSet
559 558 m 0
 559 560 560 596 571 596 c 2
 782 596 l 2
 784 596 787 596 787 590 c 0
 787 585 787 574 782 556 c 0
 780 550 774 548 774 548 c 1
 565 548 l 1
 565 548 559 548 559 558 c 0
EndSplineSet
Validated: 1
EndChar

StartChar: degree
Encoding: 176 176 110
Width: 284
Flags: W
HStem: 431 42<96.5141 188.746> 600 41<97.0395 188.244>
VStem: 37 42<490.398 581.864> 205 42<489.884 583.529>
LayerCount: 2
Back
Fore
SplineSet
79 536 m 0
 79 501 108 473 143 473 c 0
 178 473 205 501 205 536 c 0
 205 571 178 600 143 600 c 0
 108 600 79 571 79 536 c 0
37 536 m 0
 37 594 85 641 143 641 c 0
 201 641 247 594 247 536 c 0
 247 478 201 431 143 431 c 0
 85 431 37 478 37 536 c 0
EndSplineSet
Validated: 1
EndChar

StartChar: plusminus
Encoding: 177 177 111
Width: 585
Flags: W
HStem: 8 57<54.7524 528.329> 306 57<54.7524 262 319 528.329>
VStem: 262 57<97.3338 306 363 570.111>
LayerCount: 2
Back
Fore
SplineSet
64 65 m 1
 104 65 498 65 522 65 c 1
 527 65 532 59 532 52 c 0
 532 33 524 17 516 8 c 1
 57 8 l 1
 55 8 51 10 51 20 c 0
 51 24 55 55 64 65 c 1
64 363 m 1
 262 363 l 1
 262 363 262 552 262 562 c 1
 276 570 298 573 304 573 c 0
 314 573 319 570 319 566 c 1
 319 363 l 1
 359 363 482 363 522 363 c 1
 527 363 532 357 532 350 c 0
 532 331 524 315 516 306 c 1
 319 306 l 1
 319 306 319 144 319 106 c 1
 307 98 284 94 274 94 c 0
 268 94 262 99 262 103 c 2
 262 306 l 1
 57 306 l 1
 55 306 51 308 51 318 c 0
 51 322 55 353 64 363 c 1
EndSplineSet
Validated: 1
EndChar

StartChar: uni00B2
Encoding: 178 178 112
Width: 354
Flags: W
HStem: 254 63<122 276> 596 49<111.587 199.985>
VStem: 215 80<472.021 580.76> 293 22<349.427 375.683>
LayerCount: 2
Back
Fore
SplineSet
315 371 m 1xd0
 306 342 286 276 277 254 c 1
 277 254 48 254 48 254 c 1
 44 256 38 263 38 267 c 1
 82 315 123 356 168 414 c 0
 199 455 215 491 215 528 c 0
 215 569 188 596 150 596 c 0
 106 596 83 560 71 546 c 1
 67 544 55 554 55 562 c 1
 72 594 120 645 178 645 c 0
 248 645 295 605 295 539 c 0xe0
 295 495 266 457 232 421 c 0
 204 391 164 355 122 317 c 1
 122 317 238 317 238 317 c 2
 274 317 285 356 293 372 c 0
 294 374 297 376 301 376 c 0
 305 376 312 374 315 371 c 1xd0
EndSplineSet
Validated: 1
EndChar

StartChar: uni00B3
Encoding: 179 179 113
Width: 328
Flags: W
HStem: 247 28<112.173 188.846> 443 24<102.053 141.831> 602 42<103.461 182.112>
VStem: 194 68<508.986 590.914> 215 77<314.074 422.4>
LayerCount: 2
Back
Fore
SplineSet
171 644 m 0xf0
 210 644 262 620 262 564 c 0xf0
 262 512 219 489 197 482 c 1
 220 482 292 452 292 382 c 0
 292 294 205 247 123 247 c 0
 92 247 59 255 48 265 c 1
 46 268 37 279 37 290 c 0
 37 308 51 324 69 324 c 0
 86 324 95 308 107 294 c 0
 117 281 133 275 149 275 c 0
 189 275 215 303 215 361 c 0xe8
 215 409 182 448 143 448 c 0
 132 448 115 445 107 443 c 1
 105 446 102 451 102 456 c 0
 102 459 102 465 103 467 c 1
 143 474 194 497 194 547 c 0
 194 577 171 602 139 602 c 0
 104 602 76 572 71 566 c 1
 67 568 58 577 60 583 c 1
 78 609 121 644 171 644 c 0xf0
EndSplineSet
Validated: 1
EndChar

StartChar: acute
Encoding: 180 180 114
Width: 362
Flags: W
HStem: 524 162
VStem: 274 170
LayerCount: 2
Back
Fore
SplineSet
402 686 m 0
 437 686 444 666 444 660 c 0
 444 621 299 524 289 524 c 0
 282 524 274 534 274 540 c 0
 274 546 332 636 368 678 c 0
 373 683 388 686 402 686 c 0
EndSplineSet
Validated: 1
EndChar

StartChar: uni00B5
Encoding: 181 181 115
Width: 528
Flags: W
HStem: -8 98<174.252 261.521 396.522 466.24> 422 20G<95 106 346 357>
VStem: 75 92<255.457 423.335> 85 52<122.136 330.675> 326 94<279.137 422.665>
LayerCount: 2
Back
Fore
SplineSet
137 222 m 1xd8
 140 162 157 90 201 90 c 0
 264 90 317 160 329 222 c 1
 327 246 326 291 326 314 c 0
 326 327 326 382 325 420 c 1
 330 428 340 442 352 442 c 0
 362 442 420 416 420 403 c 0
 420 378 407 330 395 264 c 0
 390 244 382 212 378 195 c 1
 378 119 407 85 439 85 c 0
 471 85 491 113 499 126 c 1
 503 126 511 114 513 108 c 0
 515 104 513 95 513 92 c 0
 499 49 466 -4 426 -4 c 0
 378 -3 357 86 351 132 c 1
 326 62 278 -8 215 -8 c 0
 169 -8 135 73 129 119 c 1
 131 94 131 -87 153 -205 c 1
 148 -213 134 -227 119 -227 c 0
 105 -227 63 -195 63 -182 c 0
 63 -164 73 106 85 210 c 1xd8
 85 234 75 316 75 339 c 0
 75 352 77 397 77 420 c 1
 81 430 89 442 101 442 c 0
 111 442 167 416 167 403 c 0xe8
 167 375 161 335 149 277 c 0
 145 255 140 236 137 222 c 1xd8
EndSplineSet
Validated: 1
EndChar

StartChar: paragraph
Encoding: 182 182 116
Width: 505
Flags: W
HStem: -4 32<162.958 225.351 393.448 458.204> 2 39<285.058 332.944> 288 42<280 337> 299 42<383 412.484> 607 41<280.286 337.805>
VStem: 33 247<384.692 558.334> 236 44<47.7083 287> 338 45<46.7573 114 114.104 292 341 606.784>
LayerCount: 2
Back
Fore
SplineSet
338 336 m 1x2b
 338 372 338 589 338 602 c 1
 334 606 319 607 309 607 c 0
 299 607 286 607 280 601 c 1
 280 601 280 432 280 330 c 1
 286 330 334 333 338 336 c 1x2b
337 292 m 1
 323 291 296 289 280 288 c 1
 280 226 280 179 280 117 c 0
 280 84 281 62 285 47 c 0
 286 42 302 41 309 41 c 0x6b
 318 41 332 42 333 46 c 0
 338 62 338 88 338 114 c 2
 338 114 337 258 337 292 c 1
382 299 m 1x9d
 382 228 382 182 382 116 c 0
 382 83 382 66 387 51 c 0
 392 36 446 28 456 28 c 1
 460 23 459 0 457 -4 c 1x9d
 407 -2 374 2 312 2 c 0x4d
 258 2 204 -2 164 -4 c 1
 160 4 162 26 166 28 c 1
 176 28 225 36 231 50 c 0
 237 66 236 90 236 116 c 2
 236 116 236 253 236 287 c 1x8b
 108 287 33 374 33 469 c 0
 33 593 134 652 216 652 c 0
 275 652 259 648 318 648 c 0
 385 648 438 653 438 653 c 1
 443 648 443 623 438 620 c 1
 423 620 391 612 386 600 c 0
 384 593 383 587 383 536 c 0
 383 475 383 360 383 341 c 1
 388 340 432 354 432 354 c 1
 437 354 439 350 439 346 c 0
 438 336 420 312 413 309 c 0
 402 304 390 300 382 299 c 1x9d
EndSplineSet
Validated: 33
EndChar

StartChar: periodcentered
Encoding: 183 183 117
Width: 234
Flags: W
HStem: 197 133<68.4065 165.697>
VStem: 51 132<214.757 312.697>
LayerCount: 2
Back
Fore
SplineSet
51 264 m 0
 51 300 81 330 117 330 c 1
 153 330 183 300 183 264 c 0
 183 228 154 197 118 197 c 1
 81 197 51 228 51 264 c 0
EndSplineSet
Validated: 1
EndChar

StartChar: cedilla
Encoding: 184 184 118
Width: 473
Flags: W
HStem: -154 26<404.598 483.534> -63 38<466 488.308>
VStem: 491 46<-124.748 -64.1176>
LayerCount: 2
Back
Fore
SplineSet
466 -26 m 1
 470 -26 486 -25 490 -25 c 1
 516 -25 537 -48 537 -74 c 0
 537 -121 499 -154 447 -154 c 0
 427 -154 408 -145 402 -139 c 1
 400 -135 396 -125 396 -120 c 0
 396 -116 396 -114 398 -114 c 1
 404 -117 427 -128 448 -128 c 0
 479 -128 491 -112 491 -96 c 0
 491 -77 479 -63 462 -63 c 0
 454 -63 446 -66 436 -70 c 1
 434 -70 424 -61 425 -56 c 1
 434 -41 448 -17 455 -3 c 1
 482 -3 l 1
 482 -3 468 -22 466 -26 c 1
EndSplineSet
Validated: 1
EndChar

StartChar: uni00B9
Encoding: 185 185 119
Width: 291
Flags: W
HStem: 252 26<54.4951 108.092 207.048 257.289> 626 20G<191 196.5>
VStem: 117 80<292.568 563.628>
LayerCount: 2
Back
Fore
SplineSet
117 514 m 2
 117 550 110 564 98 564 c 0
 88 564 64 554 48 548 c 1
 42 550 38 559 38 566 c 0
 38 568 38 573 40 574 c 1
 128 611 190 646 192 646 c 2
 194 646 l 2
 199 646 207 628 208 625 c 1
 206 619 197 581 197 542 c 2
 197 343 l 2
 197 324 199 304 206 292 c 0
 212 284 250 278 256 278 c 1
 258 278 258 254 256 252 c 1
 224 253 190 256 158 256 c 0
 126 256 89 253 57 252 c 1
 53 255 53 278 57 278 c 1
 67 278 104 284 109 292 c 0
 114 302 117 332 117 342 c 2
 117 514 l 2
EndSplineSet
Validated: 1
EndChar

StartChar: ordmasculine
Encoding: 186 186 120
Width: 398
Flags: W
HStem: 249 28<167.994 243.77> 526 27<153.618 228.806>
VStem: 37 86<324.14 476.84> 275 86<327.426 480.088>
LayerCount: 2
Back
Fore
SplineSet
191 526 m 1
 135 526 123 464 123 412 c 1
 123 350 147 277 207 277 c 1
 261 277 275 339 275 390 c 1
 275 452 250 526 191 526 c 1
199 553 m 0
 292 553 361 488 361 404 c 0
 361 320 290 249 199 249 c 0
 106 249 37 316 37 400 c 0
 37 484 107 553 199 553 c 0
EndSplineSet
Validated: 1
EndChar

StartChar: guillemotright
Encoding: 187 187 121
Width: 490
Flags: W
LayerCount: 2
Back
Fore
SplineSet
283 247 m 0
 283 241 280 236 277 232 c 1
 146 153 70 74 67 72 c 1
 56 75 46 82 43 88 c 1
 48 102 142 210 184 248 c 1
 142 286 48 394 43 408 c 1
 46 414 56 420 67 423 c 1
 70 421 146 343 277 264 c 1
 281 258 283 255 283 247 c 0
467 247 m 0
 467 241 464 236 461 232 c 1
 330 153 254 74 251 72 c 1
 240 75 230 82 227 88 c 1
 232 102 325 210 367 248 c 1
 325 286 232 394 227 408 c 1
 230 414 240 420 251 423 c 1
 254 421 330 343 461 264 c 1
 465 258 467 255 467 247 c 0
EndSplineSet
Validated: 1
EndChar

StartChar: onequarter
Encoding: 188 188 122
Width: 718
Flags: W
HStem: -3 21G<596 615.5> 99 46<461 569 643 674.789> 252 24<50.3545 100.848 195.908 244.375> 620 20G<159 183> 644 20G<562.5 574.5>
VStem: 111 74<290.483 555.988> 569 73<-2.39932 99 145 284>
LayerCount: 2
Back
Fore
SplineSet
627 396 m 0
 632 396 642 389 642 381 c 9
 642 333 642 188 642 142 c 1
 646 142 666 142 671 142 c 1
 682 132 686 115 679 99 c 1
 667 99 646 99 643 99 c 9
 643 1 l 1
 642 0 626 -3 605 -3 c 0
 587 -3 571 0 569 4 c 1
 569 99 l 1
 409 99 l 1
 404 101 399 106 399 116 c 1
 437 161 579 346 611 386 c 1
 615 391 621 396 627 396 c 0
569 145 m 1
 569 167 569 280 569 284 c 1
 537 244 489 181 461 145 c 1
 462 145 549 145 569 145 c 1
185 535 m 2
 185 341 l 2
 185 322 189 300 195 289 c 0
 200 281 237 276 243 276 c 1
 247 274 244 254 243 252 c 1
 211 253 183 255 151 255 c 0
 119 255 85 253 53 252 c 1
 49 255 49 274 53 276 c 1
 63 276 98 282 103 290 c 0
 108 300 111 330 111 340 c 2
 111 516 l 2
 111 539 104 556 93 556 c 0
 83 556 63 547 47 541 c 1
 41 543 35 560 35 564 c 1
 80 585 137 615 181 640 c 1
 185 639 196 627 196 622 c 1
 194 616 185 574 185 535 c 2
205 -23 m 0
 192 -23 190 -14 190 -14 c 1
 538 650 l 1
 542 656 554 664 571 664 c 0
 578 664 583 660 584 656 c 1
 239 -4 l 2
 236 -10 222 -23 205 -23 c 0
EndSplineSet
Validated: 33
EndChar

StartChar: onehalf
Encoding: 189 189 123
Width: 749
Flags: W
HStem: -2 63<522 676> 252 24<51.3545 99.8975 194.914 245.101> 340 49<511.723 600.286> 620 20G<160 185> 644 20G<550.5 562.5>
VStem: 112 74<290.483 555.988> 616 80<217.776 323.945>
LayerCount: 2
Back
Fore
SplineSet
578 389 m 0
 648 389 696 350 696 284 c 0
 696 240 666 202 632 166 c 0
 604 136 564 99 522 61 c 1
 638 61 l 2
 674 61 685 100 693 116 c 0
 694 118 697 120 701 120 c 0
 705 120 712 119 715 116 c 1
 706 87 687 20 678 -2 c 1
 448 -2 l 1
 444 0 438 8 438 12 c 1
 481 59 520 96 564 152 c 0
 598 195 616 233 616 272 c 0
 616 313 588 340 550 340 c 0
 506 340 484 305 472 291 c 1
 468 289 455 298 455 306 c 1
 472 338 520 389 578 389 c 0
186 535 m 2
 186 341 l 2
 186 322 188 300 194 289 c 0
 199 281 237 276 243 276 c 1
 247 274 245 254 244 252 c 1
 212 253 182 255 150 255 c 0
 118 255 86 253 54 252 c 1
 50 255 50 274 54 276 c 1
 64 276 97 282 102 290 c 0
 107 300 112 330 112 340 c 2
 112 516 l 2
 112 539 105 556 94 556 c 0
 84 556 63 547 47 541 c 1
 41 543 36 558 36 564 c 1
 81 585 138 615 182 640 c 1
 188 636 196 627 196 622 c 1
 194 616 186 574 186 535 c 2
572 656 m 1
 227 -4 l 2
 224 -10 210 -23 193 -23 c 0
 180 -23 178 -14 178 -14 c 1
 526 650 l 1
 530 656 542 664 559 664 c 0
 566 664 571 660 572 656 c 1
EndSplineSet
Validated: 1
EndChar

StartChar: threequarters
Encoding: 190 190 124
Width: 719
Flags: W
HStem: -3 21G<595 614.5> 99 46<460 568 642 673.789> 247 28<108.173 185.113> 443 24<98.0704 137.831> 602 42<99.0273 177.421> 644 20G<569.5 581.5>
VStem: 190 68<508.986 590.521> 212 77<314.074 422.4> 568 73<-2.39932 99 145 284>
LayerCount: 2
Back
Fore
SplineSet
626 396 m 0xf080
 631 396 641 389 641 381 c 9
 641 333 641 188 641 142 c 1
 645 142 665 142 670 142 c 1
 681 132 685 115 678 99 c 1
 666 99 645 99 642 99 c 9
 642 99 642 1 642 1 c 1
 641 0 625 -3 604 -3 c 0
 586 -3 570 0 568 4 c 1
 568 4 568 99 568 99 c 1
 568 99 408 99 408 99 c 1
 403 101 398 106 398 116 c 1
 436 161 578 346 610 386 c 1
 614 391 620 396 626 396 c 0xf080
568 145 m 1
 568 167 568 280 568 284 c 1
 536 244 488 181 460 145 c 1
 461 145 548 145 568 145 c 1
166 644 m 0xfa80
 205 644 258 620 258 564 c 0xfa80
 258 512 214 489 192 482 c 1
 215 482 289 452 289 382 c 0
 289 294 201 247 119 247 c 0
 88 247 55 255 44 265 c 1
 42 268 34 279 34 290 c 0
 34 308 47 324 65 324 c 0
 82 324 91 308 103 294 c 0
 113 281 129 275 145 275 c 0
 185 275 212 303 212 361 c 0xf980
 212 409 179 448 140 448 c 0
 129 448 112 445 104 443 c 1
 102 446 98 451 98 456 c 0
 98 459 98 465 99 467 c 1
 139 474 190 497 190 547 c 0
 190 577 166 602 134 602 c 0
 99 602 73 572 68 566 c 1
 64 568 54 577 56 583 c 1
 74 609 116 644 166 644 c 0xfa80
591 656 m 1
 591 656 246 -4 246 -4 c 2
 243 -10 228 -23 211 -23 c 0
 198 -23 197 -14 197 -14 c 1
 197 -14 544 650 544 650 c 1
 548 656 561 664 578 664 c 0xf480
 585 664 590 660 591 656 c 1
EndSplineSet
Validated: 33
EndChar

StartChar: questiondown
Encoding: 191 191 125
Width: 367
Flags: W
HStem: -218 70<151.761 254.5> 307 130<196.85 290.316>
VStem: 36 68<-116.631 2.07237> 180 128<321.956 419.944> 235 34<177.62 247.767>
LayerCount: 2
Back
Fore
SplineSet
308 370 m 0xf0
 308 334 279 307 245 307 c 0
 209 307 180 334 180 370 c 0
 180 406 208 437 243 437 c 0
 277 437 308 408 308 370 c 0xf0
269 237 m 1xe8
 275 219 283 176 283 142 c 0
 283 76 236 46 200 22 c 0
 150 -10 104 -43 104 -84 c 0
 104 -120 130 -148 167 -148 c 0
 211 -148 231 -107 265 -107 c 0
 291 -107 319 -132 319 -165 c 0
 319 -181 313 -200 307 -206 c 1
 295 -212 272 -218 237 -218 c 0
 181 -218 36 -166 36 -38 c 0
 36 40 85 78 149 116 c 0
 176 132 217 159 229 177 c 0
 237 190 235 217 235 233 c 1
 238 240 244 248 251 248 c 1
 257 247 265 242 269 237 c 1xe8
EndSplineSet
Validated: 33
EndChar

StartChar: AE
Encoding: 198 198 132
Width: 887
Flags: W
HStem: 0 40<529.479 749.52> 240 46<251.999 382.289> 311 42<521 684.416> 620 44<575.934 738.413> 620 36<525.12 667.816>
VStem: 408 113<56.2292 180 284.65 308.794 354.063 541> 717 32<378.533 431.825> 783 36<517.121 564.804>
LayerCount: 2
Back
Fore
SplineSet
408 286 m 1xe7
 408 286 408 541 408 541 c 1
 398 525 252 290 252 290 c 1
 252 290 251 286 253 286 c 0
 276 284 307 284 330 284 c 0
 360 284 385 284 408 286 c 1xe7
466 656 m 0xef
 534 656 705 664 789 664 c 1
 796 614 810 567 819 522 c 1
 816 519 805 517 798 517 c 0
 791 517 785 519 783 524 c 0
 761 592 728 620 671 620 c 2
 671 620 586 620 586 620 c 1xf7
 568 620 531 619 527 609 c 0
 522 595 521 571 521 543 c 2
 521 543 521 362 521 362 c 2
 521 356 543 353 565 353 c 2
 565 353 618 353 618 353 c 2
 696 353 701 362 717 424 c 0
 718 429 723 432 730 432 c 0
 737 432 746 429 749 426 c 1
 749 426 749 236 749 236 c 1
 747 234 738 232 731 232 c 0
 724 232 718 235 716 240 c 0
 702 292 694 299 685 304 c 0
 673 310 632 311 594 311 c 0
 566 311 521 310 521 300 c 2
 521 300 521 128 521 128 c 2
 521 118 522 66 529 54 c 0
 539 42 563 40 597 40 c 2
 597 40 654 40 654 40 c 2
 692 40 737 49 763 68 c 0
 783 84 806 117 822 166 c 0
 823 170 829 172 836 172 c 0
 846 172 860 169 863 166 c 1
 844 112 816 41 809 -3 c 1
 733 -3 460 0 395 0 c 1
 359 3 334 12 336 16 c 1
 340 19 364 32 368 38 c 1
 378 48 403 69 405 97 c 1
 408 109 409 172 409 180 c 1
 393 180 379 240 369 240 c 1
 339 240 306 240 276 240 c 0
 254 240 246 237 222 235 c 1
 221 235 200 204 192 190 c 1
 184 178 153 126 137 98 c 0
 125 70 145 48 149 42 c 1
 151 26 180 13 182 11 c 1
 166 11 150 3 127 0 c 1
 84 1 64 1 24 -1 c 1
 -1 1 -7 10 -27 14 c 1
 -23 16 4 33 12 45 c 1
 29 59 49 72 65 90 c 1
 77 98 239 354 249 370 c 1
 249 370 387 596 387 596 c 1
 385 606 365 610 359 614 c 1
 357 626 340 641 336 644 c 1
 356 646 412 656 466 656 c 0xef
EndSplineSet
Validated: 33
EndChar

StartChar: Eth
Encoding: 208 208 142
Width: 739
Flags: W
HStem: -3 38<44.9805 114.023 240.347 412.903> 310 38<40.3369 376.828> 622 37<45.4639 114.246 236.173 395.805>
VStem: 119 114<54.6384 618.356> 564 129<205.408 454.097>
LayerCount: 2
Back
Fore
SplineSet
375 310 m 1
 346 310 56 310 42 310 c 1
 38 310 37 339 43 348 c 1
 72 348 361 348 375 348 c 1
 379 348 379 319 375 310 c 1
EndSplineSet
Refer: 36 68 N 1 0 0 1 3 0 2
Validated: 37
EndChar

StartChar: multiply
Encoding: 215 215 149
Width: 465
Flags: W
LayerCount: 2
Back
Fore
SplineSet
198 248 m 1
 196 250 55 390 55 390 c 1
 55 404 72 430 81 430 c 0
 84 430 86 430 88 428 c 2
 88 428 234 287 236 285 c 9
 380 428 l 2
 381 429 383 430 386 430 c 0
 395 430 410 398 410 388 c 1
 410 388 274 253 271 250 c 1
 272 249 410 106 410 106 c 1
 410 91 397 64 386 64 c 0
 384 64 381 64 379 66 c 2
 379 66 234 211 233 212 c 1
 231 210 85 65 85 65 c 2
 83 63 81 63 79 63 c 0
 70 63 55 96 55 106 c 1
 55 106 194 244 198 248 c 1
EndSplineSet
Validated: 1
EndChar

StartChar: Oslash
Encoding: 216 216 150
Width: 752
Flags: W
HStem: -10 40<315.839 471.661> 627 40<280.447 436.232>
VStem: 44 130<210.9 445.454> 579 130<210.677 445.477>
LayerCount: 2
Back
Fore
SplineSet
554 672 m 17
 562 670 590 656 587 650 c 9
 190 -16 l 17
 182 -13 153 1 156 7 c 9
 554 672 l 17
EndSplineSet
Refer: 47 79 N 1 0 0 1 0 0 2
Validated: 37
EndChar

StartChar: Thorn
Encoding: 222 222 156
Width: 558
Flags: W
HStem: -4 33<40.75 108.779 236.221 304.25> 2 180<152 282.149> 135 44<269.415 365.429> 477 38<233.754 345.722> 629 33<40.75 108.779 236.221 304.25>
VStem: 116 114<36.7397 474.25 509 621.26> 415 117<242.092 407.887>
LayerCount: 2
Back
Fore
SplineSet
173 656 m 0x9e
 213 656 262 659 302 662 c 1
 306 656 306 635 302 629 c 1
 290 629 240 624 236 612 c 0
 230 596 229 571 229 541 c 1
 229 538 230 513 230 509 c 1
 253 514 287 515 311 515 c 0
 429 515 532 442 532 334 c 0
 532 222 444 135 328 135 c 0xbe
 298 135 279 146 271 152 c 0
 268 155 259 168 259 175 c 0
 259 179 261 182 263 182 c 1x5e
 273 179 287 179 302 179 c 0
 366 179 415 233 415 316 c 0
 415 402 368 477 281 477 c 0
 263 477 238 474 234 464 c 0
 229 452 230 411 230 396 c 1
 230 396 230 130 230 130 c 2
 230 94 230 64 236 46 c 0
 240 34 290 29 302 29 c 1
 306 23 306 2 302 -4 c 1xbe
 262 -1 212 2 172 2 c 0x5e
 132 2 83 -1 43 -4 c 1
 39 2 39 23 43 29 c 1
 55 29 105 34 109 46 c 0
 115 64 116 94 116 130 c 2
 116 130 116 528 116 528 c 2
 116 564 115 594 109 612 c 0
 105 624 55 629 43 629 c 1
 39 635 39 656 43 662 c 1
 83 659 133 656 173 656 c 0x9e
EndSplineSet
Validated: 33
EndChar

StartChar: germandbls
Encoding: 223 223 157
Width: 567
Flags: W
HStem: -10 38<25.4639 88.9219 206.211 261.536 377.561 446.226> 386 44<41.2377 96> 656 40<242.406 340.864>
VStem: 96 104<36.2985 386 430 540.461> 270 80<303 384.861> 377 97<493.032 619.508> 458 80<65.5097 147.821>
LayerCount: 2
Back
Fore
SplineSet
299 696 m 0xfc
 389 696 474 649 474 562 c 0xfc
 474 513 446 482 419 458 c 0
 389 431 350 406 350 380 c 0
 350 341 410 303 448 276 c 0
 490 246 538 210 538 145 c 0
 538 55 463 -10 387 -10 c 0
 339 -10 295 8 282 25 c 1
 280 32 278 41 278 50 c 0
 279 79 292 106 319 106 c 0
 346 106 357 79 368 60 c 0
 378 43 390 28 411 28 c 0
 441 28 458 52 458 92 c 0xfa
 458 139 416 170 374 202 c 0
 327 237 270 270 270 336 c 0
 270 372 304 396 332 428 c 0
 358 457 377 486 377 537 c 0
 377 598 349 656 288 656 c 0
 224 656 200 571 200 480 c 0
 200 480 200 130 200 130 c 2
 200 94 200 64 206 46 c 0
 210 34 249 30 261 30 c 1
 265 24 265 2 261 -4 c 1
 221 -1 188 2 148 2 c 0
 108 2 66 -1 26 -4 c 1
 22 2 22 24 26 30 c 1
 38 30 86 34 90 46 c 0
 96 64 96 94 96 130 c 2
 96 130 96 342 96 386 c 1
 82 386 51 386 38 386 c 1
 34 387 33 393 33 397 c 1
 38 406 56 424 62 430 c 1
 76 430 86 430 96 430 c 1
 96 430 96 438 96 440 c 1
 96 570 207 696 299 696 c 0xfc
EndSplineSet
Validated: 33
EndChar

StartChar: ae
Encoding: 230 230 164
Width: 674
Flags: W
HStem: -8 74<439.712 555.1> -8 62<121.5 222.383> 245 38<371.806 514.129> 254 33<410.62 532.785> 404 38<160.757 265.548 413.701 503.561>
VStem: 33 109<70.8169 168.805> 47 94<293.594 362.574> 270 95<144.106 196.006 214.105 222 283.029 347.233> 533 104<287.029 371.989>
LayerCount: 2
Back
Fore
SplineSet
191 192 m 0x4d80
 159 176 142 150 142 120 c 0
 142 80 175 54 207 54 c 0
 237 54 287 79 287 103 c 1
 279 123 272 162 270 194 c 0
 269 205 270 211 270 222 c 1
 248 214 209 202 191 192 c 0x4d80
461 404 m 1
 389 404 368 300 369 283 c 1x2980
 378 283 498 285 515 287 c 0x1980
 527 287 533 295 533 307 c 1
 533 342 514 404 461 404 c 1
475 442 m 0
 601 442 637 348 637 299 c 0
 637 273 628 255 611 254 c 0x5b80
 561 250 408 246 365 245 c 1
 363 111 451 66 517 66 c 0
 573 66 611 98 628 117 c 1
 632 116 638 108 638 101 c 1
 638 95 635 86 633 82 c 0
 615 54 556 -8 470 -8 c 0xab80
 406 -8 341 18 307 70 c 1
 269 37 191 -8 157 -8 c 0
 86 -8 33 48 33 110 c 0x4d80
 33 150 59 180 83 190 c 0
 126 208 227 244 267 260 c 1
 274 264 276 270 277 278 c 0
 278 289 278 298 277 310 c 0
 272 361 240 404 198 404 c 0
 162 404 149 373 141 331 c 0
 135 303 120 286 90 286 c 0
 66 286 47 306 47 330 c 0x4b80
 47 340 51 354 57 363 c 1
 75 381 163 442 243 442 c 0
 288 442 326 418 348 384 c 1
 378 413 423 442 475 442 c 0
EndSplineSet
Validated: 33
EndChar

StartChar: eth
Encoding: 240 240 174
Width: 530
UnlinkRmOvrlpSave: 1
Flags: W
HStem: -6 38<214.39 311.791> 406 38<198.932 308.023> 664 26<92.2658 113.996>
VStem: 37 112<112.026 317.582> 363 113<134.321 343.942>
LayerCount: 2
Back
Fore
SplineSet
357 704 m 17
 363 698 382 677 376 671 c 9
 131 506 l 17
 125 512 107 533 113 539 c 9
 357 704 l 17
249 406 m 0
 173 406 149 312 149 220 c 0
 149 113 202 32 262 32 c 0
 335 32 363 120 363 214 c 0
 363 267 354 320 338 352 c 1
 318 387 290 406 249 406 c 0
247 444 m 0
 274 444 301 440 321 432 c 1
 297 500 245 598 89 664 c 1
 88 673 91 687 99 690 c 1
 177 675 288 617 366 528 c 0
 429 456 476 364 476 253 c 3
 476 96 377 -6 259 -6 c 0
 138 -6 37 74 37 214 c 0
 37 346 129 444 247 444 c 0
EndSplineSet
Validated: 37
EndChar

StartChar: ntilde
Encoding: 241 241 175
Width: 565
Flags: W
HStem: -4 33<29.75 94.7813 212.217 274.25 312.75 372.785 489.219 555.25> 368 28<29.3081 90.2402> 372 70<282.345 406.475> 504 54<313.164 403.086> 560 54<186.52 275.165>
VStem: 102 104<36.3778 342.871> 155 282 379 104<36.0252 341.83>
LayerCount: 2
Back
Fore
SplineSet
366 703 m 1048,124,-1
EndSplineSet
Refer: 229 771 N 1 0 0 1 99 -8 2
Refer: 78 110 N 1 0 0 1 -0 0 3
Validated: 1
EndChar

StartChar: divide
Encoding: 247 247 181
Width: 608
Flags: W
HStem: 4 112<259.104 348.896> 221 57<67.7222 540.713> 379 112<259.104 348.896>
VStem: 248 112<15.104 104.896 390.104 479.896>
LayerCount: 2
Back
Fore
SplineSet
248 435 m 0
 248 466 273 491 304 491 c 0
 335 491 360 466 360 435 c 0
 360 404 335 379 304 379 c 0
 273 379 248 404 248 435 c 0
248 60 m 0
 248 91 273 116 304 116 c 0
 335 116 360 91 360 60 c 0
 360 29 335 4 304 4 c 0
 273 4 248 29 248 60 c 0
70 221 m 1
 68 221 64 224 64 234 c 0
 64 238 68 268 78 278 c 1
 166 278 447 278 535 278 c 1
 540 278 544 272 544 265 c 0
 544 247 537 230 529 221 c 1
 70 221 l 1
EndSplineSet
Validated: 1
EndChar

StartChar: oslash
Encoding: 248 248 182
Width: 520
Flags: W
HStem: -7 38<216.903 321.624> 406 37<196.502 296.477>
VStem: 36 114<115.547 316.005> 369 114<122.777 319.367>
LayerCount: 2
Back
Fore
SplineSet
403 434 m 17
 409 432 433 421 431 417 c 9
 132 -18 l 17
 126 -16 102 -4 104 0 c 9
 403 434 l 17
EndSplineSet
Refer: 79 111 N 1 0 0 1 0 0 2
Validated: 37
EndChar

StartChar: thorn
Encoding: 254 254 188
Width: 515
Flags: W
HStem: -222 33<-2.8125 63.7806 180.219 246.25> -8 40<196.044 305.324> 377 66<228.503 308.872> 626 29<2.24322 61.0813> 674 20G<161 175>
VStem: 70 104<-181.975 1.99706 52.0522 365.547 384.048 618.938> 367 114<136.687 308.416>
LayerCount: 2
Back
Fore
SplineSet
292 443 m 0
 414 443 481 331 481 233 c 0
 481 92 353 -8 241 -8 c 0
 214 -8 187 0 177 2 c 1
 175 2 174 -2 174 -12 c 2
 174 -88 l 2
 174 -124 174 -154 180 -172 c 0
 184 -184 232 -189 244 -189 c 1
 248 -195 248 -216 244 -222 c 1
 204 -219 162 -216 122 -216 c 0
 81 -216 40 -219 -0 -222 c 1
 -5 -216 -5 -195 -0 -189 c 1
 12 -189 60 -184 64 -172 c 0
 71 -154 70 -124 70 -88 c 2
 70 558 l 2
 70 574 70 594 64 608 c 0
 58 621 24 626 4 626 c 1
 2 626 0 653 4 655 c 1
 85 663 150 684 172 694 c 1
 178 694 185 684 185 678 c 1
 185 678 174 632 174 584 c 1
 174 500 174 401 174 389 c 0
 174 388 174 385 175 384 c 0
 176 383 177 383 178 384 c 0
 206 410 256 443 292 443 c 0
243 377 m 0
 204 377 174 354 174 344 c 2
 174 98 l 2
 174 52 219 32 254 32 c 0
 312 32 367 99 367 197 c 0
 367 308 321 377 243 377 c 0
EndSplineSet
Validated: 33
EndChar

StartChar: gravecomb
Encoding: 768 768 190
Width: 251
GlyphClass: 4
Flags: W
HStem: 523 162
VStem: 46 170
LayerCount: 2
Back
Fore
SplineSet
46 659 m 0
 46 665 55 685 90 685 c 0
 104 685 119 681 124 676 c 0
 161 633 216 543 216 538 c 0
 216 532 209 523 202 523 c 0
 192 523 46 620 46 659 c 0
EndSplineSet
Validated: 1
EndChar

StartChar: acutecomb
Encoding: 769 769 191
Width: 237
GlyphClass: 4
Flags: W
HStem: 523 162
VStem: 38 170
LayerCount: 2
Back
Fore
SplineSet
164 685 m 0
 199 685 208 665 208 659 c 0
 208 620 62 523 52 523 c 0
 45 523 38 532 38 538 c 0
 38 544 94 634 130 676 c 0
 135 681 150 685 164 685 c 0
EndSplineSet
Validated: 1
EndChar

StartChar: uni2010
Encoding: 8208 8208 192
Width: 317
Flags: W
HStem: 196 68<38 187.957> 207 69<141.043 279>
VStem: 31 261
LayerCount: 2
Back
Fore
SplineSet
31 207 m 0x60
 31 255 40 264 43 264 c 2
 43 264 44 264 44 264 c 1xa0
 44 264 285 276 285 276 c 1
 285 276 286 276 286 276 c 2
 288 276 292 275 292 267 c 0
 292 218 279 207 279 207 c 1x60
 279 207 38 196 38 196 c 1xa0
 38 196 31 195 31 207 c 0x60
EndSplineSet
Validated: 1
EndChar

StartChar: uni2011
Encoding: 8209 8209 193
Width: 317
Flags: W
HStem: 196 68<38 187.957> 207 69<141.043 279>
VStem: 31 261
LayerCount: 2
Back
Fore
SplineSet
31 207 m 0x60
 31 255 40 264 43 264 c 2
 43 264 44 264 44 264 c 1xa0
 44 264 285 276 285 276 c 1
 285 276 286 276 286 276 c 2
 288 276 292 275 292 267 c 0
 292 218 279 207 279 207 c 1x60
 279 207 38 196 38 196 c 1xa0
 38 196 31 195 31 207 c 0x60
EndSplineSet
Validated: 1
EndChar

StartChar: figuredash
Encoding: 8210 8210 194
Width: 490
Flags: W
HStem: 197 68<35 442>
LayerCount: 2
Back
Fore
SplineSet
29 206 m 0
 29 208 32 265 43 265 c 2
 452 265 l 2
 454 265 458 264 458 257 c 0
 458 245 453 215 450 204 c 0
 448 198 442 197 442 197 c 1
 35 197 l 1
 35 197 29 196 29 206 c 0
EndSplineSet
Validated: 1
EndChar

StartChar: endash
Encoding: 8211 8211 195
Width: 559
Flags: W
HStem: 197 68<62 485>
LayerCount: 2
Back
Fore
SplineSet
56 206 m 0
 56 208 59 265 70 265 c 2
 495 265 l 2
 497 265 501 264 501 256 c 0
 501 238 493 208 492 204 c 0
 490 198 485 197 485 197 c 1
 62 197 l 1
 62 197 56 196 56 206 c 0
EndSplineSet
Validated: 1
EndChar

StartChar: emdash
Encoding: 8212 8212 196
Width: 896
Flags: W
HStem: 202 68<61 822>
LayerCount: 2
Back
Fore
SplineSet
55 211 m 0
 55 213 58 270 69 270 c 2
 832 270 l 2
 834 270 838 269 838 261 c 0
 838 243 831 213 830 209 c 0
 828 203 822 202 822 202 c 1
 61 202 l 1
 61 202 55 201 55 211 c 0
EndSplineSet
Validated: 1
EndChar

StartChar: afii00208
Encoding: 8213 8213 197
Width: 1076
Flags: W
HStem: 202 68<32 1034>
LayerCount: 2
Back
Fore
SplineSet
26 211 m 0
 26 213 29 270 40 270 c 2
 1044 270 l 1
 1045 270 1050 269 1050 261 c 0
 1050 243 1043 213 1042 209 c 0
 1040 203 1034 202 1034 202 c 1
 32 202 l 1
 32 202 26 201 26 211 c 0
EndSplineSet
Validated: 1
EndChar

StartChar: quoteleft
Encoding: 8216 8216 198
Width: 181
Flags: W
HStem: 478 228<82 149>
VStem: 39 65<541 628.65>
LayerCount: 2
Back
Fore
SplineSet
39 555 m 0
 39 649 140 706 149 706 c 0
 157 706 165 699 169 688 c 1
 109 652 104 615 104 606 c 0
 104 586 116 570 126 558 c 0
 136 546 146 537 146 524 c 0
 146 500 114 478 82 478 c 0
 75 478 62 481 54 485 c 1
 45 498 39 527 39 555 c 0
EndSplineSet
Validated: 1
EndChar

StartChar: quoteright
Encoding: 8217 8217 199
Width: 189
Flags: W
HStem: 479 228<54 120>
VStem: 98 64<556.02 644>
LayerCount: 2
Back
Fore
SplineSet
162 630 m 0
 162 536 63 479 54 479 c 0
 46 479 37 486 33 497 c 1
 93 533 98 571 98 580 c 0
 98 600 86 614 76 626 c 0
 66 638 57 647 57 660 c 0
 57 684 88 707 120 707 c 0
 127 707 140 704 148 700 c 1
 157 687 162 658 162 630 c 0
EndSplineSet
Validated: 1
EndChar

StartChar: quotesinglbase
Encoding: 8218 8218 200
Width: 195
Flags: W
HStem: -102 228<37 104>
VStem: 82 64<-25.6819 62>
LayerCount: 2
Back
Fore
SplineSet
146 48 m 0
 146 -46 46 -102 37 -102 c 0
 29 -102 20 -95 16 -84 c 1
 76 -48 82 -11 82 -2 c 0
 82 18 70 32 60 44 c 0
 50 56 40 66 40 79 c 0
 40 103 72 126 104 126 c 0
 111 126 124 122 132 118 c 1
 141 105 146 76 146 48 c 0
EndSplineSet
Validated: 1
EndChar

StartChar: quotedblleft
Encoding: 8220 8220 201
Width: 327
Flags: W
HStem: 478 228<82 149 228 294>
VStem: 39 65<541 628.65> 185 64<541 629.288>
LayerCount: 2
Back
Fore
SplineSet
185 555 m 0
 185 649 285 706 294 706 c 0
 302 706 311 699 315 688 c 1
 255 652 249 615 249 606 c 0
 249 587 258 573 268 562 c 0
 279 550 291 538 291 524 c 0
 291 500 260 478 228 478 c 0
 221 478 208 481 200 485 c 1
 191 498 185 527 185 555 c 0
39 555 m 0
 39 649 140 706 149 706 c 0
 157 706 165 699 169 688 c 1
 109 652 104 615 104 606 c 0
 104 586 115 572 125 560 c 0
 135 548 146 538 146 524 c 0
 146 500 114 478 82 478 c 0
 75 478 62 481 54 485 c 1
 45 498 39 527 39 555 c 0
EndSplineSet
Validated: 1
EndChar

StartChar: quotedblright
Encoding: 8221 8221 202
Width: 327
Flags: W
HStem: 478 228<40 106 185 252>
VStem: 85 64<554.712 643> 230 65<555.35 643>
LayerCount: 2
Back
Fore
SplineSet
149 629 m 0
 149 535 49 478 40 478 c 0
 32 478 23 485 19 496 c 1
 79 532 85 569 85 578 c 0
 85 597 76 611 66 622 c 0
 55 634 43 646 43 660 c 0
 43 684 74 706 106 706 c 0
 113 706 126 703 134 699 c 1
 143 686 149 657 149 629 c 0
295 629 m 0
 295 535 194 478 185 478 c 0
 177 478 169 485 165 496 c 1
 225 532 230 569 230 578 c 0
 230 598 219 612 209 624 c 0
 199 636 188 646 188 660 c 0
 188 684 220 706 252 706 c 0
 259 706 272 703 280 699 c 1
 289 686 295 657 295 629 c 0
EndSplineSet
Validated: 1
EndChar

StartChar: quotedblbase
Encoding: 8222 8222 203
Width: 327
Flags: W
HStem: -104 228<47 113 192 259>
VStem: 92 64<-27.2879 61> 237 65<-26.6501 61>
LayerCount: 2
Back
Fore
SplineSet
156 47 m 0
 156 -47 56 -104 47 -104 c 0
 39 -104 30 -97 26 -86 c 1
 86 -50 92 -13 92 -4 c 0
 92 15 83 29 73 40 c 0
 62 52 50 64 50 78 c 0
 50 102 81 124 113 124 c 0
 120 124 133 121 141 117 c 1
 150 104 156 75 156 47 c 0
302 47 m 0
 302 -47 201 -104 192 -104 c 0
 184 -104 176 -97 172 -86 c 1
 232 -50 237 -13 237 -4 c 0
 237 16 226 30 216 42 c 0
 206 54 195 64 195 78 c 0
 195 102 227 124 259 124 c 0
 266 124 279 121 287 117 c 1
 296 104 302 75 302 47 c 0
EndSplineSet
Validated: 1
EndChar

StartChar: dagger
Encoding: 8224 8224 204
Width: 398
Flags: W
HStem: 434 86<39.9833 103.889 292.111 356.017> 464 23<103 173.353 221.507 293> 642 20G<186.5 208.5>
VStem: 154 87<565.826 656.775> 180 34<399.96 460.293 489.268 608.061> 190 16<-15.948 86.3474>
LayerCount: 2
Back
Fore
SplineSet
152 487 m 8x68
 166 487 172 492 182 505 c 1
 182 538 173 606 154 625 c 1
 154 646 175 662 198 662 c 0
 219 662 241 646 241 625 c 1
 222 606 212 538 212 505 c 1
 222 492 231 487 244 487 c 0x70
 277 487 305 501 324 520 c 1
 345 520 362 497 362 476 c 0
 362 455 345 434 324 434 c 1xb0
 305 453 278 464 244 464 c 24
 228 464 214 448 214 436 c 1x68
 221 419 234 394 246 365 c 1
 224 227 222 178 206 -3 c 1
 204 -9 202 -15 198 -16 c 1
 194 -15 192 -7 190 -3 c 1x64
 174 178 171 227 149 365 c 1
 160 390 173 419 180 436 c 1
 180 448 168 464 152 464 c 24x68
 118 464 91 453 72 434 c 1
 51 434 34 455 34 476 c 0
 34 497 51 520 72 520 c 1xa8
 91 501 119 487 152 487 c 8x68
EndSplineSet
Validated: 1
EndChar

StartChar: daggerdbl
Encoding: 8225 8225 205
Width: 417
Flags: W
HStem: 126 86<47.9833 112.796 301.204 366.017> 159 23<111.859 183.353 230.647 302.141> 434 86<47.9833 112.796 301.204 366.017> 464 23<111.859 183.353 230.647 302.141> 642 20G<196.5 218.5>
VStem: 163 87<-10.7749 80.1742 565.826 656.775> 192 30<48.6798 155.395 187.271 238.768 407.232 458.729 490.605 597.32>
LayerCount: 2
Back
Fore
SplineSet
255 281 m 1x1a
 243 252 231 227 224 210 c 1
 224 198 236 182 252 182 c 24x5a
 286 182 315 193 334 212 c 1
 355 212 372 191 372 170 c 0
 372 149 355 126 334 126 c 1x8a
 315 145 285 159 252 159 c 0
 239 159 232 154 222 141 c 1x4a
 222 108 231 40 250 21 c 1
 250 0 229 -16 208 -16 c 0
 185 -16 163 0 163 21 c 1x4c
 182 40 192 108 192 141 c 1
 182 154 176 159 162 159 c 16x4a
 129 159 99 145 80 126 c 1
 59 126 42 149 42 170 c 0
 42 191 59 212 80 212 c 1x8a
 99 193 128 182 162 182 c 24
 178 182 190 198 190 210 c 1
 183 227 169 256 158 281 c 1
 172 295 181 312 187 324 c 1
 181 336 170 349 158 365 c 1
 169 390 183 419 190 436 c 1
 190 448 178 464 162 464 c 24x5a
 128 464 99 453 80 434 c 1
 59 434 42 455 42 476 c 0
 42 497 59 520 80 520 c 1x2a
 99 501 129 487 162 487 c 8
 176 487 182 492 192 505 c 1x1a
 192 538 182 606 163 625 c 1
 163 646 185 662 208 662 c 0
 229 662 250 646 250 625 c 1x1c
 231 606 222 538 222 505 c 1
 232 492 239 487 252 487 c 0x1a
 285 487 315 501 334 520 c 1
 355 520 372 497 372 476 c 0
 372 455 355 434 334 434 c 1x2a
 315 453 286 464 252 464 c 24
 236 464 224 448 224 436 c 1
 231 419 243 394 255 365 c 1
 243 351 232 336 226 324 c 1
 231 314 240 297 255 281 c 1x1a
EndSplineSet
Validated: 1
EndChar

StartChar: bullet
Encoding: 8226 8226 206
Width: 324
Flags: W
HStem: 139 248<92.8828 230.801>
VStem: 38 247<193.883 332.117>
LayerCount: 2
Back
Fore
SplineSet
38 263 m 0
 38 331 94 387 162 387 c 0
 230 387 285 331 285 263 c 0
 285 195 230 139 162 139 c 0
 94 139 38 195 38 263 c 0
EndSplineSet
Validated: 1
EndChar

StartChar: onedotenleader
Encoding: 8228 8228 207
Width: 854
Flags: W
HStem: -11 130<371.303 467.603>
VStem: 354 130<6.75665 102.706>
LayerCount: 2
Back
Fore
SplineSet
354 56 m 0
 354 91 384 119 420 119 c 1
 456 119 484 89 484 54 c 0
 484 19 456 -11 420 -11 c 1
 384 -11 354 20 354 56 c 0
EndSplineSet
Validated: 1
EndChar

StartChar: ellipsis
Encoding: 8230 8230 208
Width: 854
Flags: W
HStem: -11 130<63.3035 159.603 357.303 453.603 651.303 747.603>
VStem: 46 130<6.75665 102.706> 340 130<6.75665 102.706> 634 130<6.75665 102.706>
CounterMasks: 1 70
LayerCount: 2
Back
Fore
SplineSet
46 56 m 0
 46 91 76 119 112 119 c 1
 148 119 176 89 176 54 c 0
 176 19 148 -11 112 -11 c 1
 76 -11 46 20 46 56 c 0
634 56 m 0
 634 91 664 119 700 119 c 1
 736 119 764 89 764 54 c 0
 764 19 736 -11 700 -11 c 1
 664 -11 634 20 634 56 c 0
340 56 m 0
 340 91 370 119 406 119 c 1
 442 119 470 89 470 54 c 0
 470 19 442 -11 406 -11 c 1
 370 -11 340 20 340 56 c 0
EndSplineSet
Validated: 1
EndChar

StartChar: perthousand
Encoding: 8240 8240 209
Width: 1037
Flags: W
HStem: -4 28<457.649 524.409 798.649 865.409> 282 27<442.859 509.034 783.859 850.034> 331 28<162.706 231.539> 616 27<149.859 216.125>
VStem: 37 80<404.976 567.758> 262 80<406.139 570.672> 330 80<70.2255 232.248> 554 80<71.7888 237.932> 671 80<70.2255 232.248> 895 80<71.7888 237.932>
LayerCount: 2
Back
Fore
SplineSet
818 282 m 1xf9c0
 764 282 751 218 751 164 c 0
 751 100 781 24 831 24 c 1
 885 24 895 90 895 142 c 0
 895 205 869 282 818 282 c 1xf9c0
824 309 m 0
 914 309 975 240 975 154 c 0
 975 72 914 -4 824 -4 c 0
 736 -4 671 65 671 151 c 0
 671 237 736 309 824 309 c 0
184 616 m 1
 130 616 117 552 117 498 c 0
 117 434 147 359 197 359 c 1
 251 359 262 424 262 476 c 0xfdc0
 262 539 235 616 184 616 c 1
190 643 m 0
 280 643 342 574 342 488 c 0
 342 406 280 331 190 331 c 0
 102 331 37 400 37 486 c 0
 37 572 102 643 190 643 c 0
477 282 m 1
 423 282 410 218 410 164 c 0xfbc0
 410 100 440 24 490 24 c 1
 544 24 554 90 554 142 c 0
 554 205 528 282 477 282 c 1
483 309 m 0
 573 309 634 240 634 154 c 0
 634 72 573 -4 483 -4 c 0
 395 -4 330 65 330 151 c 0
 330 237 395 309 483 309 c 0
608 630 m 1
 608 630 108 -2 108 -2 c 2
 104 -8 86 -16 72 -16 c 0
 58 -16 55 -5 55 -4 c 1
 55 -4 554 628 554 628 c 1
 560 634 572 640 584 640 c 0
 603 640 604 637 608 630 c 1
EndSplineSet
Validated: 1
EndChar

StartChar: minute
Encoding: 8242 8242 210
Width: 156
Flags: W
HStem: 489 210<54.0928 65.8095>
VStem: 34 96
LayerCount: 2
Back
Fore
SplineSet
95 699 m 0
 110 699 130 691 130 671 c 0
 130 624 87 544 59 498 c 0
 55 492 50 489 46 489 c 0
 40 489 34 494 34 501 c 0
 34 504 40 612 48 666 c 0
 50 678 76 699 95 699 c 0
EndSplineSet
Validated: 1
EndChar

StartChar: second
Encoding: 8243 8243 211
Width: 285
Flags: W
HStem: 489 210<54.0928 65.8095 178.093 189.775>
VStem: 34 218
LayerCount: 2
Back
Fore
SplineSet
219 699 m 0
 234 699 252 691 252 671 c 0
 252 624 211 544 183 498 c 0
 179 492 174 489 170 489 c 0
 164 489 158 494 158 501 c 0
 158 504 164 612 172 666 c 0
 174 678 200 699 219 699 c 0
95 699 m 0
 110 699 130 691 130 671 c 0
 130 624 87 544 59 498 c 0
 55 492 50 489 46 489 c 0
 40 489 34 494 34 501 c 0
 34 504 40 612 48 666 c 0
 50 678 76 699 95 699 c 0
EndSplineSet
Validated: 1
EndChar

StartChar: uni2038
Encoding: 8248 8248 212
Width: 365
Flags: W
HStem: -57 158
VStem: 56 218
LayerCount: 2
Back
Fore
SplineSet
266 -57 m 0
 255 -57 193 -11 165 13 c 1
 137 -12 77 -57 66 -57 c 0
 60 -57 56 -41 56 -33 c 1
 63 -25 83 -5 116 37 c 0
 134 59 144 76 154 92 c 0
 158 99 160 101 165 101 c 1
 170 101 172 98 176 92 c 0
 187 76 196 59 212 39 c 0
 246 -5 270 -28 274 -33 c 1
 274 -43 272 -57 266 -57 c 0
EndSplineSet
Validated: 1
EndChar

StartChar: guilsinglleft
Encoding: 8249 8249 213
Width: 492
Flags: W
VStem: 210 240
LayerCount: 2
Back
Fore
SplineSet
210 247 m 0
 210 255 212 258 216 264 c 1
 347 343 423 421 426 423 c 1
 437 420 447 414 450 408 c 1
 445 394 351 286 309 248 c 1
 351 210 445 102 450 88 c 1
 447 82 437 75 426 72 c 1
 423 74 347 153 216 232 c 1
 213 236 210 241 210 247 c 0
EndSplineSet
Validated: 1
EndChar

StartChar: guilsinglright
Encoding: 8250 8250 214
Width: 492
Flags: W
VStem: 210 240
LayerCount: 2
Back
Fore
SplineSet
450 247 m 0
 450 241 447 236 444 232 c 1
 313 153 237 74 234 72 c 1
 223 75 213 82 210 88 c 1
 215 102 309 210 351 248 c 1
 309 286 215 394 210 408 c 1
 213 414 223 420 234 423 c 1
 237 421 313 343 444 264 c 1
 448 258 450 255 450 247 c 0
EndSplineSet
Validated: 1
EndChar

StartChar: uni203E
Encoding: 8254 8254 215
Width: 561
Flags: W
HStem: 736 68<-10 570>
LayerCount: 2
Back
Fore
SplineSet
-16 746 m 0
 -16 748 -13 804 -2 804 c 2
 580 804 l 2
 582 804 586 803 586 795 c 0
 586 777 579 748 578 744 c 0
 576 738 570 736 570 736 c 1
 -10 736 l 1
 -10 736 -16 736 -16 746 c 0
EndSplineSet
Validated: 1
EndChar

StartChar: Euro
Encoding: 8364 8364 216
Width: 671
UnlinkRmOvrlpSave: 1
Flags: W
HStem: -6 38<321.489 494.037> 244 43<19.7158 382.062> 342 43<19.7158 382.062> 603 38<307.75 484.38>
VStem: 54 125<245.933 381.699> 594 32<146.64 185.049>
LayerCount: 2
Back
Fore
SplineSet
28 287 m 1
 44 287 375 287 386 287 c 1
 400 276 382 248 376 244 c 1
 8 244 l 17
 2 250 19 287 28 287 c 1
28 385 m 1
 44 385 375 385 386 385 c 1
 400 374 382 346 376 342 c 1
 8 342 l 17
 2 348 19 385 28 385 c 1
383 641 m 0
 447 641 521 636 585 623 c 1
 586 617 613 490 613 479 c 1
 613 471 601 464 590 464 c 1
 584 464 579 465 576 469 c 1
 568 503 538 603 390 603 c 0
 251 603 179 470 179 335 c 0
 179 185 251 32 407 32 c 0
 466 32 503 51 530 75 c 0
 569 110 590 171 594 190 c 1
 607 190 622 185 626 181 c 1
 626 166 602 47 589 38 c 1
 532 12 469 -6 380 -6 c 0
 194 -6 54 134 54 310 c 0
 54 493 196 641 383 641 c 0
EndSplineSet
Validated: 37
EndChar

StartChar: partialdiff
Encoding: 8706 8706 217
Width: 489
Flags: W
HStem: 0 44<187.925 288.443> 324 45<176.302 290.582> 588 50<124.348 253.679>
VStem: 44 100<95.5192 271.199> 328 106<150.952 450.257>
LayerCount: 2
Back
Fore
SplineSet
328 218 m 1
 328 290 278 324 222 324 c 0
 170 324 144 264 144 204 c 0
 144 106 180 44 244 44 c 0
 301 44 328 124 328 218 c 1
210 0 m 0
 112 0 44 72 44 184 c 0
 44 285 125 369 238 369 c 0
 271 369 306 356 324 350 c 0
 329 348 333 356 333 362 c 1
 335 406 318 516 268 556 c 0
 238 581 210 588 182 588 c 1
 142 588 103 565 74 543 c 1
 70 547 62 562 68 572 c 0
 83 595 139 638 224 638 c 1
 379 638 434 438 434 288 c 1
 434 115 350 0 210 0 c 0
EndSplineSet
Validated: 33
EndChar

StartChar: uni2206
Encoding: 8710 8710 218
Width: 676
Flags: W
HStem: 0 68<111.911 511>
LayerCount: 2
Back
Fore
SplineSet
514 76 m 2
 320 464 l 1
 316 467 312 468 308 462 c 2
 112 80 l 1
 110 73 115 68 120 68 c 2
 511 68 l 2
 515 68 516 72 514 76 c 2
350 613 m 1
 652 14 l 1
 652 14 646 8 644 0 c 1
 33 0 l 1
 29 6 28 9 24 16 c 1
 333 613 l 1
 350 613 l 1
EndSplineSet
Validated: 1
EndChar

StartChar: gradient
Encoding: 8711 8711 219
Width: 676
Flags: W
HStem: 573 69<164 562.089>
LayerCount: 2
Back
Fore
SplineSet
161 566 m 2
 355 178 l 1
 359 175 363 174 367 180 c 2
 562 562 l 1
 564 569 560 573 555 573 c 2
 164 573 l 2
 160 573 159 570 161 566 c 2
326 28 m 1
 24 628 l 1
 24 628 30 634 32 642 c 1
 642 642 l 1
 646 636 648 633 652 626 c 1
 342 28 l 1
 326 28 l 1
EndSplineSet
Validated: 1
EndChar

StartChar: element
Encoding: 8712 8712 220
Width: 455
Flags: W
HStem: 10 54<155.854 410> 190 54<96.0044 378> 372 54<154.089 410>
VStem: 29 67<173.538 310.126>
LayerCount: 2
Back
Fore
SplineSet
386 218 m 0
 386 191 378 190 377 190 c 1
 101 190 l 2
 100 190 95 189 96 186 c 0
 108 123 155 64 222 64 c 2
 410 64 l 1
 410 64 425 59 425 24 c 0
 425 15 418 10 418 10 c 1
 224 10 l 2
 112 10 29 106 29 218 c 0
 29 327 105 426 214 426 c 2
 418 426 l 1
 418 426 425 421 425 409 c 0
 425 378 410 372 410 372 c 1
 214 372 l 2
 151 372 107 311 96 249 c 0
 96 246 98 244 101 244 c 2
 378 244 l 1
 378 243 386 235 386 218 c 0
EndSplineSet
Validated: 1
EndChar

StartChar: radical
Encoding: 8730 8730 221
Width: 515
Flags: W
LayerCount: 2
Back
Fore
SplineSet
8 159 m 1
 -6 165 -15 178 -15 186 c 0
 -15 196 -2 203 8 209 c 0
 42 231 133 296 147 308 c 0
 155 315 171 315 174 307 c 1
 183 275 192 254 198 238 c 2
 301 8 l 1
 309 51 446 791 446 791 c 1
 494 788 l 1
 494 788 343 -25 318 -153 c 1
 303 -171 283 -176 277 -176 c 0
 273 -176 269 -176 267 -172 c 2
 95 208 l 1
 8 159 l 1
EndSplineSet
Validated: 1
EndChar

StartChar: proportional
Encoding: 8733 8733 222
Width: 670
Flags: W
HStem: 39 65<178.519 303.031 601.027 660.73> 357 67<177.191 290.312 641.376 658.686>
VStem: 50 79<153.984 305.871>
LayerCount: 2
Back
Fore
SplineSet
129 229 m 0
 129 159 179 104 241 104 c 0
 307 104 359 180 393 218 c 0
 394 219 394 219 393 220 c 0
 369 252 304 357 234 357 c 0
 173 357 129 297 129 229 c 0
426 171 m 2
 425 171 l 1
 372 108 311 39 213 39 c 0
 118 39 50 128 50 223 c 0
 50 332 137 424 246 424 c 0
 343 424 414 342 455 294 c 0
 456 292 460 290 461 292 c 0
 501 343 565 418 656 424 c 1
 663 408 672 376 666 359 c 1
 658 361 649 362 641 362 c 0
 580 362 519 277 493 246 c 0
 492 245 491 245 492 244 c 0
 526 200 587 107 656 107 c 0
 658 107 666 91 664 77 c 0
 661 59 658 47 649 42 c 1
 514 30 435 171 426 171 c 2
EndSplineSet
Validated: 33
EndChar

StartChar: infinity
Encoding: 8734 8734 223
Width: 889
Flags: W
HStem: 41 66<174.282 306.106 596.214 713.612> 357 67<177.191 290.312 581.983 710.371>
VStem: 50 79<153.984 305.871> 756 80<154.613 307.016>
LayerCount: 2
Back
Fore
SplineSet
641 362 m 0
 580 362 519 277 493 246 c 0
 492 245 491 245 492 244 c 0
 526 200 587 107 656 107 c 0
 715 107 756 166 756 233 c 0
 756 304 705 362 641 362 c 0
129 229 m 0
 129 159 179 104 241 104 c 0
 307 104 359 180 393 218 c 0
 394 219 394 219 393 220 c 0
 369 252 304 357 234 357 c 0
 173 357 129 297 129 229 c 0
246 424 m 0
 343 424 414 342 455 294 c 0
 456 292 460 290 461 292 c 0
 503 345 571 424 668 424 c 0
 763 424 836 337 836 242 c 0
 836 132 746 41 636 41 c 0
 505 41 437 171 426 171 c 2
 425 171 l 1
 372 108 311 39 213 39 c 0
 118 39 50 128 50 223 c 0
 50 332 137 424 246 424 c 0
EndSplineSet
Validated: 1
EndChar

StartChar: notequal
Encoding: 8800 8800 224
Width: 572
Flags: W
HStem: 113 64<66 198 290 502> 255 64<60.0945 276 370 502>
LayerCount: 2
Back
Fore
SplineSet
370 319 m 1
 512 319 l 2
 515 319 518 320 518 314 c 0
 518 305 514 283 508 261 c 0
 506 255 502 255 502 255 c 1
 334 255 l 1
 290 177 l 1
 510 177 l 2
 514 177 518 179 518 172 c 0
 518 163 514 141 508 119 c 0
 506 113 502 113 502 113 c 1
 254 113 l 1
 200 14 l 1
 198 13 197 12 193 12 c 0
 190 12 173 16 160 32 c 0
 156 36 156 40 156 40 c 1
 198 113 l 1
 58 113 l 1
 58 113 50 113 50 123 c 0
 50 127 53 148 60 172 c 0
 62 178 66 177 66 177 c 1
 233 177 l 1
 276 255 l 1
 58 255 l 1
 58 255 50 255 50 265 c 1
 50 267 53 294 60 314 c 0
 62 318 65 319 66 319 c 1
 312 319 l 1
 364 413 l 1
 364 413 367 416 371 416 c 0
 380 416 392 410 402 398 c 0
 407 393 408 388 408 388 c 1
 370 319 l 1
EndSplineSet
Validated: 1
EndChar

StartChar: lessequal
Encoding: 8804 8804 225
Width: 516
Flags: W
HStem: 6 56<50 432>
LayerCount: 2
Back
Fore
SplineSet
432 62 m 1
 432 62 440 63 438 51 c 0
 431 3 427 9 424 6 c 1
 42 6 l 1
 42 6 32 5 34 19 c 0
 36 33 38 37 44 57 c 0
 46 63 50 62 50 62 c 1
 432 62 l 1
446 136 m 0
 446 129 436 86 430 86 c 0
 429 86 428 87 426 88 c 2
 50 279 l 2
 35 287 32 301 32 318 c 0
 32 329 40 337 50 342 c 2
 420 529 l 2
 422 530 423 531 424 531 c 0
 427 531 435 521 442 484 c 0
 443 478 438 475 438 475 c 1
 112 310 l 1
 444 142 l 1
 444 142 446 141 446 136 c 0
EndSplineSet
Validated: 1
EndChar

StartChar: greaterequal
Encoding: 8805 8805 226
Width: 515
Flags: W
HStem: 6 56<76 458>
LayerCount: 2
Back
Fore
SplineSet
72 483 m 0
 72 501 84 531 88 531 c 0
 89 531 90 530 92 529 c 2
 462 342 l 2
 472 337 480 329 480 318 c 0
 480 301 477 287 462 279 c 2
 88 88 l 2
 83 86 81 82 76 95 c 0
 70 110 66 132 66 136 c 0
 66 140 68 142 68 142 c 1
 400 310 l 1
 74 475 l 1
 74 475 72 476 72 483 c 0
70 15 m 0
 70 16 73 62 84 62 c 2
 468 62 l 2
 470 62 474 61 474 54 c 0
 474 46 471 29 466 13 c 0
 464 7 458 6 458 6 c 1
 76 6 l 1
 76 6 70 5 70 15 c 0
EndSplineSet
Validated: 1
EndChar

StartChar: dotlessi
Encoding: 305 305 227
Width: 294
Flags: W
HStem: -4 33<29.75 94.7813 212.217 274.25> 368 28<29.3081 90.2402> 424 20G<180.5 203>
VStem: 102 104<36.3778 359.638>
LayerCount: 2
Back
Fore
SplineSet
206 317 m 1
 206 130 l 2
 206 96 206 64 212 46 c 0
 216 34 260 29 272 29 c 1
 276 23 276 2 272 -4 c 1
 232 -1 193 2 153 2 c 0
 113 2 72 -1 32 -4 c 1
 28 2 28 23 32 29 c 1
 44 29 91 34 95 46 c 0
 101 64 102 94 102 130 c 2
 102 282 l 2
 102 294 101 335 95 349 c 0
 87 365 38 368 31 368 c 1
 29 370 27 394 31 396 c 1
 95 402 161 424 200 444 c 1
 206 443 214 431 214 427 c 1
 212 419 206 377 206 365 c 1
 206 354 206 320 206 317 c 1
EndSplineSet
Validated: 33
EndChar

StartChar: uni0302
Encoding: 770 770 228
Width: 365
GlyphClass: 4
Flags: W
HStem: 492 158
VStem: 56 218
LayerCount: 2
Back
Fore
SplineSet
266 492 m 0
 255 492 193 538 165 562 c 1
 137 537 77 492 66 492 c 0
 60 492 56 508 56 516 c 1
 63 524 83 544 116 586 c 0
 134 608 144 625 154 641 c 0
 158 648 160 650 165 650 c 1
 170 650 172 647 176 641 c 0
 187 625 196 608 212 588 c 0
 246 544 270 521 274 516 c 1
 274 506 272 492 266 492 c 0
EndSplineSet
Validated: 1
EndChar

StartChar: tildecomb
Encoding: 771 771 229
Width: 693
GlyphClass: 4
Flags: W
HStem: 512 54<214.164 304.086> 568 54<87.5203 176.165>
VStem: 56 282
LayerCount: 2
Back
Fore
SplineSet
138 622 m 0
 166 622 185 607 205 594 c 0
 226 580 254 566 270 566 c 0
 310 566 323 608 331 612 c 1
 337 612 338 605 338 601 c 0
 338 585 328 567 322 556 c 0
 304 528 280 512 254 512 c 0
 226 512 208 525 188 538 c 0
 167 552 142 568 122 568 c 0
 82 568 73 525 65 521 c 1
 59 521 56 530 56 534 c 0
 56 550 64 567 70 578 c 0
 88 606 112 622 138 622 c 0
EndSplineSet
Validated: 1
EndChar

StartChar: uni0304
Encoding: 772 772 230
Width: 415
GlyphClass: 4
Flags: W
HStem: 558 44<73 319.866>
VStem: 69 253<558.423 602>
LayerCount: 2
Back
Fore
SplineSet
69 567 m 0
 69 581 74 602 81 602 c 2
 316 602 l 2
 318 602 322 601 322 594 c 0
 322 578 314 567 312 558 c 1
 73 558 l 1
 73 558 69 561 69 567 c 0
EndSplineSet
Validated: 1
EndChar

StartChar: gravecomb.cap
Encoding: 65536 -1 231
Width: 245
GlyphClass: 4
Flags: W
HStem: 726 137
VStem: 27 192
LayerCount: 2
Back
Fore
SplineSet
219 743 m 0
 219 735 212 726 206 726 c 0
 190 726 27 794 27 830 c 0
 27 850 53 863 81 863 c 0
 89 863 95 862 99 860 c 0
 139 830 219 751 219 743 c 0
EndSplineSet
Validated: 1
EndChar

StartChar: acutecomb.cap
Encoding: 65537 -1 232
Width: 245
GlyphClass: 4
Flags: W
HStem: 726 137
VStem: 27 192
LayerCount: 2
Back
Fore
SplineSet
27 743 m 0
 27 751 106 830 146 860 c 0
 150 862 156 863 164 863 c 0
 192 863 219 850 219 830 c 0
 219 794 55 726 39 726 c 0
 33 726 27 735 27 743 c 0
EndSplineSet
Validated: 1
EndChar

StartChar: uni0302.cap
Encoding: 65538 -1 233
Width: 305
GlyphClass: 4
Flags: W
HStem: 715 136
VStem: 34 244
LayerCount: 2
Back
Fore
SplineSet
268 715 m 0
 256 715 187 755 156 775 c 1
 125 753 56 715 44 715 c 0
 37 715 34 728 34 734 c 1
 42 742 65 759 101 795 c 0
 121 814 134 828 144 842 c 0
 149 848 151 851 155 851 c 0
 159 851 164 847 168 842 c 0
 180 828 190 814 208 796 c 0
 246 758 274 738 278 734 c 1
 278 726 274 715 268 715 c 0
EndSplineSet
Validated: 1
EndChar

StartChar: uni030A.cap
Encoding: 65539 -1 234
Width: 381
GlyphClass: 4
Flags: W
HStem: 581 40<139.377 220.526> 730 39<139.377 220.526>
VStem: 86 40<634.349 717.162> 234 39<634.778 716.744>
LayerCount: 2
Back
Fore
SplineSet
126 676 m 0
 126 646 150 621 180 621 c 0
 210 621 234 646 234 676 c 0
 234 706 210 730 180 730 c 0
 150 730 126 706 126 676 c 0
86 676 m 0
 86 728 129 769 180 769 c 0
 231 769 273 728 273 676 c 0
 273 624 231 581 180 581 c 0
 129 581 86 624 86 676 c 0
EndSplineSet
Validated: 1
EndChar

StartChar: uni030A
Encoding: 778 778 235
Width: 362
GlyphClass: 4
Flags: W
HStem: 506 40<133.96 215.551> 655 39<134.377 215.145>
VStem: 81 40<558.742 641.555> 228 39<558.742 641.555>
LayerCount: 2
Back
Fore
SplineSet
121 600 m 0
 121 570 145 546 175 546 c 0
 205 546 228 570 228 600 c 0
 228 630 205 655 175 655 c 0
 145 655 121 630 121 600 c 0
81 600 m 0
 81 652 124 694 175 694 c 0
 226 694 267 652 267 600 c 0
 267 548 226 506 175 506 c 0
 124 506 81 548 81 600 c 0
EndSplineSet
Validated: 1
EndChar

StartChar: tildecomb.cap
Encoding: 65540 -1 236
Width: 675
GlyphClass: 4
Flags: W
HStem: 731 52<304.549 411.983> 785 51<154.017 261.206>
VStem: 118 331
LayerCount: 2
Back
Fore
SplineSet
215 836 m 0
 247 836 270 824 294 811 c 0
 319 797 348 783 366 783 c 0
 413 783 432 823 441 827 c 1
 445 827 449 819 449 815 c 0
 449 800 440 783 432 773 c 0
 410 746 382 731 351 731 c 0
 319 731 297 743 273 756 c 0
 248 770 224 785 200 785 c 0
 153 785 134 743 125 739 c 1
 121 739 118 748 118 752 c 0
 118 767 126 784 134 794 c 0
 156 821 184 836 215 836 c 0
EndSplineSet
Validated: 1
EndChar

StartChar: uni0304.cap
Encoding: 65541 -1 237
Width: 412
GlyphClass: 4
Flags: W
HStem: 652 43<63.0021 347.333>
VStem: 62 286<652.24 695>
LayerCount: 2
Back
Fore
SplineSet
62 666 m 0
 62 673 67 695 74 695 c 2
 342 695 l 2
 344 695 348 693 348 686 c 0
 348 670 345 657 341 652 c 1
 333 652 109 652 67 652 c 1
 63 654 62 660 62 666 c 0
EndSplineSet
Validated: 1
EndChar

StartChar: uni0306.cap
Encoding: 65542 -1 238
Width: 253
GlyphClass: 4
Flags: W
HStem: 615 50<62.7721 188.706>
VStem: 16 22<701.106 710.247> 212 22<700.332 710.247>
LayerCount: 2
Back
Fore
SplineSet
212 718 m 1
 220 717 234 707 234 700 c 0
 234 698 235 696 234 694 c 0
 213 644 170 615 126 615 c 0
 82 615 39 644 18 694 c 0
 17 696 16 698 16 700 c 0
 16 707 30 717 38 718 c 1
 52 689 84 665 126 665 c 0
 169 665 198 687 212 718 c 1
EndSplineSet
Validated: 1
EndChar

StartChar: uni0306
Encoding: 774 774 239
Width: 254
GlyphClass: 4
Flags: W
HStem: 515 51<69.4628 186.978>
VStem: 219 20<614.094 627.896>
LayerCount: 2
Back
Fore
SplineSet
219 635 m 1
 226 635 239 623 239 617 c 3
 239 615 239 612 238 610 c 0
 224 553 182 515 129 515 c 0
 76 515 30 553 16 610 c 0
 15 612 15 615 15 617 c 3
 15 623 27 635 34 635 c 1
 41 611 77 566 129 566 c 0
 183 566 211 611 219 635 c 1
EndSplineSet
Validated: 1
EndChar

StartChar: uni0327.cap
Encoding: 65543 -1 240
Width: 757
GlyphClass: 4
Flags: W
HStem: -170 29<170.606 254.51> -68 42<235 260.746>
VStem: 264 51<-135.774 -69.8225>
LayerCount: 2
Back
Fore
SplineSet
235 -27 m 1
 239 -27 257 -26 262 -26 c 1
 292 -26 315 -51 315 -81 c 0
 315 -133 271 -170 208 -170 c 0
 189 -170 170 -163 162 -157 c 1
 160 -153 158 -144 158 -138 c 0
 158 -131 164 -126 168 -126 c 1
 177 -127 193 -141 214 -141 c 0
 248 -141 264 -124 264 -106 c 0
 264 -84 251 -68 232 -68 c 0
 222 -68 214 -72 202 -76 c 1
 200 -76 189 -66 190 -60 c 1
 200 -43 216 -17 224 -1 c 1
 253 -1 l 1
 253 -1 237 -22 235 -27 c 1
EndSplineSet
Validated: 1
EndChar

StartChar: uni0327
Encoding: 807 807 241
Width: 464
GlyphClass: 4
Flags: W
HStem: -154 28<167.335 249.304> -64 61<205.612 243> -64 37<214.241 253.171>
VStem: 256 44<-122.385 -64.8705>
LayerCount: 2
Back
Fore
SplineSet
228 -28 m 1xd0
 228 -28 246 -27 250 -27 c 1xb0
 278 -27 300 -51 300 -77 c 0
 300 -124 260 -154 204 -154 c 0
 187 -154 169 -148 163 -142 c 1
 162 -138 160 -131 160 -126 c 0
 160 -119 167 -112 171 -112 c 0
 179 -112 195 -126 214 -126 c 0
 242 -126 256 -111 256 -95 c 0
 256 -76 243 -64 228 -64 c 0
 220 -64 210 -66 200 -70 c 0
 198 -70 186 -60 188 -56 c 0
 197 -41 210 -17 218 -3 c 1
 218 -3 244 -3 244 -3 c 1
 244 -3 228 -28 228 -28 c 1xd0
EndSplineSet
Validated: 1
EndChar

StartChar: uni0307.cap
Encoding: 65544 -1 242
Width: 297
GlyphClass: 4
Flags: W
HStem: 716 118<118.662 208.745>
VStem: 105 117<729.255 819.932>
LayerCount: 2
Back
Fore
SplineSet
105 774 m 0
 105 806 132 834 164 834 c 0
 196 834 222 806 222 774 c 0
 222 742 196 716 164 716 c 0
 132 716 105 742 105 774 c 0
EndSplineSet
Validated: 1
EndChar

StartChar: uni0305
Encoding: 773 773 243
Width: 561
GlyphClass: 4
Flags: W
HStem: 736 68<-10 570>
LayerCount: 2
Back
Fore
SplineSet
-16 746 m 0
 -16 748 -13 804 -2 804 c 2
 580 804 l 2
 582 804 586 803 586 795 c 0
 586 777 579 748 578 744 c 0
 576 738 570 736 570 736 c 1
 -10 736 l 1
 -10 736 -16 736 -16 746 c 0
EndSplineSet
Validated: 1
EndChar

StartChar: uni030B.cap
Encoding: 65545 -1 244
Width: 403
GlyphClass: 4
Flags: W
HStem: 702 136
LayerCount: 2
Back
Fore
SplineSet
342 838 m 0
 376 831 380 809 379 803 c 0
 371 765 208 700 198 702 c 0
 191 703 186 714 187 720 c 0
 188 725 262 802 306 836 c 0
 312 840 328 841 342 838 c 0
180 838 m 0
 214 831 218 809 217 803 c 0
 209 765 46 700 36 702 c 0
 29 703 24 714 25 720 c 0
 26 725 100 802 144 836 c 0
 150 840 166 841 180 838 c 0
EndSplineSet
Validated: 33
EndChar

StartChar: uni0308.cap
Encoding: 65546 -1 245
Width: 392
GlyphClass: 4
Flags: W
HStem: 742 116<41.7644 134.236 255.255 346.338>
VStem: 29 118<755.255 844.745> 242 118<755.255 844.745>
LayerCount: 2
Back
Fore
SplineSet
301 858 m 1
 333 858 360 832 360 800 c 1
 360 768 332 742 300 742 c 1
 268 742 242 768 242 800 c 1
 242 832 269 858 301 858 c 1
88 858 m 1
 120 858 147 832 147 800 c 1
 147 768 120 742 88 742 c 1
 56 742 29 768 29 800 c 1
 29 832 56 858 88 858 c 1
EndSplineSet
Validated: 1
EndChar

StartChar: uni0308
Encoding: 776 776 246
Width: 354
GlyphClass: 4
Flags: W
HStem: 468 116<35.7644 127.003 222.255 312.152>
VStem: 23 116<481.255 570.745> 209 116<480.381 570.745>
LayerCount: 2
Back
Fore
SplineSet
268 584 m 0
 300 584 325 558 325 526 c 0
 325 494 299 468 267 468 c 0
 235 468 209 494 209 526 c 0
 209 558 236 584 268 584 c 0
82 584 m 0
 114 584 139 558 139 526 c 0
 139 494 114 468 82 468 c 0
 50 468 23 494 23 526 c 0
 23 558 50 584 82 584 c 0
EndSplineSet
Validated: 1
EndChar

StartChar: uni0308.narrow
Encoding: 65547 -1 247
Width: 349
GlyphClass: 4
Flags: W
HStem: 505 118<40.4751 131.932 222.068 313.525>
VStem: 26 120<518.662 608.416> 208 120<519.584 609.338>
LayerCount: 2
Back
Fore
SplineSet
268 623 m 0
 300 623 328 596 328 564 c 0
 328 532 299 505 267 505 c 0
 235 505 208 532 208 564 c 0
 208 596 236 623 268 623 c 0
87 623 m 0
 119 623 146 596 146 564 c 0
 146 532 118 505 86 505 c 0
 54 505 26 532 26 564 c 0
 26 596 55 623 87 623 c 0
EndSplineSet
Validated: 1
EndChar

StartChar: uni0307
Encoding: 775 775 248
Width: 297
GlyphClass: 4
Flags: W
HStem: 508 118<94.6616 184.745>
VStem: 81 117<521.662 612.338>
LayerCount: 2
Back
Fore
SplineSet
81 567 m 0
 81 599 108 626 140 626 c 0
 172 626 198 599 198 567 c 0
 198 535 172 508 140 508 c 0
 108 508 81 535 81 567 c 0
EndSplineSet
Validated: 1
EndChar

StartChar: hookabovecomb
Encoding: 777 777 249
Width: 181
GlyphClass: 4
Flags: W
HStem: 631 34<76.1773 127.045>
VStem: 18 54<575.479 628.564> 52 45<489.1 536.256> 130 48<565.744 630.184>
LayerCount: 2
Back
Fore
SplineSet
116 665 m 0xd0
 154 665 178 642 178 610 c 0
 178 575 152 550 127 540 c 0
 107 532 97 526 97 514 c 1
 97 509 100 503 102 500 c 1
 102 496 84 489 74 489 c 1
 68 491 52 502 52 514 c 1
 52 540 81 552 97 560 c 0xb0
 119 570 130 582 130 600 c 0
 130 614 124 631 104 631 c 0
 82 631 72 618 72 595 c 0
 72 579 50 574 37 574 c 0
 29 574 18 579 18 587 c 0
 18 629 70 665 116 665 c 0xd0
EndSplineSet
Validated: 1
EndChar

StartChar: uni030B
Encoding: 779 779 250
Width: 374
GlyphClass: 4
Flags: W
HStem: 524 162<178 195>
VStem: 38 304
LayerCount: 2
Back
Fore
SplineSet
298 686 m 0
 333 686 342 666 342 660 c 0
 342 621 195 524 185 524 c 0
 178 524 170 534 170 540 c 0
 170 546 228 636 264 678 c 0
 269 683 284 686 298 686 c 0
164 686 m 0
 199 686 208 666 208 660 c 0
 208 621 62 524 52 524 c 0
 45 524 38 534 38 540 c 0
 38 546 94 636 130 678 c 0
 135 683 150 686 164 686 c 0
EndSplineSet
Validated: 1
EndChar

StartChar: uni030C
Encoding: 780 780 251
Width: 365
GlyphClass: 4
Flags: W
HStem: 493 158
VStem: 56 218
LayerCount: 2
Back
Fore
SplineSet
165 581 m 1
 193 605 255 651 266 651 c 0
 272 651 274 638 274 628 c 1
 270 623 246 600 212 556 c 0
 196 536 187 518 176 502 c 0
 172 496 171 493 166 493 c 1
 162 493 158 495 154 502 c 0
 144 518 134 535 116 557 c 0
 83 599 63 620 56 628 c 1
 56 636 60 651 66 651 c 0
 77 651 137 606 165 581 c 1
EndSplineSet
Validated: 1
EndChar

StartChar: uni0312
Encoding: 786 786 253
Width: 222
GlyphClass: 4
Flags: W
HStem: 478 174
VStem: 19 77<519 586.808>
LayerCount: 2
Back
Fore
SplineSet
84 478 m 0
 66 475 42 481 32 486 c 1
 24 495 19 512 19 526 c 0
 19 585 78 632 134 652 c 1
 142 651 153 644 153 640 c 1
 137 632 96 606 96 578 c 0
 96 560 140 558 140 523 c 0
 140 509 126 486 84 478 c 0
EndSplineSet
Validated: 33
EndChar

StartChar: uni0326
Encoding: 806 806 254
Width: 222
GlyphClass: 4
Flags: W
HStem: -220 174
VStem: 78 76<-154.45 -86>
LayerCount: 2
Back
Fore
SplineSet
89 -46 m 0
 107 -43 132 -48 142 -53 c 1
 150 -62 154 -79 154 -93 c 0
 154 -152 96 -200 40 -220 c 1
 32 -219 20 -211 20 -207 c 1
 36 -199 78 -174 78 -146 c 0
 78 -128 34 -125 34 -90 c 0
 34 -76 47 -54 89 -46 c 0
EndSplineSet
Validated: 33
EndChar

StartChar: uni0315
Encoding: 789 789 255
Width: 216
GlyphClass: 4
Flags: W
HStem: 459 211
VStem: 118 66<533.807 625.5>
LayerCount: 2
Back
Fore
SplineSet
143 670 m 0
 151 670 161 667 168 664 c 1
 175 654 184 642 184 609 c 0
 184 559 150 503 104 459 c 1
 97 459 83 465 83 470 c 1
 104 493 118 520 118 550 c 0
 118 597 86 594 86 628 c 0
 86 646 108 670 143 670 c 0
EndSplineSet
Validated: 1
EndChar

StartChar: dotbelowcomb
Encoding: 803 803 256
Width: 296
GlyphClass: 4
Flags: W
HStem: -162 124<104.2 197.8>
VStem: 89 124<-146.8 -53.2003>
LayerCount: 2
Back
Fore
SplineSet
89 -100 m 0
 89 -66 117 -38 151 -38 c 0
 185 -38 213 -66 213 -100 c 0
 213 -134 185 -162 151 -162 c 0
 117 -162 89 -134 89 -100 c 0
EndSplineSet
Validated: 1
EndChar

StartChar: uni0237
Encoding: 567 567 359
Width: 257
Flags: W
HStem: 368 28<14.5928 73.77> 424 20G<166.5 189>
VStem: 87 104<-43.2009 359.638>
LayerCount: 2
Back
Fore
SplineSet
-17 -202 m 1
 13 -180 87 -132 87 54 c 2
 87 282 l 2
 87 294 86 335 80 349 c 0
 72 365 23 368 16 368 c 1
 14 370 13 394 17 396 c 1
 81 402 147 424 186 444 c 1
 192 443 200 431 200 427 c 1
 198 419 191 379 191 365 c 1
 191 354 191 319 191 316 c 1
 191 94 l 1
 191 -44 136 -128 82 -172 c 0
 50 -198 4 -217 -11 -217 c 1
 -15 -214 -17 -206 -17 -202 c 1
EndSplineSet
Validated: 1
EndChar

StartChar: Aogonek
Encoding: 260 260 361
Width: 653
Flags: W
HStem: -221 64<488.571 554.297> -4 21G<-11 11> 3 27<139.518 201.125 397.188 455.525 606.719 655.472> 238 48<207 378.999> 642 20G<330 338>
VStem: 419 64<-151.708 -84.9346>
LayerCount: 2
Back
Fore
SplineSet
295 506 m 1x9c
 295 506 207 290 207 290 c 1
 207 290 207 286 209 286 c 0
 232 284 271 283 294 283 c 0
 325 283 345 284 376 286 c 0
 378 286 379 291 379 291 c 1
 379 291 295 506 295 506 c 1x9c
655 -4 m 1xdc
 642 -3 631 -2 616 -1 c 0
 550 4 483 -68 483 -112 c 0
 483 -130 492 -157 528 -157 c 0
 568 -157 598 -122 606 -118 c 0
 608 -118 611 -122 611 -130 c 0
 611 -135 608 -148 605 -152 c 0
 587 -176 541 -221 491 -221 c 0
 447 -221 419 -184 419 -144 c 0
 419 -92 484 -26 538 3 c 1
 536 3 535 3 533 3 c 0xbc
 487 3 441 -2 400 -4 c 1xdc
 395 1 395 28 400 30 c 1
 414 30 446 35 458 45 c 0
 462 49 464 54 464 60 c 0
 464 80 401 234 401 234 c 1
 401 234 398 238 395 238 c 0
 363 240 321 238 296 238 c 0
 255 238 232 238 192 236 c 0
 190 236 186 233 186 232 c 2
 186 232 159 168 145 130 c 0
 134 100 127 70 127 60 c 0
 127 35 191 30 199 30 c 1xbc
 203 25 202 1 200 -4 c 1xdc
 162 -1 142 3 98 3 c 0xbc
 52 3 31 -1 -9 -4 c 1xdc
 -13 0 -13 20 -10 29 c 1
 2 29 44 40 54 54 c 0
 72 81 82 104 95 136 c 2
 95 136 268 551 298 629 c 0
 304 643 325 662 335 662 c 0
 341 662 347 660 349 658 c 1
 349 658 553 137 553 137 c 2
 566 103 575 80 580 68 c 0
 594 36 645 30 653 30 c 1xbc
 658 22 657 0 655 -4 c 1xdc
EndSplineSet
Validated: 33
EndChar

StartChar: aogonek
Encoding: 261 261 362
Width: 452
Flags: W
HStem: -218 64<273.806 339.297> -8 62<121.5 218.679> 404 38<161.586 279>
VStem: 33 109<70.8169 168.107> 47 94<294.202 362.528> 204 64<-148.127 -79.6663> 271 103<65.8703 223 257.281 374.655>
LayerCount: 2
Back
Fore
SplineSet
433 39 m 1xee
 425 32 405 16 385 6 c 0
 331 -22 268 -64 268 -108 c 0
 268 -126 277 -154 313 -154 c 0
 353 -154 383 -119 391 -115 c 0
 393 -115 396 -119 396 -127 c 0
 396 -132 393 -144 390 -148 c 0
 372 -172 326 -218 276 -218 c 0
 232 -218 204 -180 204 -140 c 0
 204 -87 264 -28 319 0 c 1
 298 10 280 32 275 52 c 1
 265 42 193 -8 157 -8 c 0
 86 -8 33 48 33 110 c 0xf6
 33 150 61 182 85 190 c 0
 132 206 225 241 265 257 c 1
 270 263 271 268 271 280 c 2
 271 280 271 306 271 306 c 2
 271 354 240 404 198 404 c 0
 162 404 149 374 141 332 c 0
 135 304 120 286 90 286 c 0
 66 286 47 306 47 330 c 0
 47 338 51 353 57 363 c 1
 79 384 164 442 244 442 c 0
 314 442 374 382 374 298 c 2
 374 298 374 101 374 101 c 2
 374 74 383 57 401 57 c 0
 417 57 428 66 432 68 c 1
 436 67 437 60 437 56 c 0
 437 50 436 44 433 39 c 1xee
207 54 m 0
 237 54 271 77 271 85 c 2
 271 85 271 223 271 223 c 1
 247 214 210 202 191 192 c 0
 159 176 142 150 142 120 c 0
 143 80 175 54 207 54 c 0
EndSplineSet
Validated: 1
EndChar

StartChar: dcroat
Encoding: 273 273 363
Width: 533
Flags: W
HStem: -8 63<209.43 293.851> 24 30<459.609 511.881> 396 46<198.629 327.191> 526 36<199.405 505.209> 626 29<278.243 337.081> 674 20<437 451>
VStem: 36 113<127.946 293.991> 346 104<70.7694 375.829 436.009 617.957>
LayerCount: 2
Back
Fore
SplineSet
204 562 m 1x3f
 233 562 487 562 501 562 c 1
 504 562 506 558 506 554 c 1
 506 547 504 533 501 526 c 1
 472 526 218 526 204 526 c 1
 201 526 199 532 199 536 c 1
 199 543 200 556 204 562 c 1x3f
EndSplineSet
Refer: 68 100 N 1 0 0 1 0 0 2
Validated: 5
EndChar

StartChar: Eogonek
Encoding: 280 280 364
Width: 596
Flags: W
HStem: -221 64<398.571 464.297> -3 33<40.75 108.999> -1 41<236.479 442.426> 311 42<230 391.416> 620 44<283.25 445.413> 620 36<232.227 375.5> 628 33<40.75 108.999>
VStem: 116 114<54.5915 308.954 353.879 617.054> 329 64<-151.708 -83.6896> 424 32<378.533 431.896> 490 36<517.121 564.804>
LayerCount: 2
Back
Fore
SplineSet
173 656 m 0x95e0
 241 656 413 664 497 664 c 1
 504 614 517 567 526 522 c 1
 523 519 512 517 505 517 c 0
 498 517 492 519 490 524 c 0
 468 592 435 620 378 620 c 2
 378 620 294 620 294 620 c 2
 276 620 238 619 234 609 c 0
 229 595 230 571 230 543 c 2
 230 543 230 362 230 362 c 2
 230 356 250 353 272 353 c 2
 272 353 325 353 325 353 c 2
 403 353 408 362 424 424 c 0
 425 429 431 432 438 432 c 0
 445 432 453 429 456 426 c 1
 456 426 456 236 456 236 c 1
 454 234 446 232 439 232 c 0
 432 232 426 235 424 240 c 0
 410 292 401 299 392 304 c 0
 380 310 339 311 301 311 c 0
 273 311 230 310 230 300 c 2
 230 300 230 128 230 128 c 2
 230 118 229 66 236 54 c 0
 246 42 270 40 304 40 c 2
 304 40 361 40 361 40 c 2xb9e0
 403 40 445 48 471 68 c 0
 497 88 513 122 529 166 c 0
 530 170 536 172 543 172 c 0
 553 172 568 169 571 166 c 1
 552 112 524 41 517 -3 c 1
 463 -9 393 -68 393 -112 c 0
 393 -130 402 -157 438 -157 c 0
 478 -157 508 -122 516 -118 c 1
 518 -118 521 -122 521 -130 c 0
 521 -135 518 -148 515 -152 c 0
 497 -176 451 -221 401 -221 c 0
 357 -221 329 -184 329 -144 c 0
 329 -91 389 -31 444 -3 c 1xd1e0
 365 -2 264 -1 167 -1 c 0xb1e0
 111 -1 69 -3 43 -3 c 1
 39 3 39 24 43 30 c 1
 55 30 105 34 109 46 c 0
 115 64 116 94 116 130 c 2
 116 130 116 528 116 528 c 2
 116 564 115 594 109 612 c 0
 105 624 55 628 43 628 c 1
 39 634 39 655 43 661 c 1xd3e0
 86 659 133 656 173 656 c 0x95e0
EndSplineSet
Validated: 33
EndChar

StartChar: eogonek
Encoding: 281 281 365
Width: 446
Flags: W
HStem: -221 64<268.24 334.297> -8 74<210.36 311.683> 245 38<142.806 285.129> 254 33<181.759 303.785> 404 38<186.81 274.561>
VStem: 36 100<144.973 245 283 298.022> 198 64<-151.708 -72.2279> 304 104<287.029 371.989>
LayerCount: 2
Back
Fore
SplineSet
356 31 m 0xef
 295 -18 262 -61 262 -112 c 0
 262 -130 272 -157 308 -157 c 0
 348 -157 378 -122 386 -118 c 1
 388 -118 390 -122 390 -130 c 0
 390 -135 388 -148 385 -152 c 0
 367 -176 321 -221 271 -221 c 0
 227 -221 198 -184 198 -144 c 0
 198 -96 236 -39 271 -6 c 1
 262 -8 252 -8 242 -8 c 0
 127 -8 36 76 36 200 c 0
 36 330 144 442 246 442 c 0
 372 442 408 348 408 299 c 0
 408 273 400 255 383 254 c 0xdf
 333 250 179 246 136 245 c 1
 134 111 222 66 288 66 c 0
 344 66 383 98 400 117 c 1
 404 116 410 108 410 101 c 0
 410 95 407 86 405 82 c 0
 397 69 379 49 356 31 c 0xef
140 283 m 1xef
 149 283 269 285 286 287 c 0xdf
 298 287 304 295 304 307 c 0
 304 342 285 404 232 404 c 0
 160 404 139 300 140 283 c 1xef
EndSplineSet
Validated: 33
EndChar

StartChar: Hbar
Encoding: 294 294 366
Width: 736
Flags: W
HStem: -4 34<40.75 108.493 236.507 304.25 431.75 499.493 627.507 695.25> 321 41<231 505> 488 38<46.3369 677.828> 628 34<40.75 108.493 236.507 304.25 431.75 499.493 627.507 695.25>
VStem: 116 114<38.5078 313 365.001 619.492> 507 114<38.5078 317.999 365.001 619.492>
LayerCount: 2
Back
Fore
SplineSet
676 488 m 1
 647 488 62 488 48 488 c 1
 44 488 43 517 49 526 c 1
 78 526 662 526 676 526 c 1
 680 526 680 497 676 488 c 1
EndSplineSet
Refer: 40 72 N 1 0 0 1 0 0 2
Validated: 37
EndChar

StartChar: hbar
Encoding: 295 295 367
Width: 553
Flags: W
HStem: -4 33<17.75 82.7813 200.217 262.25 300.75 360.785 477.219 543.25> 372 70<269.186 394.475> 526 36<27.4046 333.209> 626 29<21.6549 81.048> 674 20<180 194>
VStem: 90 104<36.3778 342.871 364.001 618.938> 367 104<36.0252 341.83>
LayerCount: 2
Back
Fore
SplineSet
32 562 m 1
 61 562 315 562 329 562 c 1
 332 562 334 558 334 554 c 1
 334 547 332 533 329 526 c 1
 300 526 46 526 32 526 c 1
 29 526 27 532 27 536 c 1
 27 543 28 556 32 562 c 1
EndSplineSet
Refer: 72 104 N 1 0 0 1 -0 0 2
Validated: 5
EndChar

StartChar: Iogonek
Encoding: 302 302 368
Width: 345
Flags: W
HStem: -221 64<155.571 221.297> -4 33<40.75 108.779 236.221 304.25> 629 33<40.75 108.779 236.221 304.25>
VStem: 86 64<-151.708 -73.9957> 116 114<36.7397 621.26>
LayerCount: 2
Back
Fore
SplineSet
173 656 m 0xe8
 213 656 262 659 302 662 c 1
 306 656 306 635 302 629 c 1
 290 629 240 624 236 612 c 0
 230 594 230 564 230 528 c 2
 230 528 230 130 230 130 c 2xe8
 230 94 230 64 236 46 c 0
 240 34 290 29 302 29 c 1
 306 23 306 2 302 -4 c 1
 274 -2 241 1 210 2 c 1
 171 -36 150 -71 150 -112 c 0
 150 -130 159 -157 195 -157 c 0
 235 -157 265 -122 273 -118 c 0
 275 -118 278 -122 278 -130 c 0
 278 -135 275 -148 272 -152 c 0
 254 -176 208 -221 158 -221 c 0
 114 -221 86 -184 86 -144 c 0xf0
 86 -99 129 -33 163 2 c 1
 124 2 80 -1 43 -4 c 1
 39 2 39 23 43 29 c 1
 55 29 105 34 109 46 c 0
 115 64 116 94 116 130 c 2
 116 130 116 528 116 528 c 2
 116 564 115 594 109 612 c 0
 105 624 55 629 43 629 c 1
 39 635 39 656 43 662 c 1
 83 659 133 656 173 656 c 0xe8
EndSplineSet
Validated: 33
EndChar

StartChar: iogonek
Encoding: 303 303 369
Width: 294
Flags: W
HStem: -221 64<135.571 201.297> -4 33<29.75 94.7813 212.217 274.25> 365 28<29.3081 90.2402> 421 20G<180.5 203> 544 122<98.7704 191.8>
VStem: 66 64<-151.708 -74.7875> 84 123<558.34 650.8> 102 104<36.3778 356.638>
LayerCount: 2
Back
Fore
SplineSet
84 604 m 0xfa
 84 638 111 666 145 666 c 0
 179 666 207 638 207 604 c 0
 207 570 179 544 145 544 c 0
 111 544 84 570 84 604 c 0xfa
206 317 m 2xf9
 206 317 206 130 206 130 c 2xf9
 206 96 206 64 212 46 c 0
 216 34 260 29 272 29 c 1
 276 23 276 2 272 -4 c 1
 244 -2 217 1 190 2 c 1
 151 -35 130 -71 130 -112 c 0
 130 -130 139 -157 175 -157 c 0
 215 -157 245 -122 253 -118 c 0
 255 -118 258 -122 258 -130 c 0
 258 -135 255 -148 252 -152 c 0
 234 -176 188 -221 138 -221 c 0
 94 -221 66 -184 66 -144 c 0xfc
 66 -99 109 -33 143 2 c 1
 106 2 69 -1 32 -4 c 1
 28 2 28 23 32 29 c 1
 44 29 91 34 95 46 c 0
 102 64 102 94 102 130 c 2
 102 130 102 279 102 279 c 2
 102 291 102 332 95 346 c 0
 87 362 38 365 31 365 c 1
 29 367 27 391 31 393 c 1
 95 399 161 421 200 441 c 1
 206 440 214 428 214 424 c 1
 212 416 207 377 206 365 c 0
 206 354 206 320 206 317 c 2xf9
EndSplineSet
Validated: 33
EndChar

StartChar: kgreenlandic
Encoding: 312 312 372
Width: 567
Flags: W
HStem: -4 33<31.1719 95.7813 213.219 277.828 497.71 563.418> 4 27<501.154 565.204> 368 28<29.5928 88.5579> 400 32<316.515 373.264 464.781 534.903> 424 20G<180.5 203>
VStem: 102 104<36.3778 202 236 359.638>
LayerCount: 2
Back
Fore
SplineSet
103 130 m 2xa4
 103 130 102 282 102 282 c 2
 102 293 101 335 95 349 c 0
 87 365 38 368 31 368 c 1
 29 370 28 394 32 396 c 1
 96 402 161 424 200 444 c 1xac
 206 443 214 431 214 427 c 1
 212 419 206 377 206 365 c 1
 206 354 206 320 206 317 c 1
 206 317 206 236 206 236 c 1
 223 242 250 262 284 292 c 0
 345 344 374 369 374 381 c 0
 374 395 332 399 318 400 c 1
 314 408 315 430 320 432 c 1
 334 430 397 428 434 428 c 0
 469 428 499 430 533 432 c 1
 538 424 536 404 532 400 c 1
 510 398 468 390 444 374 c 0
 428 362 357 304 297 252 c 1
 370 170 418 118 458 76 c 0
 498 35 534 31 563 31 c 1
 567 24 566 8 564 4 c 1x74
 552 0 513 -5 481 -5 c 0
 423 -5 373 20 351 46 c 2
 351 46 273 130 220 192 c 0
 216 198 207 202 207 202 c 1
 207 202 207 130 207 130 c 2
 207 94 207 64 213 46 c 0
 217 34 264 29 276 29 c 1
 280 23 280 2 276 -4 c 1
 236 -1 194 2 154 2 c 0
 114 2 73 -1 33 -4 c 1
 29 2 29 23 33 29 c 1
 45 29 92 34 96 46 c 0
 103 64 103 94 103 130 c 2xa4
EndSplineSet
Validated: 33
EndChar

StartChar: Lslash
Encoding: 321 321 373
Width: 575
Flags: W
HStem: -3 33<44.75 112.999> -1 41<240.479 463.191> 629 33<44.75 112.779 240.221 308.25>
VStem: 120 114<54.5929 621.26>
LayerCount: 2
Back
Fore
SplineSet
52 177 m 1x30
 46 183 31 203 35 207 c 1
 35 207 396 461 396 461 c 1
 402 455 418 436 414 432 c 1
 414 432 52 177 52 177 c 1x30
EndSplineSet
Refer: 44 76 N 1 0 0 1 4 0 2
Validated: 37
EndChar

StartChar: lslash
Encoding: 322 322 374
Width: 280
Flags: W
HStem: -4 33<17.75 82.7813 200.219 265.25> 626 29<21.6549 81.048> 674 20<180 194>
VStem: 18 259 90 104<36.3778 618.938>
LayerCount: 2
Back
Fore
SplineSet
34 235 m 1xf0
 28 241 14 261 18 265 c 1
 18 265 259 433 259 433 c 1
 265 427 281 408 277 404 c 1
 277 404 34 235 34 235 c 1xf0
EndSplineSet
Refer: 76 108 N 1 0 0 1 0 0 2
Validated: 37
EndChar

StartChar: Eng
Encoding: 330 330 375
Width: 768
Flags: W
HStem: -222 54<377 492.17> -4 33<33.9492 107.888 200.592 272.873> 630 33<37.1719 107.906 506.381 582.213 667.367 745.618>
VStem: 126 55<44.3074 543.172> 598 54<207 617.106>
LayerCount: 2
Back
Fore
SplineSet
652 130 m 2
 652 -87 551 -222 387 -222 c 0
 367 -222 337 -212 327 -204 c 1
 321 -196 315 -186 315 -172 c 0
 315 -140 338 -110 370 -110 c 0
 390 -110 407 -126 422 -141 c 0
 436 -155 452 -168 466 -168 c 0
 509 -168 561 -88 572 56 c 1
 181 544 l 1
 181 136 l 2
 181 100 183 68 191 53 c 0
 197 39 258 30 270 30 c 1
 276 22 274 2 272 -4 c 1
 232 -2 196 3 152 3 c 0
 106 3 82 -2 36 -4 c 1
 32 3 32 23 36 29 c 1
 48 29 107 37 115 52 c 0
 123 67 126 99 126 137 c 0
 126 203 126 465 126 531 c 0
 126 564 123 593 112 610 c 0
 104 622 52 630 40 630 c 1
 35 636 35 658 39 663 c 1
 77 661 108 658 148 658 c 0
 180 658 217 660 240 662 c 1
 284 583 480 361 597 207 c 1
 598 211 598 249 598 256 c 2
 598 510 l 2
 598 547 595 593 587 609 c 0
 580 623 523 630 509 630 c 1
 505 634 504 655 508 663 c 1
 551 661 581 656 626 656 c 0
 671 656 701 661 744 663 c 1
 746 657 749 640 743 630 c 1
 733 630 670 624 662 608 c 0
 655 594 652 550 652 512 c 2
 652 130 l 2
EndSplineSet
Validated: 33
EndChar

StartChar: eng
Encoding: 331 331 376
Width: 549
Flags: W
HStem: -4 33<29.75 94.7813 212.217 274.25> 368 28<29.3081 90.2402> 372 70<282.345 406.475>
VStem: 102 104<36.3778 342.871> 379 104<-40.9089 341.83>
LayerCount: 2
Back
Fore
SplineSet
379 57 m 2xb8
 379 57 379 220 379 220 c 2
 379 318 363 372 297 372 c 0xb8
 259 372 206 331 206 317 c 2
 206 317 206 130 206 130 c 2
 206 96 206 64 212 46 c 0
 216 34 260 29 272 29 c 1
 276 23 276 2 272 -4 c 1
 232 -1 193 2 153 2 c 0
 112 2 72 -1 32 -4 c 1
 28 2 28 23 32 29 c 1
 44 29 91 34 95 46 c 0
 102 64 102 94 102 130 c 2
 102 130 102 282 102 282 c 2
 102 294 102 335 95 349 c 0
 87 365 38 368 31 368 c 1
 29 370 27 394 31 396 c 1
 95 402 161 424 200 444 c 1
 206 444 214 432 214 427 c 1
 212 419 206 374 206 370 c 0
 206 368 206 364 208 364 c 1
 210 364 211 366 213 368 c 0xd8
 237 395 303 442 350 442 c 0
 461 442 483 370 483 218 c 2
 483 218 483 94 483 94 c 1
 483 -44 428 -128 374 -172 c 0
 342 -198 297 -217 282 -217 c 1
 278 -214 275 -206 275 -202 c 1
 305 -180 379 -130 379 57 c 2xb8
EndSplineSet
Validated: 33
EndChar

StartChar: OE
Encoding: 338 338 377
Width: 1016
Flags: W
HStem: -1 40<299.345 503.619 657.479 874.45> 311 42<650 812.416> 620 36<653.173 795.5> 626 39<278.713 467.628 708.851 853.686>
VStem: 45 125<212.44 445.262> 536 114<69.2203 308.954 353.969 570.213> 845 32<378.533 431.825> 911 36<517.204 564.804>
LayerCount: 2
Back
Fore
SplineSet
593 656 m 0xef
 661 656 833 664 917 664 c 1
 924 614 938 567 947 522 c 1
 944 519 932 517 925 517 c 0
 918 517 913 519 911 524 c 0
 889 592 856 620 799 620 c 2
 799 620 714 620 714 620 c 0xef
 696 620 659 619 655 609 c 0
 650 595 650 571 650 543 c 2
 650 543 650 362 650 362 c 2
 650 356 671 353 693 353 c 2
 693 353 745 353 745 353 c 2
 823 353 829 362 845 424 c 0
 846 429 851 432 858 432 c 0
 865 432 874 429 877 426 c 1
 877 426 877 236 877 236 c 1
 875 234 866 232 859 232 c 0
 852 232 846 235 844 240 c 0
 830 292 822 299 813 304 c 0
 801 310 759 311 721 311 c 0
 693 311 650 310 650 300 c 2
 650 300 650 128 650 128 c 2
 650 118 650 66 657 54 c 0
 667 42 691 39 725 39 c 1
 725 39 781 39 781 39 c 2
 819 39 865 49 891 68 c 0
 911 84 933 117 949 166 c 0
 950 170 956 172 963 172 c 0
 973 172 988 169 991 166 c 1
 972 112 944 41 937 -3 c 1
 869 -3 725 -1 591 -1 c 0
 534 -1 484 -2 463 -3 c 1
 445 -3 471 -5 371 -5 c 0
 195 -5 45 141 45 328 c 0
 45 515 201 665 373 665 c 0xdf
 435 665 539 656 593 656 c 0xef
354 626 m 0xdf
 222 626 170 484 170 356 c 1
 170 202 241 32 393 32 c 1
 437 32 492 39 513 68 c 0
 532 94 536 122 536 170 c 2
 536 170 536 484 536 484 c 2
 536 523 528 560 502 584 c 0
 474 611 428 626 354 626 c 0xdf
EndSplineSet
Validated: 1
EndChar

StartChar: oe
Encoding: 339 339 378
Width: 781
Flags: W
HStem: -8 74<544.665 662.1> -7 38<216.903 322.134> 245 38<478.806 621.129> 254 33<516.541 639.785> 404 38<195.347 301.738 520.65 610.561>
VStem: 36 114<115.547 316.005> 369 104<144.353 244.551> 640 104<287.029 371.989>
LayerCount: 2
Back
Fore
SplineSet
568 404 m 1x1f
 496 404 475 300 476 283 c 1x2f
 485 283 605 285 622 287 c 0
 634 287 640 295 640 307 c 1
 640 342 621 404 568 404 c 1x1f
248 406 m 1
 169 406 150 315 150 235 c 1
 150 143 188 31 270 31 c 1x4f
 349 31 369 122 369 200 c 1
 369 293 329 406 248 406 c 1
624 66 m 0xaf
 680 66 718 98 735 117 c 1
 739 116 745 108 745 101 c 1
 745 95 742 86 740 82 c 0
 722 54 663 -8 577 -8 c 0xaf
 513 -8 457 19 420 64 c 1
 381 21 324 -7 260 -7 c 0
 124 -7 36 89 36 215 c 0
 36 343 132 443 258 443 c 0
 334 443 395 413 434 364 c 1
 474 412 530 442 582 442 c 0
 708 442 744 348 744 299 c 0
 744 273 735 255 718 254 c 0x5f
 670 250 530 247 473 245 c 1
 473 101 566 66 624 66 c 0xaf
EndSplineSet
Validated: 33
EndChar

StartChar: Tbar
Encoding: 358 358 379
Width: 629
Flags: W
HStem: -4 33<182.75 251.778 379.221 447.25> 310 38<145.337 481.828> 618 40<98.0983 259 373 530.902>
VStem: 10 36<490.828 551.207> 259 114<36.7397 618> 583 36<490.646 551.207>
LayerCount: 2
Back
Fore
SplineSet
480 310 m 1
 451 310 161 310 147 310 c 1
 143 310 142 339 148 348 c 1
 177 348 466 348 480 348 c 1
 484 348 484 319 480 310 c 1
EndSplineSet
Refer: 52 84 N 1 0 0 1 0 0 2
Validated: 37
EndChar

StartChar: tbar
Encoding: 359 359 380
Width: 330
Flags: W
HStem: -7 59<172 265.351> 290 36<14.4046 304.209> 386 44<22.2377 84 188 311.628>
VStem: 84 104<64.7735 386 430 510.438>
LayerCount: 2
Back
Fore
SplineSet
19 326 m 1
 48 326 286 326 300 326 c 1
 303 326 305 322 305 318 c 1
 305 311 303 297 300 290 c 1
 271 290 33 290 19 290 c 1
 16 290 14 296 14 300 c 1
 14 307 15 320 19 326 c 1
EndSplineSet
Refer: 84 116 N 1 0 0 1 1 0 2
Validated: 5
EndChar

StartChar: Uogonek
Encoding: 370 370 381
Width: 728
Flags: W
HStem: -221 64<427.571 493.297> -6 65<303.357 456.62> 629 33<24.75 93.7784 220.222 289.25 485.538 556.428 644.294 720.199>
VStem: 100 114<165.871 621.622> 358 64<-151.708 -74.4082> 573 55<167.48 615.972>
LayerCount: 2
Back
Fore
SplineSet
422 -112 m 0
 422 -130 431 -157 467 -157 c 0
 507 -157 537 -122 545 -118 c 0
 547 -118 550 -122 550 -130 c 0
 550 -135 547 -148 544 -152 c 0
 526 -176 480 -221 430 -221 c 0
 386 -221 358 -184 358 -144 c 0
 358 -99 400 -34 434 1 c 1
 410 -4 386 -6 360 -6 c 0
 282 -6 211 19 165 70 c 0
 123 117 100 184 100 276 c 2
 100 528 l 2
 100 564 101 594 94 612 c 0
 90 624 39 629 27 629 c 1
 23 635 23 656 27 662 c 1
 67 659 118 656 158 656 c 0
 198 656 247 659 287 662 c 1
 291 656 291 635 287 629 c 1
 275 629 224 624 220 612 c 0
 214 594 214 564 214 528 c 2
 214 313 l 2
 214 237 223 182 251 136 c 1
 286 72 346 59 395 59 c 0
 487 59 571 118 573 292 c 1
 573 512 l 2
 573 552 570 590 561 608 c 0
 554 622 502 630 488 630 c 1
 483 637 484 656 487 662 c 1
 531 659 560 656 605 656 c 0
 650 656 674 660 718 662 c 1
 722 656 723 639 718 630 c 1
 706 630 648 624 640 608 c 0
 632 590 628 553 628 513 c 2
 628 281 l 2
 628 161 583 83 521 38 c 0
 483 10 422 -61 422 -112 c 0
EndSplineSet
Validated: 33
EndChar

StartChar: uogonek
Encoding: 371 371 382
Width: 540
Flags: W
HStem: -221 64<383.571 449.297> -8 21G<359 362.5> 24 30<469.927 518.645> 48 4<274 350> 376 28<11.865 67.5336 282.391 335.668> 421 20G<161.5 183 432.5 454>
VStem: 82 104<87.9368 366.211> 314 64<-151.708 -74.2024> 352 104<70.0939 366.211>
LayerCount: 2
Back
Fore
SplineSet
352 288 m 2xde80
 352 300 352 341 344 356 c 0
 335 372 294 376 284 376 c 1
 281 378 281 402 285 404 c 1
 349 408 414 426 451 441 c 1
 457 440 465 426 465 422 c 1
 461 414 456 384 456 362 c 0
 456 351 456 310 456 307 c 2
 456 307 456 124 456 124 c 2xde80
 456 111 456 87 464 68 c 1
 471 54 510 54 516 54 c 1
 518 52 519 47 519 42 c 0
 519 38 516 27 512 24 c 1
 432 8 378 -61 378 -112 c 0
 378 -130 387 -157 423 -157 c 0
 463 -157 493 -122 501 -118 c 0
 503 -118 506 -122 506 -130 c 0
 506 -135 503 -148 500 -152 c 0
 482 -176 436 -221 386 -221 c 0
 342 -221 314 -184 314 -144 c 0xef
 314 -96 355 -40 391 -6 c 0
 395 -2 397 -1 403 3 c 1
 375 -4 364 -8 361 -8 c 0
 357 -8 352 1 352 12 c 2
 352 12 352 44 352 44 c 2
 352 48 352 49 350 48 c 0
 328 28 268 -6 208 -6 c 0
 106 -6 82 94 82 183 c 2
 82 183 82 288 82 288 c 2
 82 300 81 341 73 356 c 0
 64 372 24 376 14 376 c 1
 11 378 10 402 14 404 c 1
 78 408 143 426 180 441 c 1
 186 440 194 426 194 422 c 1
 190 414 186 384 186 362 c 0
 186 351 186 311 186 308 c 2
 186 308 186 212 186 212 c 2
 186 106 208 52 274 52 c 0
 310 52 352 78 352 98 c 2
 352 98 352 288 352 288 c 2xde80
EndSplineSet
Validated: 1
EndChar

StartChar: breve
Encoding: 728 728 405
Width: 474
Flags: W
HStem: 515 51<353.463 470.978>
VStem: 503 20<614.094 627.896>
LayerCount: 2
Back
Fore
SplineSet
503 635 m 1
 510 635 523 623 523 617 c 3
 523 615 523 612 522 610 c 0
 508 553 466 515 413 515 c 0
 360 515 314 553 300 610 c 0
 299 612 299 615 299 617 c 3
 299 623 311 635 318 635 c 1
 325 611 361 566 413 566 c 0
 467 566 495 611 503 635 c 1
EndSplineSet
Validated: 1
EndChar

StartChar: longs
Encoding: 383 383 406
Width: 302
Flags: W
HStem: -4 33<25.75 91.7806 208.221 276.25> 386 44<37.2377 98> 632 66<228.368 303.876>
VStem: 98 104<36.3778 386 430 545.536>
LayerCount: 2
Back
Fore
SplineSet
202 347 m 0
 202 130 l 2
 202 94 202 64 208 46 c 0
 212 34 262 29 274 29 c 1
 278 23 278 2 274 -4 c 1
 234 -1 190 2 150 2 c 0
 110 2 68 -1 28 -4 c 1
 24 2 24 23 28 29 c 1
 40 29 88 34 92 46 c 0
 98 64 98 94 98 130 c 2
 98 130 98 342 98 386 c 1
 84 386 47 386 34 386 c 1
 30 387 29 393 29 397 c 1
 34 406 52 424 58 430 c 1
 73 430 88 430 98 430 c 1
 98 440 l 2
 98 581 220 698 288 698 c 0
 319 698 330 693 344 686 c 1
 354 680 368 667 368 650 c 1
 368 616 346 595 323 595 c 1
 303 595 290 610 275 620 c 0
 264 628 255 632 241 632 c 0
 217 632 198 598 198 544 c 1
 198 521 202 363 202 347 c 0
EndSplineSet
Validated: 33
EndChar

StartChar: uni02BE
Encoding: 702 702 412
Width: 189
Flags: W
HStem: 443 29<29.4617 66.584> 672 28<30.2093 70.6187>
VStem: 107 52<506.551 643.903>
LayerCount: 2
Back
Fore
SplineSet
31 700 m 1
 107 700 159 636 159 574 c 0
 159 502 107 443 30 443 c 1
 29 453 29 462 30 472 c 1
 76 472 107 531 107 574 c 0
 107 626 77 672 31 672 c 1
 28 682 30 690 31 700 c 1
EndSplineSet
Validated: 1
EndChar

StartChar: uni02BF
Encoding: 703 703 413
Width: 189
Flags: W
HStem: 443 29<122.416 159.538> 672 28<118.381 158.791>
VStem: 30 52<506.551 643.903>
LayerCount: 2
Back
Fore
SplineSet
158 700 m 1
 159 690 161 682 158 672 c 1
 112 672 82 626 82 574 c 0
 82 531 113 472 159 472 c 1
 160 462 160 453 159 443 c 1
 82 443 30 502 30 574 c 0
 30 636 82 700 158 700 c 1
EndSplineSet
Validated: 1
EndChar

StartChar: quotereversed
Encoding: 8219 8219 414
Width: 189
Flags: W
HStem: 479 228<75 141>
VStem: 33 64<556.02 644>
LayerCount: 2
Back
Fore
SplineSet
33 630 m 0
 33 658 38 687 47 700 c 1
 55 704 68 707 75 707 c 0
 107 707 138 684 138 660 c 0
 138 647 129 638 119 626 c 0
 109 614 97 600 97 580 c 0
 97 571 102 533 162 497 c 1
 158 486 149 479 141 479 c 0
 132 479 33 536 33 630 c 0
EndSplineSet
Validated: 1
EndChar

StartChar: uni201F
Encoding: 8223 8223 415
Width: 327
Flags: W
HStem: 478 228<62 129 208 274>
VStem: 19 65<555.35 643> 165 64<554.712 643>
LayerCount: 2
Back
Fore
SplineSet
165 629 m 0
 165 657 171 686 180 699 c 1
 188 703 201 706 208 706 c 0
 240 706 271 684 271 660 c 0
 271 646 259 634 248 622 c 0
 238 611 229 597 229 578 c 0
 229 569 235 532 295 496 c 1
 291 485 282 478 274 478 c 0
 265 478 165 535 165 629 c 0
19 629 m 0
 19 657 25 686 34 699 c 1
 42 703 55 706 62 706 c 0
 94 706 126 684 126 660 c 0
 126 646 115 636 105 624 c 0
 95 612 84 598 84 578 c 0
 84 569 89 532 149 496 c 1
 145 485 137 478 129 478 c 0
 120 478 19 535 19 629 c 0
EndSplineSet
Validated: 1
EndChar

StartChar: fraction
Encoding: 8260 8260 427
Width: 516
Flags: W
HStem: -2 21G<43.5 58.5>
LayerCount: 2
Back
Fore
SplineSet
493 721 m 1
 74 14 l 2
 70 7 63 -2 54 -2 c 0
 33 -2 23 10 23 10 c 1
 442 717 l 2
 445 723 452 731 458 731 c 0
 474 731 489 724 493 721 c 1
EndSplineSet
Validated: 1
EndChar

